<?xml version="1.0" standalone="no"?>
<!DOCTYPE svg PUBLIC "-//W3C//DTD SVG 1.1//EN" "http://www.w3.org/Graphics/SVG/1.1/DTD/svg11.dtd" >
<svg xmlns="http://www.w3.org/2000/svg" xmlns:xlink="http://www.w3.org/1999/xlink" version="1.1">
<metadata>
Created by FontForge 20170910 at Mon Mar 17 20:17:21 2014
 By Jimmy Wärting
(c) 2014, Copyright by Botio Nikoltchev. All rights reserved.
</metadata>
<defs>
<font id="RopaSansPro-Bold" horiz-adv-x="560" >
  <font-face 
    font-family="Ropa Sans Pro"
    font-weight="700"
    font-stretch="normal"
    units-per-em="1000"
    panose-1="2 11 8 4 2 1 1 1 1 2"
    ascent="800"
    descent="-200"
    x-height="488"
    cap-height="655"
    bbox="-146 -349 1244 893"
    underline-thickness="50"
    underline-position="-100"
    stemh="101"
    stemv="117"
    unicode-range="U+000D-FEFF"
  />
<missing-glyph horiz-adv-x="465" 
d="M53 0v655h359v-655h-359zM149 96h167v463h-167v-463z" />
    <glyph glyph-name="f_f" unicode="ff" horiz-adv-x="549" 
d="M486 695c23 0 58 -4 77 -8v-98c-23 4 -42 6 -63 6c-37 0 -58 -19 -58 -61v-46h85v-101h-85v-387h-117v387h-126v-387h-116v387h-64v101h64v31c0 116 50 172 165 172c41 0 87 -8 132 -22c25 16 62 26 106 26zM261 593c-43 0 -61 -19 -61 -62v-43h126v42c0 19 2 37 7 53
c-20 6 -46 10 -72 10z" />
    <glyph glyph-name="f_f_i" unicode="ffi" horiz-adv-x="735" 
d="M492 695c29 0 78 -6 108 -11v-103c-30 8 -66 14 -95 14c-45 0 -63 -19 -63 -62v-45h239v-488h-116v387h-123v-387h-117v387h-126v-387h-116v387h-64v101h64v31c0 116 50 172 165 172c41 0 87 -8 132 -22c25 16 65 26 112 26zM261 593c-43 0 -61 -19 -61 -62v-43h126v39
c0 20 2 39 7 56c-20 6 -46 10 -72 10z" />
    <glyph glyph-name="f_f_j" unicode="ffj" horiz-adv-x="737" 
d="M492 695c29 0 78 -6 108 -11v-103c-30 8 -66 14 -95 14c-45 0 -63 -19 -63 -62v-45h242v-509c0 -123 -48 -176 -159 -176c-31 0 -60 3 -76 6v100c12 -1 41 -3 60 -3c36 0 59 12 59 65v416h-126v-387h-117v387h-126v-387h-116v387h-64v101h64v31c0 116 50 172 165 172
c41 0 87 -8 132 -22c25 16 65 26 112 26zM261 593c-43 0 -61 -19 -61 -62v-43h126v39c0 20 2 39 7 56c-20 6 -46 10 -72 10z" />
    <glyph glyph-name="f_f_l" unicode="ffl" horiz-adv-x="737" 
d="M492 695c31 0 83 -8 112 -14l80 6v-687h-116v586c-20 5 -45 9 -67 9c-41 0 -59 -19 -59 -62v-45h61v-101h-61v-387h-117v387h-126v-387h-116v387h-64v101h64v31c0 116 50 172 165 172c41 0 87 -8 132 -22c25 16 64 26 112 26zM260 593c-43 0 -61 -19 -61 -62v-43h126v39
c0 20 2 39 7 56c-20 6 -46 10 -72 10z" />
    <glyph glyph-name="f_i" unicode="fi" horiz-adv-x="492" 
d="M250 695c29 0 77 -6 107 -11v-103c-30 8 -66 14 -94 14c-45 0 -64 -18 -64 -62v-45h240v-488h-117v387h-123v-387h-116v387h-64v101h64v35c0 117 51 172 167 172z" />
    <glyph glyph-name="f_j" unicode="fj" horiz-adv-x="493" 
d="M250 695c29 0 75 -6 105 -11v-102c-30 7 -66 13 -94 13c-44 0 -62 -19 -62 -62v-45h241v-509c0 -123 -49 -176 -159 -176c-31 0 -61 3 -76 6v100c11 -1 40 -3 60 -3c36 0 58 12 58 65v416h-124v-387h-116v387h-64v101h64v35c0 117 51 172 167 172z" />
    <glyph glyph-name="f_l" unicode="fl" horiz-adv-x="495" 
d="M250 695c31 0 82 -8 111 -14l81 6v-687h-117v586c-19 5 -44 9 -66 9c-41 0 -60 -19 -60 -62v-45h62v-101h-62v-387h-116v387h-64v101h64v35c0 118 52 172 167 172z" />
    <glyph glyph-name=".notdef" horiz-adv-x="465" 
d="M53 0v655h359v-655h-359zM149 96h167v463h-167v-463z" />
    <glyph glyph-name=".null" horiz-adv-x="0" 
 />
    <glyph glyph-name=".null" horiz-adv-x="0" 
 />
    <glyph glyph-name="uni000D" unicode="&#xd;" horiz-adv-x="137" 
 />
    <glyph glyph-name="space" unicode=" " horiz-adv-x="137" 
 />
    <glyph glyph-name="exclam" unicode="!" horiz-adv-x="211" 
d="M162 200h-113l-7 495h127zM105 135c46 0 71 -21 71 -61v-26c0 -38 -25 -60 -71 -60c-45 0 -70 22 -70 60v26c0 40 25 61 70 61z" />
    <glyph glyph-name="quotedbl" unicode="&#x22;" horiz-adv-x="353" 
d="M153 412h-117v271h117v-271zM317 412h-117v271h117v-271z" />
    <glyph glyph-name="numbersign" unicode="#" horiz-adv-x="569" 
d="M459 497h73v-100h-73v-181h73v-100h-73v-116h-116v116h-117v-116h-116v116h-73v100h73v181h-73v100h73v116h116v-116h117v116h116v-116zM226 397v-181h117v181h-117z" />
    <glyph glyph-name="dollar" unicode="$" horiz-adv-x="435" 
d="M281 695v-85c31 -2 65 -7 98 -11l-2 -105c-45 9 -97 15 -138 15c-69 0 -93 -24 -93 -65v-15c0 -35 9 -50 57 -65l58 -17c117 -34 151 -74 151 -175v-11c0 -88 -35 -145 -131 -165v-90h-108v83c-39 2 -80 9 -121 17l2 105c60 -13 103 -20 141 -20c75 0 100 23 100 66v18
c0 31 -12 46 -67 62l-59 18c-107 33 -140 72 -140 179v7c0 93 40 151 144 166v88h108z" />
    <glyph glyph-name="percent" unicode="%" horiz-adv-x="874" 
d="M200 625c109 0 164 -59 164 -166v-28c0 -107 -54 -167 -164 -167c-108 0 -166 58 -166 167v28c0 107 57 166 166 166zM337 0h-126l335 613h127zM200 524c-34 0 -52 -18 -52 -62v-34c0 -44 18 -63 52 -63s51 19 51 63v34c0 45 -17 62 -51 62zM684 349
c109 0 164 -59 164 -167v-28c0 -106 -54 -166 -164 -166c-108 0 -166 58 -166 166v28c0 108 57 167 166 167zM684 248c-34 0 -52 -19 -52 -63v-34c0 -44 18 -62 52 -62s51 19 51 62v34c0 45 -17 63 -51 63z" />
    <glyph glyph-name="ampersand" unicode="&#x26;" horiz-adv-x="521" 
d="M239 667c42 0 83 -4 124 -10l-2 -100c-36 6 -71 10 -110 10c-62 0 -88 -28 -88 -79v-18c0 -54 34 -88 98 -88h80v62h112v-62h61v-99h-61v-268c-81 -18 -131 -27 -195 -27c-172 0 -233 68 -233 177v23c0 70 43 131 118 154c-66 27 -95 77 -95 141v19c0 93 68 165 191 165z
M341 283h-84c-80 0 -116 -34 -116 -88v-23c0 -53 37 -82 119 -82c25 0 52 3 81 10v183z" />
    <glyph glyph-name="quotesingle" unicode="'" horiz-adv-x="190" 
d="M153 412h-117v271h117v-271z" />
    <glyph glyph-name="parenleft" unicode="(" horiz-adv-x="241" 
d="M257 775v-97c-73 -4 -87 -18 -87 -81v-540c0 -61 12 -77 87 -80v-97c-160 0 -204 51 -204 201v493c0 150 44 201 204 201z" />
    <glyph glyph-name="parenright" unicode=")" horiz-adv-x="241" 
d="M-16 678v97c161 0 204 -51 204 -201v-493c0 -150 -43 -201 -204 -201v97c75 3 88 19 88 80v540c0 63 -14 77 -88 81z" />
    <glyph glyph-name="asterisk" unicode="*" horiz-adv-x="398" 
d="M236 590l93 48l33 -98l-105 -19l74 -73l-85 -60l-47 89l-48 -92l-84 64l73 73l-104 18l33 99l93 -48l-16 104h106z" />
    <glyph glyph-name="plus" unicode="+" horiz-adv-x="394" 
d="M252 347h129v-102h-129v-141h-109v141h-130v102h130v141h109v-141z" />
    <glyph glyph-name="comma" unicode="," horiz-adv-x="215" 
d="M107 136c45 0 70 -21 70 -59v-30c0 -20 -2 -36 -7 -52l-49 -156h-83l39 155c-25 7 -39 26 -39 55v28c0 37 24 59 69 59z" />
    <glyph glyph-name="hyphen" unicode="-" horiz-adv-x="324" 
d="M279 247h-233v96h233v-96z" />
    <glyph glyph-name="period" unicode="." horiz-adv-x="218" 
d="M109 136c46 0 71 -21 71 -61v-27c0 -38 -25 -60 -71 -60s-71 22 -71 60v27c0 40 25 61 71 61z" />
    <glyph glyph-name="slash" unicode="/" horiz-adv-x="290" 
d="M102 0h-118l205 683h118z" />
    <glyph glyph-name="zero" unicode="0" horiz-adv-x="475" 
d="M238 613c121 0 191 -66 191 -206v-212c0 -139 -68 -207 -191 -207s-191 68 -191 207v212c0 140 69 206 191 206zM238 511c-48 0 -74 -27 -74 -94v-232c0 -67 26 -95 74 -95c47 0 74 28 74 95v232c0 67 -27 94 -74 94z" />
    <glyph glyph-name="one" unicode="1" horiz-adv-x="314" 
d="M258 0h-117v481h-2l-118 -52l-23 103l168 69h92v-601z" />
    <glyph glyph-name="two" unicode="2" horiz-adv-x="390" 
d="M157 613c132 0 198 -57 198 -167v-21c0 -60 -17 -112 -85 -188l-118 -135h205v-102h-352v84l193 239c32 40 39 61 39 99v15c0 50 -28 74 -90 74c-37 0 -89 -11 -126 -22v103c50 12 102 21 136 21z" />
    <glyph glyph-name="three" unicode="3" horiz-adv-x="383" 
d="M159 613c113 0 181 -60 181 -156v-13c0 -58 -29 -109 -80 -131c54 -21 92 -76 92 -139v-11c0 -101 -68 -175 -191 -175c-32 0 -88 6 -138 13v100c42 -7 95 -13 130 -13c53 0 83 30 83 80v12c0 55 -28 81 -83 81h-98v98h95c51 0 74 24 74 77v14c0 43 -25 64 -74 64
c-34 0 -86 -8 -127 -15v100c50 8 103 14 136 14z" />
    <glyph glyph-name="four" unicode="4" horiz-adv-x="433" 
d="M368 219h58v-100h-58v-119h-115v119h-253v78l223 404h145v-382zM126 219h127v23l6 239z" />
    <glyph glyph-name="five" unicode="5" horiz-adv-x="432" 
d="M361 502h-208v-156c29 27 74 44 120 44c85 0 133 -49 133 -176v-30c0 -129 -62 -196 -199 -196c-51 0 -120 12 -159 23v99c38 -8 123 -20 154 -20c59 0 88 31 88 90v35c0 51 -21 73 -58 73c-41 0 -71 -15 -106 -54h-88v370h323v-102z" />
    <glyph glyph-name="six" unicode="6" horiz-adv-x="457" 
d="M375 606v-100c-163 -5 -215 -46 -215 -127v-41c42 41 80 58 120 58c89 0 145 -57 145 -182v-36c0 -125 -68 -190 -192 -190s-190 70 -190 194v183c0 153 105 239 332 241zM250 292c-28 0 -60 -21 -90 -51v-65c0 -59 25 -86 73 -86c50 0 75 26 75 81v46
c0 51 -21 75 -58 75z" />
    <glyph glyph-name="seven" unicode="7" horiz-adv-x="384" 
d="M377 525l-214 -525h-125l208 496v1h-242v103h373v-75z" />
    <glyph glyph-name="eight" unicode="8" horiz-adv-x="447" 
d="M223 613c111 0 177 -54 177 -156v-9c0 -52 -24 -101 -67 -124c57 -23 90 -75 90 -137v-19c0 -114 -70 -180 -200 -180c-129 0 -200 65 -200 180v19c0 61 33 114 90 137c-44 23 -66 72 -66 124v9c0 101 66 156 176 156zM223 520c-43 0 -63 -21 -63 -63v-23
c0 -45 18 -64 63 -64c46 0 63 19 63 64v23c0 44 -21 63 -63 63zM224 275c-53 0 -84 -30 -84 -81v-36c0 -43 29 -73 84 -73c54 0 83 30 83 73v36c0 52 -32 81 -83 81z" />
    <glyph glyph-name="nine" unicode="9" horiz-adv-x="458" 
d="M225 613c120 0 190 -67 190 -195v-208c0 -154 -69 -222 -209 -222c-42 0 -107 8 -137 15v101c34 -6 103 -15 128 -15c67 0 101 33 101 110v63c-40 -38 -80 -58 -122 -58c-88 0 -143 58 -143 182v36c0 124 67 191 192 191zM224 510c-50 0 -75 -26 -75 -81v-46
c0 -51 21 -75 58 -75c28 0 60 21 90 51v65c0 59 -25 86 -73 86z" />
    <glyph glyph-name="colon" unicode=":" horiz-adv-x="217" 
d="M109 136c46 0 71 -21 71 -61v-27c0 -38 -25 -60 -71 -60s-71 22 -71 60v27c0 40 25 61 71 61zM109 480c46 0 71 -21 71 -61v-27c0 -38 -25 -60 -71 -60s-71 22 -71 60v27c0 40 25 61 71 61z" />
    <glyph glyph-name="semicolon" unicode=";" horiz-adv-x="217" 
d="M107 136c45 0 70 -21 70 -59v-30c0 -20 -2 -36 -7 -52l-49 -156h-83l39 155c-25 7 -39 26 -39 55v28c0 37 24 59 69 59zM108 480c46 0 71 -21 71 -61v-27c0 -38 -25 -60 -71 -60s-71 22 -71 60v27c0 40 25 61 71 61z" />
    <glyph glyph-name="less" unicode="&#x3c;" horiz-adv-x="407" 
d="M389 387l-228 -94l228 -96v-116l-372 165v93l372 165v-117z" />
    <glyph glyph-name="equal" unicode="=" horiz-adv-x="424" 
d="M395 338h-366v100h366v-100zM395 163h-366v100h366v-100z" />
    <glyph glyph-name="greater" unicode="&#x3e;" horiz-adv-x="407" 
d="M389 339v-93l-372 -165v116l229 96l-229 94v117z" />
    <glyph glyph-name="question" unicode="?" horiz-adv-x="385" 
d="M159 695c135 0 188 -51 188 -148v-19c0 -59 -21 -108 -79 -169l-33 -36c-19 -21 -24 -32 -24 -66v-53h-113v43c0 67 5 83 41 125l54 63c31 36 37 53 37 90v15c0 38 -19 56 -84 56c-33 0 -94 -11 -129 -19v101c50 10 108 17 142 17zM156 135c46 0 71 -21 71 -61v-26
c0 -38 -25 -60 -71 -60c-45 0 -70 22 -70 60v26c0 40 25 61 70 61z" />
    <glyph glyph-name="at" unicode="@" horiz-adv-x="917" 
d="M450 695c287 0 422 -125 422 -368v-53c0 -159 -87 -261 -229 -261c-69 0 -118 30 -135 84c-44 -50 -95 -84 -141 -84c-82 0 -128 63 -113 175l16 128c14 114 71 172 151 172c47 0 88 -25 115 -51l4 38h109l-38 -288c-4 -49 5 -69 39 -69c56 0 105 64 105 161v48
c0 177 -93 262 -305 262c-185 0 -288 -106 -288 -289v-121c0 -176 81 -258 269 -258h161v-106h-161c-265 0 -386 120 -386 364v121c0 239 132 395 405 395zM448 381c-32 0 -56 -23 -64 -81l-14 -105c-8 -55 8 -76 36 -76c26 0 58 21 88 62l20 165c-18 22 -44 35 -66 35z" />
    <glyph glyph-name="A" unicode="A" horiz-adv-x="536" 
d="M533 0h-128l-35 137h-209l-35 -137h-123l194 655h142zM185 239h161l-80 316z" />
    <glyph glyph-name="B" unicode="B" horiz-adv-x="513" 
d="M241 667c149 0 223 -70 223 -163v-18c0 -65 -31 -118 -98 -144c77 -15 124 -71 124 -149v-20c0 -108 -71 -185 -244 -185c-57 0 -99 1 -190 5v669c50 2 128 5 185 5zM232 563c-18 0 -35 0 -57 -2v-179h73c64 0 96 33 96 87v16c0 50 -31 78 -112 78zM175 282v-185
c37 -3 47 -4 73 -4c87 0 122 35 122 89v18c0 52 -35 82 -117 82h-78z" />
    <glyph glyph-name="C" unicode="C" horiz-adv-x="460" 
d="M272 667c44 0 92 -8 150 -17l-2 -107c-39 7 -90 16 -136 16c-85 0 -113 -27 -113 -108v-246c0 -80 29 -107 113 -107c46 0 97 10 136 18l2 -110c-51 -9 -104 -18 -150 -18c-164 0 -221 70 -221 209v261c0 141 59 209 221 209z" />
    <glyph glyph-name="D" unicode="D" horiz-adv-x="548" 
d="M248 666c165 0 254 -96 254 -265v-156c0 -162 -84 -257 -262 -257c-64 0 -125 2 -184 6v667c51 2 120 5 192 5zM243 561c-23 0 -46 0 -68 -2v-461c28 -3 50 -4 68 -4c86 0 139 49 139 145v168c0 105 -51 154 -139 154z" />
    <glyph glyph-name="E" unicode="E" horiz-adv-x="467" 
d="M421 545h-245v-158h225v-109h-225v-168h245v-110h-365v655h365v-110z" />
    <glyph glyph-name="F" unicode="F" horiz-adv-x="450" 
d="M421 545h-245v-158h181v-109h-181v-278h-120v655h365v-110z" />
    <glyph glyph-name="G" unicode="G" horiz-adv-x="535" 
d="M272 667c52 0 134 -11 183 -21l-2 -106c-41 8 -123 21 -177 21c-77 0 -105 -28 -105 -99v-266c0 -71 28 -100 102 -100c26 0 58 4 90 9v176h-97v108h216v-361c-59 -20 -143 -40 -212 -40c-162 0 -219 70 -219 209v261c0 144 62 209 221 209z" />
    <glyph glyph-name="H" unicode="H" horiz-adv-x="557" 
d="M501 0h-119v283h-206v-283h-120v655h120v-264h206v264h119v-655z" />
    <glyph glyph-name="I" unicode="I" horiz-adv-x="231" 
d="M176 0h-120v655h120v-655z" />
    <glyph glyph-name="J" unicode="J" horiz-adv-x="299" 
d="M244 655v-489c0 -121 -53 -178 -166 -178c-22 0 -66 5 -80 10v102c18 -4 48 -6 71 -6c37 0 55 17 55 66v495h120z" />
    <glyph glyph-name="K" unicode="K" horiz-adv-x="533" 
d="M278 335l259 -335h-146l-215 289v-289h-120v655h120v-295l212 295h127z" />
    <glyph glyph-name="L" unicode="L" horiz-adv-x="440" 
d="M176 108h245v-108h-365v655h120v-547z" />
    <glyph glyph-name="M" unicode="M" horiz-adv-x="680" 
d="M509 456l-104 -384h-130l-104 384l-5 -456h-114l6 655h155l128 -465l128 465h153l6 -655h-113z" />
    <glyph glyph-name="N" unicode="N" horiz-adv-x="559" 
d="M172 463v-463h-116v655h163l169 -463v463h115v-655h-159z" />
    <glyph glyph-name="O" unicode="O" horiz-adv-x="553" 
d="M276 667c157 0 226 -81 226 -221v-237c0 -138 -67 -221 -226 -221c-158 0 -225 83 -225 221v237c0 140 68 221 225 221zM276 559c-71 0 -106 -36 -106 -104v-254c0 -69 36 -105 106 -105s106 36 106 105v253c0 68 -36 105 -106 105z" />
    <glyph glyph-name="P" unicode="P" horiz-adv-x="499" 
d="M238 667c165 1 240 -74 240 -191v-22c0 -127 -75 -204 -227 -204c-21 0 -44 2 -75 7v-257h-120v661c50 2 115 5 182 6zM238 563c-30 0 -46 -1 -63 -2v-199c31 -4 50 -6 67 -6c78 0 116 35 116 102v15c0 58 -35 90 -120 90z" />
    <glyph glyph-name="Q" unicode="Q" horiz-adv-x="553" 
d="M276 667c157 0 226 -81 226 -221v-237c0 -87 -31 -143 -92 -176l114 -26l1 -101h-37l-209 83h-15c-152 5 -213 87 -213 220v237c0 140 68 221 225 221zM276 559c-71 0 -106 -36 -106 -104v-255c0 -69 36 -105 106 -105c71 0 106 36 106 106v253c0 68 -36 105 -106 105z
" />
    <glyph glyph-name="R" unicode="R" horiz-adv-x="529" 
d="M239 667c167 0 237 -72 237 -184v-24c0 -70 -38 -133 -111 -164l162 -295h-132l-142 264c-17 -2 -50 -1 -77 1v-265h-120v661c58 2 136 6 183 6zM239 562c-16 0 -44 -1 -64 -2v-191c29 -3 45 -4 65 -4c82 0 116 36 116 95v16c0 57 -34 86 -117 86z" />
    <glyph glyph-name="S" unicode="S" horiz-adv-x="459" 
d="M236 667c40 0 99 -7 152 -16l-2 -109c-50 9 -110 17 -147 17c-63 0 -86 -25 -86 -70v-21c0 -36 11 -50 63 -67l88 -29c93 -31 128 -78 128 -179v-19c0 -120 -62 -186 -228 -186c-36 0 -96 9 -154 21l1 111c54 -13 114 -22 150 -22c84 0 112 26 112 72v26
c0 35 -14 53 -53 66l-97 32c-97 32 -130 75 -130 178v10c0 119 60 185 203 185z" />
    <glyph glyph-name="T" unicode="T" horiz-adv-x="522" 
d="M500 545h-180v-545h-119v545h-180v110h479v-110z" />
    <glyph glyph-name="U" unicode="U" horiz-adv-x="553" 
d="M498 655v-444c0 -141 -70 -223 -221 -223c-149 0 -221 79 -221 222v445h120v-454c0 -69 36 -105 101 -105c64 0 101 36 101 105v454h120z" />
    <glyph glyph-name="V" unicode="V" horiz-adv-x="537" 
d="M338 0h-144l-187 655h126l133 -549l136 549h127z" />
    <glyph glyph-name="W" unicode="W" horiz-adv-x="832" 
d="M675 0h-147l-111 526l-111 -526h-147l-143 655h126l95 -532l109 532h141l110 -531l94 531h126z" />
    <glyph glyph-name="X" unicode="X" horiz-adv-x="531" 
d="M338 335l190 -335h-142l-122 239l-124 -239h-137l192 336l-181 319h140l115 -223l114 223h135z" />
    <glyph glyph-name="Y" unicode="Y" horiz-adv-x="513" 
d="M316 226v-226h-120v226l-189 429h135l115 -313l116 313h132z" />
    <glyph glyph-name="Z" unicode="Z" horiz-adv-x="476" 
d="M441 563l-270 -454h270v-109h-413v91l271 455h-264v109h406v-92z" />
    <glyph glyph-name="bracketleft" unicode="[" horiz-adv-x="262" 
d="M281 677h-111v-699h111v-96h-228v891h228v-96z" />
    <glyph glyph-name="backslash" unicode="\" horiz-adv-x="290" 
d="M307 0h-118l-205 683h118z" />
    <glyph glyph-name="bracketright" unicode="]" horiz-adv-x="262" 
d="M209 -118h-228v96h111v699h-111v96h228v-891z" />
    <glyph glyph-name="asciicircum" unicode="^" horiz-adv-x="491" 
d="M446 388h-120l-81 183l-80 -183h-119l149 295h102z" />
    <glyph glyph-name="underscore" unicode="_" horiz-adv-x="585" 
d="M539 -185h-493v96h493v-96z" />
    <glyph glyph-name="grave" unicode="`" horiz-adv-x="261" 
d="M231 546h-94l-107 148h120z" />
    <glyph glyph-name="a" unicode="a" horiz-adv-x="432" 
d="M211 500c125 0 173 -44 173 -174v-326h-109v66c-34 -51 -76 -78 -120 -78c-75 0 -124 55 -124 154v26c0 87 57 144 153 144c21 0 56 -5 83 -10v38c0 42 -19 58 -68 58c-33 0 -91 -9 -132 -17v102c49 9 110 17 144 17zM211 226c-42 0 -63 -23 -63 -65v-8
c0 -40 18 -60 43 -60s53 21 77 64v64c-20 3 -42 5 -57 5z" />
    <glyph glyph-name="b" unicode="b" horiz-adv-x="450" 
d="M165 683v-249c29 40 72 66 119 66c78 0 123 -52 123 -173v-150c0 -125 -58 -189 -182 -189c-123 0 -177 61 -177 187v508h117zM246 394c-28 0 -59 -23 -81 -61v-170c0 -49 23 -74 61 -74c44 0 65 25 65 76v152c0 59 -18 77 -45 77z" />
    <glyph glyph-name="c" unicode="c" horiz-adv-x="375" 
d="M230 500c31 0 61 -3 112 -13l-2 -104c-36 8 -68 13 -96 13c-60 0 -84 -27 -84 -87v-130c0 -62 28 -86 84 -86c30 0 56 4 95 12l3 -104c-54 -10 -84 -13 -113 -13c-125 0 -186 64 -186 187v138c0 121 60 187 187 187z" />
    <glyph glyph-name="d" unicode="d" horiz-adv-x="455" 
d="M402 0h-109v70c-35 -52 -78 -82 -125 -82c-79 0 -125 52 -125 167v174c0 111 50 171 135 171c41 0 81 -22 108 -44v227h116v-683zM214 394c-34 0 -54 -21 -54 -78v-148c0 -56 17 -74 43 -74c28 0 58 23 83 66v199c-21 21 -50 35 -72 35z" />
    <glyph glyph-name="e" unicode="e" horiz-adv-x="432" 
d="M220 500c115 0 179 -64 179 -184v-112h-240v-37c0 -53 23 -74 85 -74c41 0 94 8 134 16l3 -102c-49 -10 -110 -19 -147 -19c-138 0 -191 57 -191 191v137c0 117 57 184 177 184zM220 400c-37 0 -61 -24 -61 -69v-40h124v37c0 49 -24 72 -63 72z" />
    <glyph glyph-name="f" unicode="f" horiz-adv-x="307" 
d="M243 695c27 0 61 -4 78 -8v-98c-23 4 -42 6 -64 6c-37 0 -58 -20 -58 -70v-37h92v-101h-92v-387h-116v387h-64v101h64v42c0 108 57 165 160 165z" />
    <glyph glyph-name="g" unicode="g" horiz-adv-x="469" 
d="M220 500c30 0 57 -5 79 -13l163 2v-102l-77 3c8 -19 14 -43 14 -68v-17c0 -88 -63 -154 -180 -154c-24 0 -44 2 -60 6c-12 -9 -16 -20 -16 -30v-4c0 -15 7 -22 34 -24l132 -9c69 -5 113 -50 113 -118v-37c0 -85 -39 -132 -215 -132c-45 0 -115 10 -163 23l4 103
c44 -13 109 -27 155 -27c95 0 105 12 105 46v6c0 21 -12 33 -35 34l-139 9c-72 5 -105 42 -105 98v19c0 31 19 62 49 81c-24 27 -36 66 -36 124v20c0 96 60 161 178 161zM220 400c-38 0 -61 -21 -61 -59v-31c0 -51 11 -62 56 -62c46 0 67 23 67 61v25c0 24 -3 44 -9 57
c-12 5 -32 9 -53 9z" />
    <glyph glyph-name="h" unicode="h" horiz-adv-x="460" 
d="M170 683v-250c33 45 72 67 117 67c79 0 125 -55 125 -170v-330h-117v318c0 55 -18 73 -45 73s-58 -22 -80 -60v-331h-117v683h117z" />
    <glyph glyph-name="i" unicode="i" horiz-adv-x="222" 
d="M170 0h-117v488h117v-488zM111 706c45 0 70 -20 70 -59v-27c0 -37 -25 -59 -70 -59c-43 0 -69 22 -69 59v27c0 39 26 59 69 59z" />
    <glyph glyph-name="j" unicode="j" horiz-adv-x="222" 
d="M170 488v-509c0 -122 -47 -176 -161 -176c-31 0 -62 4 -78 6v101c12 -2 41 -4 62 -4c43 0 60 18 60 65v517h117zM111 706c45 0 70 -20 70 -59v-27c0 -37 -25 -59 -70 -59c-43 0 -69 22 -69 59v27c0 39 26 59 69 59z" />
    <glyph glyph-name="k" unicode="k" horiz-adv-x="443" 
d="M170 303l133 185h132l-161 -215l171 -273h-137l-138 228v-228h-117v683h117v-380z" />
    <glyph glyph-name="l" unicode="l" horiz-adv-x="222" 
d="M170 0h-117v683h117v-683z" />
    <glyph glyph-name="m" unicode="m" horiz-adv-x="700" 
d="M524 500c77 0 123 -54 123 -170v-330h-117v318c0 56 -16 73 -43 73c-25 0 -56 -22 -79 -59v-332h-117v318c0 56 -16 73 -43 73c-25 0 -56 -22 -78 -59v-332h-117v488h108v-67c35 54 78 79 124 79c55 0 94 -27 112 -84c35 57 79 84 127 84z" />
    <glyph glyph-name="n" unicode="n" horiz-adv-x="465" 
d="M287 500c79 0 125 -55 125 -170v-330h-117v318c0 55 -17 73 -45 73c-27 0 -58 -22 -80 -60v-331h-117v488h108v-67c35 54 78 79 126 79z" />
    <glyph glyph-name="o" unicode="o" horiz-adv-x="451" 
d="M225 500c125 0 183 -67 183 -185v-142c0 -118 -58 -185 -183 -185c-123 0 -182 66 -182 185v142c0 118 59 185 182 185zM226 398c-42 0 -66 -26 -66 -77v-154c0 -51 24 -78 66 -78c41 0 66 27 66 78v155c0 51 -25 76 -66 76z" />
    <glyph glyph-name="p" unicode="p" horiz-adv-x="454" 
d="M283 500c80 0 128 -52 128 -173v-166c0 -113 -55 -173 -142 -173c-32 0 -70 15 -99 32v-205h-117v673h108v-64c33 49 75 76 122 76zM250 394c-28 0 -57 -21 -80 -59v-215c23 -17 48 -26 67 -26c39 0 58 24 58 78v144c0 58 -18 78 -45 78z" />
    <glyph glyph-name="q" unicode="q" horiz-adv-x="455" 
d="M179 500c45 0 87 -27 114 -50v38h109v-673h-116v245c-35 -46 -75 -72 -119 -72c-78 0 -124 52 -124 167v174c0 111 50 171 136 171zM214 394c-34 0 -54 -21 -54 -78v-148c0 -56 17 -74 43 -74c28 0 58 23 83 66v199c-21 21 -50 35 -72 35z" />
    <glyph glyph-name="r" unicode="r" horiz-adv-x="324" 
d="M290 500c8 0 14 -1 20 -2v-125c-9 2 -20 2 -33 2c-44 0 -81 -20 -107 -65v-310h-117v488h108v-73c33 52 78 85 129 85z" />
    <glyph glyph-name="s" unicode="s" horiz-adv-x="379" 
d="M205 500c37 0 68 -4 114 -13l-2 -102c-42 9 -76 14 -103 14c-52 0 -69 -15 -69 -40v-6c0 -17 7 -25 29 -35l92 -41c60 -27 88 -69 88 -123v-20c0 -95 -51 -146 -177 -146c-38 0 -84 8 -138 20l6 106c47 -13 97 -22 131 -22c48 0 63 13 63 40v6c0 21 -7 33 -30 43l-87 38
c-64 27 -93 68 -93 122v13c2 96 53 146 176 146z" />
    <glyph glyph-name="t" unicode="t" horiz-adv-x="341" 
d="M190 488h121v-101h-121v-235c0 -44 17 -61 54 -61c24 0 61 5 81 10l3 -101c-19 -5 -62 -12 -94 -12c-112 0 -161 46 -161 169v230h-62v101h64l17 130h98v-130z" />
    <glyph glyph-name="u" unicode="u" horiz-adv-x="460" 
d="M407 0h-108v66c-36 -54 -78 -78 -124 -78c-74 0 -122 51 -122 170v330h117v-316c0 -55 17 -75 42 -75c26 0 55 21 79 59v332h116v-488z" />
    <glyph glyph-name="v" unicode="v" horiz-adv-x="441" 
d="M290 0h-140l-146 488h123l93 -401l94 401h123z" />
    <glyph glyph-name="w" unicode="w" horiz-adv-x="671" 
d="M549 0h-133l-81 375l-81 -375h-134l-109 488h123l61 -375l74 375h132l74 -375l61 375h123z" />
    <glyph glyph-name="x" unicode="x" horiz-adv-x="434" 
d="M286 253l152 -253h-134l-88 170l-85 -170h-134l150 251l-141 237h134l78 -153l78 153h131z" />
    <glyph glyph-name="y" unicode="y" horiz-adv-x="445" 
d="M233 -185h-114l59 185h-44l-130 488h127l82 -401l108 401h121z" />
    <glyph glyph-name="z" unicode="z" horiz-adv-x="395" 
d="M366 404l-196 -301h196v-103h-341v84l195 302h-190v102h336v-84z" />
    <glyph glyph-name="braceleft" unicode="{" horiz-adv-x="277" 
d="M293 773v-96c-73 0 -87 -15 -87 -78v-162c0 -61 -23 -98 -69 -110c45 -11 69 -48 69 -109v-162c0 -65 16 -78 87 -78v-96c-154 -2 -204 40 -204 195v143c0 42 -13 57 -48 57h-36v101h36c35 0 48 15 48 57v143c0 157 52 197 204 195z" />
    <glyph glyph-name="bar" unicode="|" horiz-adv-x="222" 
d="M170 -134h-117v922h117v-922z" />
    <glyph glyph-name="braceright" unicode="}" horiz-adv-x="277" 
d="M-15 677v96c153 2 204 -38 204 -195v-143c0 -42 13 -57 48 -57h36v-101h-36c-35 0 -48 -15 -48 -57v-143c0 -155 -50 -197 -204 -195v96c71 0 88 13 88 78v162c0 61 23 98 68 109c-46 12 -68 49 -68 110v162c0 63 -14 78 -88 78z" />
    <glyph glyph-name="asciitilde" unicode="~" horiz-adv-x="407" 
d="M132 362c65 0 85 -26 146 -26c41 0 109 28 109 28v-101s-51 -31 -111 -31c-66 0 -85 27 -147 27c-41 0 -109 -29 -109 -29v101s52 31 112 31z" />
    <glyph glyph-name="uni00A0" unicode="&#xa0;" horiz-adv-x="137" 
 />
    <glyph glyph-name="exclamdown" unicode="&#xa1;" horiz-adv-x="211" 
d="M105 375c-45 0 -70 21 -70 61v26c0 38 25 60 70 60c46 0 71 -22 71 -60v-26c0 -40 -25 -61 -71 -61zM42 -185l7 495h113l7 -495h-127z" />
    <glyph glyph-name="cent" unicode="&#xa2;" horiz-adv-x="374" 
d="M269 576v-79c21 -1 40 -4 70 -9l-2 -103c-36 6 -62 11 -95 11c-61 0 -85 -27 -85 -87v-130c0 -62 27 -86 85 -86c30 0 55 3 94 11l3 -104c-28 -5 -47 -8 -70 -10v-78h-107v84c-83 19 -122 80 -122 179v138c0 97 39 160 122 179v84h107z" />
    <glyph glyph-name="sterling" unicode="&#xa3;" horiz-adv-x="406" 
d="M250 613c36 0 76 -7 111 -16v-98c-27 7 -63 13 -87 13c-62 0 -82 -21 -82 -70v-61h86v-97h-86v-79c0 -48 -12 -79 -38 -101h248v-104h-363v81c26 31 37 60 37 104v99h-63v97h63v67c0 110 58 165 174 165z" />
    <glyph glyph-name="currency" unicode="&#xa4;" horiz-adv-x="482" 
d="M466 451l-60 -60c9 -22 13 -45 13 -74v-19c0 -32 -5 -56 -17 -80l64 -63l-78 -78l-61 63c-25 -12 -53 -18 -88 -18c-33 0 -61 5 -86 17l-60 -61l-77 77l61 61c-12 24 -18 49 -18 82v19c0 31 4 53 15 77l-58 57l77 77l54 -54c26 13 57 20 92 20c36 0 68 -8 94 -22l55 57z
M239 390c-46 0 -66 -30 -66 -72v-21c0 -43 19 -73 66 -73s66 30 66 73v21c0 42 -18 72 -66 72z" />
    <glyph glyph-name="yen" unicode="&#xa5;" horiz-adv-x="462" 
d="M320 276h62v-84h-90v-35h90v-84h-90v-73h-120v73h-91v84h91v35h-91v84h62l-160 325h133l117 -305l116 305h132z" />
    <glyph glyph-name="brokenbar" unicode="&#xa6;" horiz-adv-x="222" 
d="M170 392h-117v396h117v-396zM170 -133h-117v395h117v-395z" />
    <glyph glyph-name="section" unicode="&#xa7;" horiz-adv-x="419" 
d="M224 695c36 0 69 -4 113 -13l-2 -101c-41 10 -75 14 -104 14c-50 0 -66 -14 -66 -44v-26c0 -21 8 -34 32 -44l108 -48c73 -31 100 -71 100 -122v-32c0 -54 -31 -100 -90 -119c36 -17 59 -56 59 -100v-36c-1 -92 -53 -143 -184 -143c-45 0 -80 6 -125 16l3 103
c41 -9 79 -16 117 -16c53 0 71 13 71 43v24c0 26 -8 40 -32 50l-108 44c-71 29 -100 66 -100 125v27c0 60 36 108 92 123c-37 18 -60 58 -60 102v30c0 90 48 143 176 143zM246 348l-31 10c-55 -2 -81 -29 -81 -64v-20c0 -18 10 -30 43 -42l35 -12c53 2 77 27 77 62v19
c0 21 -14 38 -43 47z" />
    <glyph glyph-name="dieresis" unicode="&#xa8;" horiz-adv-x="382" 
d="M95 700c42 0 66 -19 66 -56v-26c0 -34 -24 -55 -66 -55c-40 0 -65 21 -65 55v26c0 37 25 56 65 56zM286 700c42 0 66 -19 66 -56v-26c0 -34 -24 -55 -66 -55c-40 0 -65 21 -65 55v26c0 37 25 56 65 56z" />
    <glyph glyph-name="copyright" unicode="&#xa9;" horiz-adv-x="620" 
d="M311 616c183 0 261 -86 261 -215v-200c0 -129 -78 -215 -261 -215s-262 86 -262 215v200c0 129 78 215 262 215zM310 531c-113 0 -171 -49 -171 -124v-211c0 -75 58 -125 171 -125s172 50 172 125v212c0 75 -59 123 -172 123zM324 474c27 0 54 -3 79 -7l-2 -86
c-18 2 -37 3 -62 3c-27 0 -44 -18 -44 -57v-44c0 -40 18 -60 44 -60c25 0 41 2 62 5l2 -87c-31 -5 -53 -8 -80 -8c-84 0 -130 46 -130 147v49c0 98 47 145 131 145z" />
    <glyph glyph-name="ordfeminine" unicode="&#xaa;" horiz-adv-x="451" 
d="M223 667c127 0 175 -45 175 -174v-267h-109v66c-35 -51 -79 -78 -124 -78c-72 0 -120 49 -120 137v19c0 75 53 130 152 130c22 0 57 -5 84 -10v21c0 45 -18 60 -68 60c-33 0 -91 -8 -132 -16v96c49 8 109 16 142 16zM224 424c-39 0 -61 -20 -61 -55v-12
c0 -33 17 -50 41 -50c25 0 53 15 78 56v56c-20 4 -43 5 -58 5zM398 0h-353v103h353v-103z" />
    <glyph glyph-name="guillemotleft" unicode="&#xab;" horiz-adv-x="511" 
d="M177 267l96 -176h-124l-103 176l103 175h125zM369 267l96 -176h-123l-104 176l104 175h124z" />
    <glyph glyph-name="logicalnot" unicode="&#xac;" horiz-adv-x="407" 
d="M390 104h-108v141h-265v101h373v-242z" />
    <glyph glyph-name="uni00AD" unicode="&#xad;" horiz-adv-x="324" 
d="M279 247h-233v96h233v-96z" />
    <glyph glyph-name="registered" unicode="&#xae;" horiz-adv-x="505" 
d="M253 694c135 0 191 -65 191 -181v-32c0 -115 -56 -182 -191 -182s-192 65 -192 182v32c0 115 55 181 192 181zM253 637c-91 0 -129 -39 -129 -111v-58c0 -72 37 -111 129 -111c91 0 128 38 128 111v58c0 74 -36 111 -128 111zM252 601c59 0 82 -23 82 -61v-9
c0 -22 -15 -43 -37 -53l46 -78h-50l-39 72h-22v-72h-45v200c30 1 49 1 65 1zM257 562l-25 -1v-50h26c21 0 30 8 30 21v6c0 17 -9 24 -31 24z" />
    <glyph glyph-name="macron" unicode="&#xaf;" horiz-adv-x="297" 
d="M267 592h-237v95h237v-95z" />
    <glyph glyph-name="degree" unicode="&#xb0;" horiz-adv-x="396" 
d="M199 695c112 0 168 -62 168 -175v-20c0 -114 -56 -176 -168 -176c-113 0 -170 62 -170 176v20c0 113 57 175 170 175zM198 598c-39 0 -61 -23 -61 -75v-26c0 -53 22 -75 61 -75c38 0 60 22 60 75v26c0 53 -21 75 -60 75z" />
    <glyph glyph-name="plusminus" unicode="&#xb1;" horiz-adv-x="394" 
d="M252 365h129v-102h-129v-120h-109v120h-130v102h130v141h109v-141zM380 0h-368v101h368v-101z" />
    <glyph glyph-name="twosuperior" unicode="&#xb2;" horiz-adv-x="400" 
d="M183 760c104 0 151 -43 151 -121v-15c0 -45 -16 -82 -62 -127l-71 -74h133v-92h-269v76l139 157c20 22 25 35 25 56v12c0 25 -16 38 -57 38c-24 0 -62 -5 -96 -15v90c40 9 82 15 107 15z" />
    <glyph glyph-name="threesuperior" unicode="&#xb3;" horiz-adv-x="400" 
d="M183 760c92 0 141 -44 141 -108v-11c0 -40 -21 -74 -65 -90c46 -14 74 -53 74 -98v-8c0 -71 -53 -122 -148 -122c-24 0 -68 3 -108 9v87c34 -5 75 -8 99 -8c36 0 50 14 50 41v10c0 30 -15 45 -54 45h-70v80h68c36 0 48 14 48 43v10c0 23 -13 34 -45 34
c-24 0 -63 -5 -96 -10v87c40 6 81 9 106 9z" />
    <glyph glyph-name="acute" unicode="&#xb4;" horiz-adv-x="261" 
d="M124 546h-94l81 148h120z" />
    <glyph glyph-name="mu" unicode="&#xb5;" horiz-adv-x="460" 
d="M407 0h-108v66c-26 -39 -58 -62 -89 -66c-14 -3 -30 -2 -43 2v-187h-114v673h117v-316c0 -55 17 -75 42 -75c26 0 55 21 79 59v332h116v-488z" />
    <glyph glyph-name="paragraph" unicode="&#xb6;" horiz-adv-x="561" 
d="M298 -185h-116v487h-34c-86 0 -134 45 -134 131v118c0 83 46 132 134 132h150v-868zM505 -185h-117v868h117v-868zM189 606h-35c-31 0 -45 -16 -45 -67v-79c0 -51 14 -67 45 -67h35v213z" />
    <glyph glyph-name="periodcentered" unicode="&#xb7;" horiz-adv-x="217" 
d="M108 336c46 0 71 -21 71 -61v-27c0 -38 -25 -60 -71 -60s-71 22 -71 60v27c0 40 25 61 71 61z" />
    <glyph glyph-name="cedilla" unicode="&#xb8;" horiz-adv-x="231" 
d="M134 -35h10c32 0 57 -26 57 -62v-17c0 -53 -34 -83 -113 -83c-17 0 -40 2 -58 5v68c14 -2 26 -4 36 -4c29 0 41 10 41 23v9c0 18 -11 23 -34 23h-28v20l30 94h84z" />
    <glyph glyph-name="onesuperior" unicode="&#xb9;" horiz-adv-x="399" 
d="M266 423h75v-92h-265v92h87v225h-2l-84 -34l-21 88l134 50h76v-329z" />
    <glyph glyph-name="ordmasculine" unicode="&#xba;" horiz-adv-x="471" 
d="M235 667c124 0 183 -68 183 -187v-82c0 -122 -62 -186 -183 -186c-120 0 -182 64 -182 186v82c0 119 59 187 182 187zM236 566c-42 0 -66 -26 -66 -77v-99c0 -51 24 -77 66 -77s66 26 66 77v99c0 52 -25 77 -66 77zM414 0h-356v103h356v-103z" />
    <glyph glyph-name="guillemotright" unicode="&#xbb;" horiz-adv-x="511" 
d="M274 267l-104 -176h-124l96 176l-96 175h124zM466 267l-104 -176h-124l97 176l-97 175h124z" />
    <glyph glyph-name="onequarter" unicode="&#xbc;" horiz-adv-x="1000" 
d="M251 273h75v-92h-265v92h87v225h-2l-84 -34l-21 88l134 50h76v-329zM397 0h-116l305 601h116zM737 167h87v29l4 90h95v-119h46v-88h-46v-79h-99v79h-169l-25 52l100 290h91z" />
    <glyph glyph-name="onehalf" unicode="&#xbd;" horiz-adv-x="1000" 
d="M261 273h75v-92h-265v92h87v225h-2l-84 -34l-21 88l134 50h76v-329zM409 0h-116l305 601h116zM798 429c104 0 151 -43 151 -121v-15c0 -45 -16 -82 -62 -127l-71 -74h133v-92h-269v76l139 157c20 22 25 35 25 56v12c0 25 -16 38 -57 38c-24 0 -62 -5 -96 -15v90
c40 9 82 15 107 15z" />
    <glyph glyph-name="threequarters" unicode="&#xbe;" horiz-adv-x="1000" 
d="M153 610c92 0 141 -44 141 -108v-11c0 -40 -21 -74 -65 -90c46 -14 74 -53 74 -98v-8c0 -71 -53 -122 -148 -122c-24 0 -68 3 -108 9v87c34 -5 75 -8 99 -8c36 0 50 14 50 41v10c0 30 -15 45 -54 45h-70v80h68c36 0 48 14 48 43v10c0 23 -13 34 -45 34
c-24 0 -63 -5 -96 -10v87c40 6 81 9 106 9zM373 0h-116l305 601h116zM720 167h87v29l4 90h95v-119h46v-88h-46v-79h-99v79h-169l-25 52l100 290h91z" />
    <glyph glyph-name="questiondown" unicode="&#xbf;" horiz-adv-x="385" 
d="M229 363c-46 0 -71 21 -71 61v26c0 38 25 60 71 60c45 0 70 -22 70 -60v-26c0 -40 -25 -61 -70 -61zM226 -197c-135 0 -188 51 -188 148v19c0 59 21 108 79 169l33 36c19 21 24 32 24 66v53h113v-43c0 -67 -5 -83 -41 -125l-54 -63c-31 -36 -37 -53 -37 -90v-15
c0 -38 19 -56 84 -56c33 0 94 11 129 19v-101c-50 -10 -108 -17 -142 -17z" />
    <glyph glyph-name="Agrave" unicode="&#xc0;" horiz-adv-x="536" 
d="M533 0h-128l-35 137h-209l-35 -137h-123l194 655h142zM185 239h161l-80 316zM321 708h-96l-101 136h122z" />
    <glyph glyph-name="Aacute" unicode="&#xc1;" horiz-adv-x="536" 
d="M533 0h-128l-35 137h-209l-35 -137h-123l194 655h142zM185 239h161l-80 316zM299 708h-95l75 136h122z" />
    <glyph glyph-name="Acircumflex" unicode="&#xc2;" horiz-adv-x="536" 
d="M533 0h-128l-35 137h-209l-35 -137h-123l194 655h142zM185 239h161l-80 316zM413 801v-88l-145 53l-146 -53v88l146 66z" />
    <glyph glyph-name="Atilde" unicode="&#xc3;" horiz-adv-x="536" 
d="M533 0h-128l-35 137h-209l-35 -137h-123l194 655h142zM185 239h161l-80 316zM413 835v-87s-37 -34 -85 -34c-44 0 -82 28 -122 28c-35 0 -84 -28 -84 -28v87s37 34 86 34c54 0 84 -28 122 -28c34 0 83 28 83 28z" />
    <glyph glyph-name="Adieresis" unicode="&#xc4;" horiz-adv-x="536" 
d="M533 0h-128l-35 137h-209l-35 -137h-123l194 655h142zM185 239h161l-80 316zM172 847c42 0 66 -20 66 -57v-26c0 -35 -24 -56 -66 -56c-41 0 -66 21 -66 56v26c0 37 25 57 66 57zM362 847c43 0 66 -20 66 -57v-26c0 -35 -23 -56 -66 -56c-40 0 -66 21 -66 56v26
c0 37 26 57 66 57z" />
    <glyph glyph-name="Aring" unicode="&#xc5;" horiz-adv-x="536" 
d="M268 821c78 0 126 -37 126 -110c0 -43 -16 -74 -45 -91l184 -620h-128l-35 137h-209l-35 -137h-123l183 621c-28 18 -43 48 -43 90c0 73 47 110 125 110zM268 751c-27 0 -38 -16 -38 -39s11 -39 38 -39c28 0 39 16 39 39s-11 39 -39 39zM185 239h161l-80 319z" />
    <glyph glyph-name="AE" unicode="&#xc6;" horiz-adv-x="762" 
d="M716 545h-245v-158h225v-109h-225v-168h245v-110h-365v143h-165l-56 -143h-127l271 655h442v-110zM227 252h125v311z" />
    <glyph glyph-name="Ccedilla" unicode="&#xc7;" horiz-adv-x="460" 
d="M272 667c44 0 92 -8 150 -17l-2 -107c-39 7 -90 16 -136 16c-85 0 -113 -27 -113 -108v-246c0 -80 29 -107 113 -107c46 0 97 10 136 18l2 -110c-43 -7 -87 -15 -128 -17l-7 -24h10c31 0 57 -26 57 -62v-17c0 -53 -34 -83 -114 -83c-16 0 -40 2 -58 5v68
c14 -2 26 -4 36 -4c29 0 41 10 41 23v9c0 18 -11 23 -34 23h-28v20l15 45c-118 16 -161 84 -161 205v261c0 141 59 209 221 209z" />
    <glyph glyph-name="Egrave" unicode="&#xc8;" horiz-adv-x="467" 
d="M421 545h-245v-158h225v-109h-225v-168h245v-110h-365v655h365v-110zM292 708h-96l-101 136h122z" />
    <glyph glyph-name="Eacute" unicode="&#xc9;" horiz-adv-x="467" 
d="M421 545h-245v-158h225v-109h-225v-168h245v-110h-365v655h365v-110zM270 708h-95l75 136h122z" />
    <glyph glyph-name="Ecircumflex" unicode="&#xca;" horiz-adv-x="467" 
d="M421 545h-245v-158h225v-109h-225v-168h245v-110h-365v655h365v-110zM384 801v-88l-145 53l-146 -53v88l146 66z" />
    <glyph glyph-name="Edieresis" unicode="&#xcb;" horiz-adv-x="467" 
d="M421 545h-245v-158h225v-109h-225v-168h245v-110h-365v655h365v-110zM143 847c42 0 66 -20 66 -57v-26c0 -35 -24 -56 -66 -56c-41 0 -66 21 -66 56v26c0 37 25 57 66 57zM333 847c43 0 66 -20 66 -57v-26c0 -35 -23 -56 -66 -56c-40 0 -66 21 -66 56v26
c0 37 26 57 66 57z" />
    <glyph glyph-name="Igrave" unicode="&#xcc;" horiz-adv-x="231" 
d="M176 0h-120v655h120v-655zM169 708h-96l-101 136h122z" />
    <glyph glyph-name="Iacute" unicode="&#xcd;" horiz-adv-x="231" 
d="M176 0h-120v655h120v-655zM147 708h-95l75 136h122z" />
    <glyph glyph-name="Icircumflex" unicode="&#xce;" horiz-adv-x="231" 
d="M176 0h-120v655h120v-655zM261 801v-88l-145 53l-146 -53v88l146 66z" />
    <glyph glyph-name="Idieresis" unicode="&#xcf;" horiz-adv-x="231" 
d="M176 0h-120v655h120v-655zM20 847c42 0 66 -20 66 -57v-26c0 -35 -24 -56 -66 -56c-41 0 -66 21 -66 56v26c0 37 25 57 66 57zM210 847c43 0 66 -20 66 -57v-26c0 -35 -23 -56 -66 -56c-40 0 -66 21 -66 56v26c0 37 26 57 66 57z" />
    <glyph glyph-name="Eth" unicode="&#xd0;" horiz-adv-x="564" 
d="M264 667c165 0 254 -96 254 -266v-156c0 -162 -84 -257 -263 -257c-63 0 -125 2 -183 6v297h-68v97h68v275c51 2 118 4 192 4zM259 562c-23 0 -45 0 -68 -1v-173h116v-97h-116v-193c28 -3 50 -4 68 -4c86 0 139 49 139 145v168c0 106 -51 155 -139 155z" />
    <glyph glyph-name="Ntilde" unicode="&#xd1;" horiz-adv-x="559" 
d="M172 463v-463h-116v655h163l169 -463v463h115v-655h-159zM427 835v-87s-37 -34 -85 -34c-44 0 -82 28 -122 28c-35 0 -84 -28 -84 -28v87s37 34 86 34c54 0 84 -28 122 -28c34 0 83 28 83 28z" />
    <glyph glyph-name="Ograve" unicode="&#xd2;" horiz-adv-x="553" 
d="M276 667c157 0 226 -81 226 -221v-237c0 -138 -67 -221 -226 -221c-158 0 -225 83 -225 221v237c0 140 68 221 225 221zM276 559c-71 0 -106 -36 -106 -104v-254c0 -69 36 -105 106 -105s106 36 106 105v253c0 68 -36 105 -106 105zM329 708h-96l-101 136h122z" />
    <glyph glyph-name="Oacute" unicode="&#xd3;" horiz-adv-x="553" 
d="M276 667c157 0 226 -81 226 -221v-237c0 -138 -67 -221 -226 -221c-158 0 -225 83 -225 221v237c0 140 68 221 225 221zM276 559c-71 0 -106 -36 -106 -104v-254c0 -69 36 -105 106 -105s106 36 106 105v253c0 68 -36 105 -106 105zM307 708h-95l75 136h122z" />
    <glyph glyph-name="Ocircumflex" unicode="&#xd4;" horiz-adv-x="553" 
d="M276 667c157 0 226 -81 226 -221v-237c0 -138 -67 -221 -226 -221c-158 0 -225 83 -225 221v237c0 140 68 221 225 221zM276 559c-71 0 -106 -36 -106 -104v-254c0 -69 36 -105 106 -105s106 36 106 105v253c0 68 -36 105 -106 105zM421 801v-88l-145 53l-146 -53v88
l146 66z" />
    <glyph glyph-name="Otilde" unicode="&#xd5;" horiz-adv-x="553" 
d="M276 667c157 0 226 -81 226 -221v-237c0 -138 -67 -221 -226 -221c-158 0 -225 83 -225 221v237c0 140 68 221 225 221zM276 559c-71 0 -106 -36 -106 -104v-254c0 -69 36 -105 106 -105s106 36 106 105v253c0 68 -36 105 -106 105zM421 835v-87s-37 -34 -85 -34
c-44 0 -82 28 -122 28c-35 0 -84 -28 -84 -28v87s37 34 86 34c54 0 84 -28 122 -28c34 0 83 28 83 28z" />
    <glyph glyph-name="Odieresis" unicode="&#xd6;" horiz-adv-x="553" 
d="M276 667c157 0 226 -81 226 -221v-237c0 -138 -67 -221 -226 -221c-158 0 -225 83 -225 221v237c0 140 68 221 225 221zM276 559c-71 0 -106 -36 -106 -104v-254c0 -69 36 -105 106 -105s106 36 106 105v253c0 68 -36 105 -106 105zM180 847c42 0 66 -20 66 -57v-26
c0 -35 -24 -56 -66 -56c-41 0 -66 21 -66 56v26c0 37 25 57 66 57zM370 847c43 0 66 -20 66 -57v-26c0 -35 -23 -56 -66 -56c-40 0 -66 21 -66 56v26c0 37 26 57 66 57z" />
    <glyph glyph-name="multiply" unicode="&#xd7;" horiz-adv-x="407" 
d="M375 396l-99 -99l101 -100l-77 -74l-100 99l-97 -98l-72 72l97 98l-99 100l74 77l101 -102l98 99z" />
    <glyph glyph-name="Oslash" unicode="&#xd8;" horiz-adv-x="553" 
d="M541 705l-70 -127c21 -35 31 -79 31 -132v-237c0 -138 -68 -221 -226 -221c-48 0 -87 8 -118 22l-35 -60h-114l72 127c-21 35 -30 80 -30 132v237c0 140 68 221 225 221c48 0 87 -8 118 -23l34 61h113zM276 559c-71 0 -106 -36 -106 -104v-208c0 -10 1 -20 2 -29l176 320
c-17 14 -42 21 -72 21zM381 436l-177 -320c17 -14 42 -20 72 -20c70 0 106 36 106 105v208c0 9 0 19 -1 27z" />
    <glyph glyph-name="Ugrave" unicode="&#xd9;" horiz-adv-x="553" 
d="M498 655v-444c0 -141 -70 -223 -221 -223c-149 0 -221 79 -221 222v445h120v-454c0 -69 36 -105 101 -105c64 0 101 36 101 105v454h120zM330 708h-96l-101 136h122z" />
    <glyph glyph-name="Uacute" unicode="&#xda;" horiz-adv-x="553" 
d="M498 655v-444c0 -141 -70 -223 -221 -223c-149 0 -221 79 -221 222v445h120v-454c0 -69 36 -105 101 -105c64 0 101 36 101 105v454h120zM308 708h-95l75 136h122z" />
    <glyph glyph-name="Ucircumflex" unicode="&#xdb;" horiz-adv-x="553" 
d="M498 655v-444c0 -141 -70 -223 -221 -223c-149 0 -221 79 -221 222v445h120v-454c0 -69 36 -105 101 -105c64 0 101 36 101 105v454h120zM422 801v-88l-145 53l-146 -53v88l146 66z" />
    <glyph glyph-name="Udieresis" unicode="&#xdc;" horiz-adv-x="553" 
d="M498 655v-444c0 -141 -70 -223 -221 -223c-149 0 -221 79 -221 222v445h120v-454c0 -69 36 -105 101 -105c64 0 101 36 101 105v454h120zM181 847c42 0 66 -20 66 -57v-26c0 -35 -24 -56 -66 -56c-41 0 -66 21 -66 56v26c0 37 25 57 66 57zM371 847c43 0 66 -20 66 -57
v-26c0 -35 -23 -56 -66 -56c-40 0 -66 21 -66 56v26c0 37 26 57 66 57z" />
    <glyph glyph-name="Yacute" unicode="&#xdd;" horiz-adv-x="513" 
d="M316 226v-226h-120v226l-189 429h135l115 -313l116 313h132zM288 708h-95l75 136h122z" />
    <glyph glyph-name="Thorn" unicode="&#xde;" horiz-adv-x="493" 
d="M176 655v-113c26 2 46 3 62 3c163 0 239 -72 239 -191v-22c0 -126 -75 -203 -226 -203c-21 0 -44 2 -75 7v-136h-120v655h120zM238 442c-29 0 -42 -2 -63 -3v-198c31 -4 50 -6 67 -6c77 0 115 35 115 101v15c0 59 -36 91 -119 91z" />
    <glyph glyph-name="germandbls" unicode="&#xdf;" horiz-adv-x="481" 
d="M230 695c102 0 169 -58 169 -137v-27c0 -83 -70 -100 -70 -149v-12c0 -20 5 -30 22 -41l33 -19c54 -29 78 -67 78 -132v-34c0 -111 -42 -156 -139 -156c-26 0 -60 5 -105 14l2 105c31 -8 61 -13 82 -13c26 0 41 16 41 51v24c0 26 -8 39 -31 52l-31 18
c-49 28 -64 56 -64 115v16c0 82 66 80 66 153v22c0 31 -21 50 -58 50c-40 0 -55 -17 -55 -72v-523h-117v508c0 132 52 187 177 187z" />
    <glyph glyph-name="agrave" unicode="&#xe0;" horiz-adv-x="432" 
d="M211 500c125 0 173 -44 173 -174v-326h-109v66c-34 -51 -76 -78 -120 -78c-75 0 -124 55 -124 154v26c0 87 57 144 153 144c21 0 56 -5 83 -10v38c0 42 -19 58 -68 58c-33 0 -91 -9 -132 -17v102c49 9 110 17 144 17zM211 226c-42 0 -63 -23 -63 -65v-8
c0 -40 18 -60 43 -60s53 21 77 64v64c-20 3 -42 5 -57 5zM269 546h-94l-107 148h120z" />
    <glyph glyph-name="aacute" unicode="&#xe1;" horiz-adv-x="432" 
d="M211 500c125 0 173 -44 173 -174v-326h-109v66c-34 -51 -76 -78 -120 -78c-75 0 -124 55 -124 154v26c0 87 57 144 153 144c21 0 56 -5 83 -10v38c0 42 -19 58 -68 58c-33 0 -91 -9 -132 -17v102c49 9 110 17 144 17zM211 226c-42 0 -63 -23 -63 -65v-8
c0 -40 18 -60 43 -60s53 21 77 64v64c-20 3 -42 5 -57 5zM254 546h-94l81 148h120z" />
    <glyph glyph-name="acircumflex" unicode="&#xe2;" horiz-adv-x="432" 
d="M211 500c125 0 173 -44 173 -174v-326h-109v66c-34 -51 -76 -78 -120 -78c-75 0 -124 55 -124 154v26c0 87 57 144 153 144c21 0 56 -5 83 -10v38c0 42 -19 58 -68 58c-33 0 -91 -9 -132 -17v102c49 9 110 17 144 17zM211 226c-42 0 -63 -23 -63 -65v-8
c0 -40 18 -60 43 -60s53 21 77 64v64c-20 3 -42 5 -57 5zM351 630v-89l-135 68l-136 -68v89l136 79z" />
    <glyph glyph-name="atilde" unicode="&#xe3;" horiz-adv-x="432" 
d="M211 500c125 0 173 -44 173 -174v-326h-109v66c-34 -51 -76 -78 -120 -78c-75 0 -124 55 -124 154v26c0 87 57 144 153 144c21 0 56 -5 83 -10v38c0 42 -19 58 -68 58c-33 0 -91 -9 -132 -17v102c49 9 110 17 144 17zM211 226c-42 0 -63 -23 -63 -65v-8
c0 -40 18 -60 43 -60s53 21 77 64v64c-20 3 -42 5 -57 5zM351 700v-88s-35 -34 -83 -34c-42 0 -68 28 -107 28c-34 0 -81 -28 -81 -28v88s35 34 83 34c53 0 71 -29 107 -29c34 0 81 29 81 29z" />
    <glyph glyph-name="adieresis" unicode="&#xe4;" horiz-adv-x="432" 
d="M211 500c125 0 173 -44 173 -174v-326h-109v66c-34 -51 -76 -78 -120 -78c-75 0 -124 55 -124 154v26c0 87 57 144 153 144c21 0 56 -5 83 -10v38c0 42 -19 58 -68 58c-33 0 -91 -9 -132 -17v102c49 9 110 17 144 17zM211 226c-42 0 -63 -23 -63 -65v-8
c0 -40 18 -60 43 -60s53 21 77 64v64c-20 3 -42 5 -57 5zM119 700c42 0 66 -19 66 -56v-26c0 -34 -24 -55 -66 -55c-40 0 -65 21 -65 55v26c0 37 25 56 65 56zM310 700c42 0 66 -19 66 -56v-26c0 -34 -24 -55 -66 -55c-40 0 -65 21 -65 55v26c0 37 25 56 65 56z" />
    <glyph glyph-name="aring" unicode="&#xe5;" horiz-adv-x="432" 
d="M211 500c125 0 173 -44 173 -174v-326h-109v66c-34 -51 -76 -78 -120 -78c-75 0 -124 55 -124 154v26c0 87 57 144 153 144c21 0 56 -5 83 -10v38c0 42 -19 58 -68 58c-33 0 -91 -9 -132 -17v102c49 9 110 17 144 17zM211 226c-42 0 -63 -23 -63 -65v-8
c0 -40 18 -60 43 -60s53 21 77 64v64c-20 3 -42 5 -57 5zM216 745c77 0 124 -38 124 -108s-46 -109 -124 -109c-76 0 -123 39 -123 109s46 108 123 108zM216 677c-27 0 -39 -15 -39 -39c0 -23 12 -39 39 -39s39 16 39 39c0 24 -12 39 -39 39z" />
    <glyph glyph-name="ae" unicode="&#xe6;" horiz-adv-x="662" 
d="M459 500c106 0 169 -61 169 -184v-110h-241v-39c0 -53 25 -74 85 -74c42 0 100 9 141 17l-1 -103c-48 -9 -112 -19 -150 -19c-96 0 -144 34 -166 98c-36 -64 -85 -98 -141 -98c-75 0 -124 55 -124 154v26c0 86 56 145 153 145c21 0 59 -5 86 -10v39c0 40 -19 57 -71 57
c-33 0 -91 -8 -132 -16v100c49 9 109 17 142 17c63 0 106 -19 128 -54c24 34 69 54 122 54zM449 398c-38 0 -61 -22 -62 -65v-37h124v31c0 48 -23 71 -62 71zM210 224c-40 0 -61 -23 -61 -63v-8c0 -39 17 -59 41 -59c26 0 56 22 80 65v60c-21 4 -46 5 -60 5z" />
    <glyph glyph-name="ccedilla" unicode="&#xe7;" horiz-adv-x="375" 
d="M231 500c34 0 60 -3 111 -12l-2 -103c-36 6 -62 11 -95 11c-61 0 -85 -27 -85 -87v-130c0 -62 27 -86 85 -86c30 0 55 3 94 11l3 -104c-44 -8 -68 -11 -99 -12l-8 -23h10c32 0 58 -26 58 -62v-17c0 -53 -34 -83 -114 -83c-17 0 -40 2 -58 5v68c14 -2 26 -4 36 -4
c29 0 41 10 41 23v9c0 18 -11 23 -34 23h-28v20l16 49c-81 20 -119 81 -119 179v138c0 121 60 187 188 187z" />
    <glyph glyph-name="egrave" unicode="&#xe8;" horiz-adv-x="432" 
d="M220 500c115 0 179 -64 179 -184v-112h-240v-37c0 -53 23 -74 85 -74c41 0 94 8 134 16l3 -102c-49 -10 -110 -19 -147 -19c-138 0 -191 57 -191 191v137c0 117 57 184 177 184zM220 400c-37 0 -61 -24 -61 -69v-40h124v37c0 49 -24 72 -63 72zM271 546h-94l-107 148h120
z" />
    <glyph glyph-name="eacute" unicode="&#xe9;" horiz-adv-x="432" 
d="M220 500c115 0 179 -64 179 -184v-112h-240v-37c0 -53 23 -74 85 -74c41 0 94 8 134 16l3 -102c-49 -10 -110 -19 -147 -19c-138 0 -191 57 -191 191v137c0 117 57 184 177 184zM220 400c-37 0 -61 -24 -61 -69v-40h124v37c0 49 -24 72 -63 72zM256 546h-94l81 148h120z
" />
    <glyph glyph-name="ecircumflex" unicode="&#xea;" horiz-adv-x="432" 
d="M220 500c115 0 179 -64 179 -184v-112h-240v-37c0 -53 23 -74 85 -74c41 0 94 8 134 16l3 -102c-49 -10 -110 -19 -147 -19c-138 0 -191 57 -191 191v137c0 117 57 184 177 184zM220 400c-37 0 -61 -24 -61 -69v-40h124v37c0 49 -24 72 -63 72zM353 630v-89l-135 68
l-136 -68v89l136 79z" />
    <glyph glyph-name="edieresis" unicode="&#xeb;" horiz-adv-x="432" 
d="M220 500c115 0 179 -64 179 -184v-112h-240v-37c0 -53 23 -74 85 -74c41 0 94 8 134 16l3 -102c-49 -10 -110 -19 -147 -19c-138 0 -191 57 -191 191v137c0 117 57 184 177 184zM220 400c-37 0 -61 -24 -61 -69v-40h124v37c0 49 -24 72 -63 72zM121 700
c42 0 66 -19 66 -56v-26c0 -34 -24 -55 -66 -55c-40 0 -65 21 -65 55v26c0 37 25 56 65 56zM312 700c42 0 66 -19 66 -56v-26c0 -34 -24 -55 -66 -55c-40 0 -65 21 -65 55v26c0 37 25 56 65 56z" />
    <glyph glyph-name="igrave" unicode="&#xec;" horiz-adv-x="222" 
d="M170 0h-117v488h117v-488zM165 546h-94l-107 148h120z" />
    <glyph glyph-name="iacute" unicode="&#xed;" horiz-adv-x="222" 
d="M170 0h-117v488h117v-488zM150 546h-94l81 148h120z" />
    <glyph glyph-name="icircumflex" unicode="&#xee;" horiz-adv-x="222" 
d="M170 0h-117v488h117v-488zM247 630v-89l-135 68l-136 -68v89l136 79z" />
    <glyph glyph-name="idieresis" unicode="&#xef;" horiz-adv-x="222" 
d="M170 0h-117v488h117v-488zM15 700c42 0 66 -19 66 -56v-26c0 -34 -24 -55 -66 -55c-40 0 -65 21 -65 55v26c0 37 25 56 65 56zM206 700c42 0 66 -19 66 -56v-26c0 -34 -24 -55 -66 -55c-40 0 -65 21 -65 55v26c0 37 25 56 65 56z" />
    <glyph glyph-name="eth" unicode="&#xf0;" horiz-adv-x="461" 
d="M90 603v92c104 0 185 -31 239 -92l85 25v-75l-41 -13c26 -53 39 -121 39 -202v-163c0 -117 -59 -187 -180 -187c-129 0 -179 54 -179 175v103c0 113 51 173 130 173c38 0 83 -22 114 -68v21c0 47 -10 86 -27 118l-127 -38v73l70 21c-33 24 -76 37 -123 37zM215 333
c-28 0 -45 -20 -45 -78v-101c0 -44 22 -65 63 -65c43 0 63 23 63 65v118c-25 41 -54 61 -81 61z" />
    <glyph glyph-name="ntilde" unicode="&#xf1;" horiz-adv-x="465" 
d="M287 500c79 0 125 -55 125 -170v-330h-117v318c0 55 -17 73 -45 73c-27 0 -58 -22 -80 -60v-331h-117v488h108v-67c35 54 78 79 126 79zM369 700v-88s-35 -34 -83 -34c-42 0 -68 28 -107 28c-34 0 -81 -28 -81 -28v88s35 34 83 34c53 0 71 -29 107 -29c34 0 81 29 81 29z
" />
    <glyph glyph-name="ograve" unicode="&#xf2;" horiz-adv-x="451" 
d="M225 500c125 0 183 -67 183 -185v-142c0 -118 -58 -185 -183 -185c-123 0 -182 66 -182 185v142c0 118 59 185 182 185zM226 398c-42 0 -66 -26 -66 -77v-154c0 -51 24 -78 66 -78c41 0 66 27 66 78v155c0 51 -25 76 -66 76zM279 546h-94l-107 148h120z" />
    <glyph glyph-name="oacute" unicode="&#xf3;" horiz-adv-x="451" 
d="M225 500c125 0 183 -67 183 -185v-142c0 -118 -58 -185 -183 -185c-123 0 -182 66 -182 185v142c0 118 59 185 182 185zM226 398c-42 0 -66 -26 -66 -77v-154c0 -51 24 -78 66 -78c41 0 66 27 66 78v155c0 51 -25 76 -66 76zM264 546h-94l81 148h120z" />
    <glyph glyph-name="ocircumflex" unicode="&#xf4;" horiz-adv-x="451" 
d="M225 500c125 0 183 -67 183 -185v-142c0 -118 -58 -185 -183 -185c-123 0 -182 66 -182 185v142c0 118 59 185 182 185zM226 398c-42 0 -66 -26 -66 -77v-154c0 -51 24 -78 66 -78c41 0 66 27 66 78v155c0 51 -25 76 -66 76zM361 630v-89l-135 68l-136 -68v89l136 79z
" />
    <glyph glyph-name="otilde" unicode="&#xf5;" horiz-adv-x="451" 
d="M225 500c125 0 183 -67 183 -185v-142c0 -118 -58 -185 -183 -185c-123 0 -182 66 -182 185v142c0 118 59 185 182 185zM226 398c-42 0 -66 -26 -66 -77v-154c0 -51 24 -78 66 -78c41 0 66 27 66 78v155c0 51 -25 76 -66 76zM361 700v-88s-35 -34 -83 -34
c-42 0 -68 28 -107 28c-34 0 -81 -28 -81 -28v88s35 34 83 34c53 0 71 -29 107 -29c34 0 81 29 81 29z" />
    <glyph glyph-name="odieresis" unicode="&#xf6;" horiz-adv-x="451" 
d="M225 500c125 0 183 -67 183 -185v-142c0 -118 -58 -185 -183 -185c-123 0 -182 66 -182 185v142c0 118 59 185 182 185zM226 398c-42 0 -66 -26 -66 -77v-154c0 -51 24 -78 66 -78c41 0 66 27 66 78v155c0 51 -25 76 -66 76zM129 700c42 0 66 -19 66 -56v-26
c0 -34 -24 -55 -66 -55c-40 0 -65 21 -65 55v26c0 37 25 56 65 56zM320 700c42 0 66 -19 66 -56v-26c0 -34 -24 -55 -66 -55c-40 0 -65 21 -65 55v26c0 37 25 56 65 56z" />
    <glyph glyph-name="divide" unicode="&#xf7;" horiz-adv-x="407" 
d="M203 515c44 0 65 -23 65 -59v-16c0 -35 -21 -58 -65 -58c-42 0 -63 23 -63 58v16c0 36 21 59 63 59zM386 245h-366v101h366v-101zM203 209c44 0 65 -23 65 -59v-16c0 -35 -21 -58 -65 -58c-42 0 -63 23 -63 58v16c0 36 21 59 63 59z" />
    <glyph glyph-name="oslash" unicode="&#xf8;" horiz-adv-x="451" 
d="M477 538l-86 -129c12 -27 17 -58 17 -94v-142c0 -118 -58 -185 -182 -185c-38 0 -69 7 -93 19l-39 -58h-119l85 128c-11 27 -17 59 -17 96v142c0 118 59 185 183 185c37 0 69 -7 94 -20l38 58h119zM226 398c-42 0 -66 -26 -66 -77v-113v-10l115 180c-11 13 -28 20 -49 20
zM291 286l-115 -178c11 -13 28 -19 49 -19c42 0 66 27 66 78v109v10z" />
    <glyph glyph-name="ugrave" unicode="&#xf9;" horiz-adv-x="460" 
d="M407 0h-108v66c-36 -54 -78 -78 -124 -78c-74 0 -122 51 -122 170v330h117v-316c0 -55 17 -75 42 -75c26 0 55 21 79 59v332h116v-488zM283 546h-94l-107 148h120z" />
    <glyph glyph-name="uacute" unicode="&#xfa;" horiz-adv-x="460" 
d="M407 0h-108v66c-36 -54 -78 -78 -124 -78c-74 0 -122 51 -122 170v330h117v-316c0 -55 17 -75 42 -75c26 0 55 21 79 59v332h116v-488zM268 546h-94l81 148h120z" />
    <glyph glyph-name="ucircumflex" unicode="&#xfb;" horiz-adv-x="460" 
d="M407 0h-108v66c-36 -54 -78 -78 -124 -78c-74 0 -122 51 -122 170v330h117v-316c0 -55 17 -75 42 -75c26 0 55 21 79 59v332h116v-488zM365 630v-89l-135 68l-136 -68v89l136 79z" />
    <glyph glyph-name="udieresis" unicode="&#xfc;" horiz-adv-x="460" 
d="M407 0h-108v66c-36 -54 -78 -78 -124 -78c-74 0 -122 51 -122 170v330h117v-316c0 -55 17 -75 42 -75c26 0 55 21 79 59v332h116v-488zM133 700c42 0 66 -19 66 -56v-26c0 -34 -24 -55 -66 -55c-40 0 -65 21 -65 55v26c0 37 25 56 65 56zM324 700c42 0 66 -19 66 -56v-26
c0 -34 -24 -55 -66 -55c-40 0 -65 21 -65 55v26c0 37 25 56 65 56z" />
    <glyph glyph-name="yacute" unicode="&#xfd;" horiz-adv-x="445" 
d="M233 -185h-114l59 185h-44l-130 488h127l82 -401l108 401h121zM261 546h-94l81 148h120z" />
    <glyph glyph-name="thorn" unicode="&#xfe;" horiz-adv-x="454" 
d="M170 683v-248c31 42 71 65 113 65c80 0 128 -52 128 -173v-166c0 -113 -55 -173 -142 -173c-32 0 -70 15 -99 32v-205h-117v868h117zM250 394c-28 0 -57 -21 -80 -59v-215c23 -17 48 -26 67 -26c39 0 58 24 58 78v144c0 58 -18 78 -45 78z" />
    <glyph glyph-name="ydieresis" unicode="&#xff;" horiz-adv-x="445" 
d="M233 -185h-114l59 185h-44l-130 488h127l82 -401l108 401h121zM126 700c42 0 66 -19 66 -56v-26c0 -34 -24 -55 -66 -55c-40 0 -65 21 -65 55v26c0 37 25 56 65 56zM317 700c42 0 66 -19 66 -56v-26c0 -34 -24 -55 -66 -55c-40 0 -65 21 -65 55v26c0 37 25 56 65 56z" />
    <glyph glyph-name="Amacron" unicode="&#x100;" horiz-adv-x="536" 
d="M533 0h-128l-35 137h-209l-35 -137h-123l194 655h142zM185 239h161l-80 316zM396 711h-257v95h257v-95z" />
    <glyph glyph-name="amacron" unicode="&#x101;" horiz-adv-x="432" 
d="M211 500c125 0 173 -44 173 -174v-326h-109v66c-34 -51 -76 -78 -120 -78c-75 0 -124 55 -124 154v26c0 87 57 144 153 144c21 0 56 -5 83 -10v38c0 42 -19 58 -68 58c-33 0 -91 -9 -132 -17v102c49 9 110 17 144 17zM211 226c-42 0 -63 -23 -63 -65v-8
c0 -40 18 -60 43 -60s53 21 77 64v64c-20 3 -42 5 -57 5zM334 592h-237v95h237v-95z" />
    <glyph glyph-name="Abreve" unicode="&#x102;" horiz-adv-x="536" 
d="M533 0h-128l-35 137h-209l-35 -137h-123l194 655h142zM185 239h161l-80 316zM413 858v-99s-63 -55 -145 -55c-84 0 -146 55 -146 55v99s68 -63 146 -63c76 0 145 63 145 63z" />
    <glyph glyph-name="abreve" unicode="&#x103;" horiz-adv-x="432" 
d="M211 500c125 0 173 -44 173 -174v-326h-109v66c-34 -51 -76 -78 -120 -78c-75 0 -124 55 -124 154v26c0 87 57 144 153 144c21 0 56 -5 83 -10v38c0 42 -19 58 -68 58c-33 0 -91 -9 -132 -17v102c49 9 110 17 144 17zM211 226c-42 0 -63 -23 -63 -65v-8
c0 -40 18 -60 43 -60s53 21 77 64v64c-20 3 -42 5 -57 5zM348 708v-98s-42 -57 -132 -57c-89 0 -132 57 -132 57v98s51 -65 132 -65s132 65 132 65z" />
    <glyph glyph-name="Aogonek" unicode="&#x104;" horiz-adv-x="536" 
d="M533 0h-47c-35 -16 -50 -43 -50 -67v-7c0 -22 11 -31 37 -31c9 0 20 1 37 4v-88c-30 -7 -47 -8 -62 -8c-73 0 -109 35 -109 85v11c0 39 25 77 66 101l-35 137h-209l-35 -137h-123l194 655h142zM185 239h161l-80 316z" />
    <glyph glyph-name="aogonek" unicode="&#x105;" horiz-adv-x="432" 
d="M209 500c127 0 175 -44 175 -174v-326h-31c-36 -16 -50 -43 -50 -67v-7c0 -22 10 -31 36 -31c9 0 20 1 37 4v-88c-29 -7 -47 -8 -62 -8c-73 0 -108 35 -108 85v11c0 40 26 81 69 104v63c-34 -51 -76 -78 -120 -78c-75 0 -124 55 -124 154v26c0 87 57 144 153 144
c21 0 56 -5 83 -10v42c-2 39 -20 54 -68 54c-33 0 -91 -9 -132 -17v102c49 9 109 17 142 17zM211 226c-42 0 -63 -23 -63 -65v-8c0 -40 18 -60 43 -60s53 21 77 64v64c-20 3 -42 5 -57 5z" />
    <glyph glyph-name="Cacute" unicode="&#x106;" horiz-adv-x="460" 
d="M272 667c44 0 92 -8 150 -17l-2 -107c-39 7 -90 16 -136 16c-85 0 -113 -27 -113 -108v-246c0 -80 29 -107 113 -107c46 0 97 10 136 18l2 -110c-51 -9 -104 -18 -150 -18c-164 0 -221 70 -221 209v261c0 141 59 209 221 209zM289 708h-95l75 136h122z" />
    <glyph glyph-name="cacute" unicode="&#x107;" horiz-adv-x="375" 
d="M230 500c31 0 61 -3 112 -13l-2 -104c-36 8 -68 13 -96 13c-60 0 -84 -27 -84 -87v-130c0 -62 28 -86 84 -86c30 0 56 4 95 12l3 -104c-54 -10 -84 -13 -113 -13c-125 0 -186 64 -186 187v138c0 121 60 187 187 187zM252 546h-94l81 148h120z" />
    <glyph glyph-name="Ccircumflex" unicode="&#x108;" horiz-adv-x="460" 
d="M272 667c44 0 92 -8 150 -17l-2 -107c-39 7 -90 16 -136 16c-85 0 -113 -27 -113 -108v-246c0 -80 29 -107 113 -107c46 0 97 10 136 18l2 -110c-51 -9 -104 -18 -150 -18c-164 0 -221 70 -221 209v261c0 141 59 209 221 209zM403 801v-88l-145 53l-146 -53v88l146 66z
" />
    <glyph glyph-name="ccircumflex" unicode="&#x109;" horiz-adv-x="375" 
d="M230 500c31 0 61 -3 112 -13l-2 -104c-36 8 -68 13 -96 13c-60 0 -84 -27 -84 -87v-130c0 -62 28 -86 84 -86c30 0 56 4 95 12l3 -104c-54 -10 -84 -13 -113 -13c-125 0 -186 64 -186 187v138c0 121 60 187 187 187zM349 630v-89l-135 68l-136 -68v89l136 79z" />
    <glyph glyph-name="Cdotaccent" unicode="&#x10a;" horiz-adv-x="460" 
d="M272 667c44 0 92 -8 150 -17l-2 -107c-39 7 -90 16 -136 16c-85 0 -113 -27 -113 -108v-246c0 -80 29 -107 113 -107c46 0 97 10 136 18l2 -110c-51 -9 -104 -18 -150 -18c-164 0 -221 70 -221 209v261c0 141 59 209 221 209zM258 853c45 0 70 -20 70 -60v-26
c0 -38 -25 -60 -70 -60c-44 0 -70 22 -70 60v26c0 40 26 60 70 60z" />
    <glyph glyph-name="cdotaccent" unicode="&#x10b;" horiz-adv-x="375" 
d="M230 500c31 0 61 -3 112 -13l-2 -104c-36 8 -68 13 -96 13c-60 0 -84 -27 -84 -87v-130c0 -62 28 -86 84 -86c30 0 56 4 95 12l3 -104c-54 -10 -84 -13 -113 -13c-125 0 -186 64 -186 187v138c0 121 60 187 187 187zM213 706c45 0 70 -20 70 -59v-27
c0 -37 -25 -59 -70 -59c-43 0 -69 22 -69 59v27c0 39 26 59 69 59z" />
    <glyph glyph-name="Ccaron" unicode="&#x10c;" horiz-adv-x="460" 
d="M272 667c44 0 92 -8 150 -17l-2 -107c-39 7 -90 16 -136 16c-85 0 -113 -27 -113 -108v-246c0 -80 29 -107 113 -107c46 0 97 10 136 18l2 -110c-51 -9 -104 -18 -150 -18c-164 0 -221 70 -221 209v261c0 141 59 209 221 209zM403 777l-145 -66l-146 66v88l146 -53
l145 53v-88z" />
    <glyph glyph-name="ccaron" unicode="&#x10d;" horiz-adv-x="375" 
d="M230 500c31 0 61 -3 112 -13l-2 -104c-36 8 -68 13 -96 13c-60 0 -84 -27 -84 -87v-130c0 -62 28 -86 84 -86c30 0 56 4 95 12l3 -104c-54 -10 -84 -13 -113 -13c-125 0 -186 64 -186 187v138c0 121 60 187 187 187zM349 618l-135 -79l-136 79v89l136 -68l135 68v-89z
" />
    <glyph glyph-name="Dcaron" unicode="&#x10e;" horiz-adv-x="548" 
d="M248 666c165 0 254 -96 254 -265v-156c0 -162 -84 -257 -262 -257c-64 0 -125 2 -184 6v667c51 2 120 5 192 5zM243 561c-23 0 -46 0 -68 -2v-461c28 -3 50 -4 68 -4c86 0 139 49 139 145v168c0 105 -51 154 -139 154zM394 777l-145 -66l-146 66v88l146 -53l145 53v-88z
" />
    <glyph glyph-name="dcaron" unicode="&#x10f;" horiz-adv-x="563" 
d="M402 0h-109v70c-35 -52 -78 -82 -125 -82c-79 0 -125 52 -125 167v174c0 111 50 171 135 171c41 0 81 -22 108 -44v227h116v-683zM214 394c-34 0 -54 -21 -54 -78v-148c0 -56 17 -74 43 -74c28 0 58 23 83 66v199c-21 21 -50 35 -72 35zM497 695c41 0 61 -18 61 -50v-24
c0 -18 -3 -32 -8 -51l-25 -74h-71l15 80c-19 7 -30 22 -30 46v23c0 32 22 50 58 50z" />
    <glyph glyph-name="Dcroat" unicode="&#x110;" horiz-adv-x="564" 
d="M264 667c165 0 254 -96 254 -266v-156c0 -162 -84 -257 -263 -257c-63 0 -125 2 -183 6v297h-68v97h68v275c51 2 118 4 192 4zM259 562c-23 0 -45 0 -68 -1v-173h116v-97h-116v-193c28 -3 50 -4 68 -4c86 0 139 49 139 145v168c0 106 -51 155 -139 155z" />
    <glyph glyph-name="dcroat" unicode="&#x111;" horiz-adv-x="469" 
d="M402 635h64v-88h-64v-547h-109v70c-35 -52 -78 -82 -125 -82c-79 0 -125 52 -125 167v172c0 112 49 172 135 172c41 0 81 -23 108 -44v92h-101v88h101v48h116v-48zM214 392c-34 0 -54 -21 -54 -77v-147c0 -56 17 -74 43 -74c28 0 58 23 83 66v198c-21 20 -50 34 -72 34z
" />
    <glyph glyph-name="Emacron" unicode="&#x112;" horiz-adv-x="467" 
d="M421 545h-245v-158h225v-109h-225v-168h245v-110h-365v655h365v-110zM367 711h-257v95h257v-95z" />
    <glyph glyph-name="emacron" unicode="&#x113;" horiz-adv-x="432" 
d="M220 500c115 0 179 -64 179 -184v-112h-240v-37c0 -53 23 -74 85 -74c41 0 94 8 134 16l3 -102c-49 -10 -110 -19 -147 -19c-138 0 -191 57 -191 191v137c0 117 57 184 177 184zM220 400c-37 0 -61 -24 -61 -69v-40h124v37c0 49 -24 72 -63 72zM336 592h-237v95h237v-95z
" />
    <glyph glyph-name="Ebreve" unicode="&#x114;" horiz-adv-x="467" 
d="M421 545h-245v-158h225v-109h-225v-168h245v-110h-365v655h365v-110zM384 858v-99s-63 -55 -145 -55c-84 0 -146 55 -146 55v99s68 -63 146 -63c76 0 145 63 145 63z" />
    <glyph glyph-name="ebreve" unicode="&#x115;" horiz-adv-x="432" 
d="M220 500c115 0 179 -64 179 -184v-112h-240v-37c0 -53 23 -74 85 -74c41 0 94 8 134 16l3 -102c-49 -10 -110 -19 -147 -19c-138 0 -191 57 -191 191v137c0 117 57 184 177 184zM220 400c-37 0 -61 -24 -61 -69v-40h124v37c0 49 -24 72 -63 72zM350 708v-98
s-42 -57 -132 -57c-89 0 -132 57 -132 57v98s51 -65 132 -65s132 65 132 65z" />
    <glyph glyph-name="Edotaccent" unicode="&#x116;" horiz-adv-x="467" 
d="M421 545h-245v-158h225v-109h-225v-168h245v-110h-365v655h365v-110zM239 853c45 0 70 -20 70 -60v-26c0 -38 -25 -60 -70 -60c-44 0 -70 22 -70 60v26c0 40 26 60 70 60z" />
    <glyph glyph-name="edotaccent" unicode="&#x117;" horiz-adv-x="432" 
d="M220 500c115 0 179 -64 179 -184v-112h-240v-37c0 -53 23 -74 85 -74c41 0 94 8 134 16l3 -102c-49 -10 -110 -19 -147 -19c-138 0 -191 57 -191 191v137c0 117 57 184 177 184zM220 400c-37 0 -61 -24 -61 -69v-40h124v37c0 49 -24 72 -63 72zM217 706
c45 0 70 -20 70 -59v-27c0 -37 -25 -59 -70 -59c-43 0 -69 22 -69 59v27c0 39 26 59 69 59z" />
    <glyph glyph-name="Eogonek" unicode="&#x118;" horiz-adv-x="467" 
d="M421 545h-245v-158h225v-109h-225v-168h245v-110h-69c-35 -16 -50 -43 -50 -67v-7c0 -22 11 -31 37 -31c9 0 20 1 37 4v-88c-29 -7 -47 -8 -62 -8c-73 0 -109 35 -109 85v11c0 39 25 76 64 101h-213v655h365v-110z" />
    <glyph glyph-name="eogonek" unicode="&#x119;" horiz-adv-x="432" 
d="M220 500c115 0 179 -64 179 -184v-112h-240v-37c0 -53 23 -74 85 -74c41 0 94 8 134 16l3 -101c-54 -15 -72 -50 -72 -75v-7c0 -22 10 -31 36 -31c9 0 21 1 38 4v-88c-30 -7 -48 -8 -63 -8c-73 0 -109 35 -109 85v11c0 33 18 66 50 90c-10 0 -19 -1 -27 -1
c-138 0 -191 57 -191 191v137c0 117 57 184 177 184zM220 400c-37 0 -61 -24 -61 -69v-40h124v37c0 49 -24 72 -63 72z" />
    <glyph glyph-name="Ecaron" unicode="&#x11a;" horiz-adv-x="467" 
d="M421 545h-245v-158h225v-109h-225v-168h245v-110h-365v655h365v-110zM384 777l-145 -66l-146 66v88l146 -53l145 53v-88z" />
    <glyph glyph-name="ecaron" unicode="&#x11b;" horiz-adv-x="432" 
d="M220 500c115 0 179 -64 179 -184v-112h-240v-37c0 -53 23 -74 85 -74c41 0 94 8 134 16l3 -102c-49 -10 -110 -19 -147 -19c-138 0 -191 57 -191 191v137c0 117 57 184 177 184zM220 400c-37 0 -61 -24 -61 -69v-40h124v37c0 49 -24 72 -63 72zM353 618l-135 -79l-136 79
v89l136 -68l135 68v-89z" />
    <glyph glyph-name="Gcircumflex" unicode="&#x11c;" horiz-adv-x="535" 
d="M272 667c52 0 134 -11 183 -21l-2 -106c-41 8 -123 21 -177 21c-77 0 -105 -28 -105 -99v-266c0 -71 28 -100 102 -100c26 0 58 4 90 9v176h-97v108h216v-361c-59 -20 -143 -40 -212 -40c-162 0 -219 70 -219 209v261c0 144 62 209 221 209zM410 801v-88l-145 53
l-146 -53v88l146 66z" />
    <glyph glyph-name="gcircumflex" unicode="&#x11d;" horiz-adv-x="469" 
d="M220 500c30 0 57 -5 79 -13l163 2v-102l-77 3c8 -19 14 -43 14 -68v-17c0 -88 -63 -154 -180 -154c-24 0 -44 2 -60 6c-12 -9 -16 -20 -16 -30v-4c0 -15 7 -22 34 -24l132 -9c69 -5 113 -50 113 -118v-37c0 -85 -39 -132 -215 -132c-45 0 -115 10 -163 23l4 103
c44 -13 109 -27 155 -27c95 0 105 12 105 46v6c0 21 -12 33 -35 34l-139 9c-72 5 -105 42 -105 98v19c0 31 19 62 49 81c-24 27 -36 66 -36 124v20c0 96 60 161 178 161zM220 400c-38 0 -61 -21 -61 -59v-31c0 -51 11 -62 56 -62c46 0 67 23 67 61v25c0 24 -3 44 -9 57
c-12 5 -32 9 -53 9zM357 630v-89l-135 68l-136 -68v89l136 79z" />
    <glyph glyph-name="Gbreve" unicode="&#x11e;" horiz-adv-x="535" 
d="M272 667c52 0 134 -11 183 -21l-2 -106c-41 8 -123 21 -177 21c-77 0 -105 -28 -105 -99v-266c0 -71 28 -100 102 -100c26 0 58 4 90 9v176h-97v108h216v-361c-59 -20 -143 -40 -212 -40c-162 0 -219 70 -219 209v261c0 144 62 209 221 209zM410 858v-99
s-63 -55 -145 -55c-84 0 -146 55 -146 55v99s68 -63 146 -63c76 0 145 63 145 63z" />
    <glyph glyph-name="gbreve" unicode="&#x11f;" horiz-adv-x="469" 
d="M220 500c30 0 57 -5 79 -13l163 2v-102l-77 3c8 -19 14 -43 14 -68v-17c0 -88 -63 -154 -180 -154c-24 0 -44 2 -60 6c-12 -9 -16 -20 -16 -30v-4c0 -15 7 -22 34 -24l132 -9c69 -5 113 -50 113 -118v-37c0 -85 -39 -132 -215 -132c-45 0 -115 10 -163 23l4 103
c44 -13 109 -27 155 -27c95 0 105 12 105 46v6c0 21 -12 33 -35 34l-139 9c-72 5 -105 42 -105 98v19c0 31 19 62 49 81c-24 27 -36 66 -36 124v20c0 96 60 161 178 161zM220 400c-38 0 -61 -21 -61 -59v-31c0 -51 11 -62 56 -62c46 0 67 23 67 61v25c0 24 -3 44 -9 57
c-12 5 -32 9 -53 9zM354 708v-98s-42 -57 -132 -57c-89 0 -132 57 -132 57v98s51 -65 132 -65s132 65 132 65z" />
    <glyph glyph-name="Gdotaccent" unicode="&#x120;" horiz-adv-x="535" 
d="M272 667c52 0 134 -11 183 -21l-2 -106c-41 8 -123 21 -177 21c-77 0 -105 -28 -105 -99v-266c0 -71 28 -100 102 -100c26 0 58 4 90 9v176h-97v108h216v-361c-59 -20 -143 -40 -212 -40c-162 0 -219 70 -219 209v261c0 144 62 209 221 209zM265 853c45 0 70 -20 70 -60
v-26c0 -38 -25 -60 -70 -60c-44 0 -70 22 -70 60v26c0 40 26 60 70 60z" />
    <glyph glyph-name="gdotaccent" unicode="&#x121;" horiz-adv-x="469" 
d="M220 500c30 0 57 -5 79 -13l163 2v-102l-77 3c8 -19 14 -43 14 -68v-17c0 -88 -63 -154 -180 -154c-24 0 -44 2 -60 6c-12 -9 -16 -20 -16 -30v-4c0 -15 7 -22 34 -24l132 -9c69 -5 113 -50 113 -118v-37c0 -85 -39 -132 -215 -132c-45 0 -115 10 -163 23l4 103
c44 -13 109 -27 155 -27c95 0 105 12 105 46v6c0 21 -12 33 -35 34l-139 9c-72 5 -105 42 -105 98v19c0 31 19 62 49 81c-24 27 -36 66 -36 124v20c0 96 60 161 178 161zM220 400c-38 0 -61 -21 -61 -59v-31c0 -51 11 -62 56 -62c46 0 67 23 67 61v25c0 24 -3 44 -9 57
c-12 5 -32 9 -53 9zM221 706c45 0 70 -20 70 -59v-27c0 -37 -25 -59 -70 -59c-43 0 -69 22 -69 59v27c0 39 26 59 69 59z" />
    <glyph glyph-name="Gcommaaccent" unicode="&#x122;" horiz-adv-x="535" 
d="M272 667c52 0 134 -11 183 -21l-2 -106c-41 8 -123 21 -177 21c-77 0 -105 -28 -105 -99v-266c0 -71 28 -100 102 -100c26 0 58 4 90 9v176h-97v108h216v-361c-59 -20 -143 -40 -212 -40c-162 0 -219 70 -219 209v261c0 144 62 209 221 209zM272 -56c41 0 61 -18 61 -50
v-24c0 -18 -3 -32 -8 -51l-25 -74h-71l15 80c-19 7 -30 22 -30 46v23c0 32 22 50 58 50z" />
    <glyph glyph-name="gcommaaccent" unicode="&#x123;" horiz-adv-x="469" 
d="M224 544c-41 0 -61 18 -61 50v24c0 18 3 32 8 51l25 74h71l-15 -80c19 -7 30 -22 30 -46v-23c0 -32 -22 -50 -58 -50zM220 500c30 0 57 -5 79 -13l163 2v-102l-77 3c8 -19 14 -43 14 -68v-17c0 -88 -63 -154 -180 -154c-24 0 -44 2 -60 6c-12 -9 -16 -20 -16 -30v-4
c0 -15 7 -22 34 -24l132 -9c69 -5 113 -50 113 -118v-37c0 -85 -39 -132 -215 -132c-45 0 -115 10 -163 23l4 103c44 -13 109 -27 155 -27c95 0 105 12 105 46v6c0 21 -12 33 -35 34l-139 9c-72 5 -105 42 -105 98v19c0 31 19 62 49 81c-24 27 -36 66 -36 124v20
c0 96 60 161 178 161zM220 400c-38 0 -61 -21 -61 -59v-31c0 -51 11 -62 56 -62c46 0 67 23 67 61v25c0 24 -3 44 -9 57c-12 5 -32 9 -53 9z" />
    <glyph glyph-name="Hcircumflex" unicode="&#x124;" horiz-adv-x="557" 
d="M501 0h-119v283h-206v-283h-120v655h120v-264h206v264h119v-655zM423 801v-88l-145 53l-146 -53v88l146 66z" />
    <glyph glyph-name="hcircumflex" unicode="&#x125;" horiz-adv-x="460" 
d="M170 683v-250c33 45 72 67 117 67c79 0 125 -55 125 -170v-330h-117v318c0 55 -18 73 -45 73s-58 -22 -80 -60v-331h-117v683h117zM351 801v-88l-145 53l-146 -53v88l146 66z" />
    <glyph glyph-name="Hbar" unicode="&#x126;" horiz-adv-x="567" 
d="M506 595h47v-98h-47v-497h-120v283h-206v-283h-119v497h-47v98h47v60h119v-60h206v60h120v-60zM180 497v-106h206v106h-206z" />
    <glyph glyph-name="hbar" unicode="&#x127;" horiz-adv-x="472" 
d="M182 635h103v-88h-103v-115c34 44 74 67 119 67c78 0 124 -56 124 -170v-329h-117v317c0 55 -18 73 -45 73s-58 -23 -81 -60v-330h-116v547h-64v88h64v48h116v-48z" />
    <glyph glyph-name="Itilde" unicode="&#x128;" horiz-adv-x="231" 
d="M176 0h-120v655h120v-655zM261 835v-87s-37 -34 -85 -34c-44 0 -82 28 -122 28c-35 0 -84 -28 -84 -28v87s37 34 86 34c54 0 84 -28 122 -28c34 0 83 28 83 28z" />
    <glyph glyph-name="itilde" unicode="&#x129;" horiz-adv-x="222" 
d="M170 0h-117v488h117v-488zM247 700v-88s-35 -34 -83 -34c-42 0 -68 28 -107 28c-34 0 -81 -28 -81 -28v88s35 34 83 34c53 0 71 -29 107 -29c34 0 81 29 81 29z" />
    <glyph glyph-name="Imacron" unicode="&#x12a;" horiz-adv-x="231" 
d="M176 0h-120v655h120v-655zM244 711h-257v95h257v-95z" />
    <glyph glyph-name="imacron" unicode="&#x12b;" horiz-adv-x="222" 
d="M170 0h-117v488h117v-488zM230 592h-237v95h237v-95z" />
    <glyph glyph-name="Ibreve" unicode="&#x12c;" horiz-adv-x="231" 
d="M176 0h-120v655h120v-655zM261 858v-99s-63 -55 -145 -55c-84 0 -146 55 -146 55v99s68 -63 146 -63c76 0 145 63 145 63z" />
    <glyph glyph-name="ibreve" unicode="&#x12d;" horiz-adv-x="222" 
d="M170 0h-117v488h117v-488zM244 708v-98s-42 -57 -132 -57c-89 0 -132 57 -132 57v98s51 -65 132 -65s132 65 132 65z" />
    <glyph glyph-name="Iogonek" unicode="&#x12e;" horiz-adv-x="231" 
d="M176 0h-42c-35 -16 -50 -43 -50 -67v-7c0 -22 11 -31 37 -31c9 0 21 1 37 4v-88c-29 -7 -47 -8 -62 -8c-73 0 -109 35 -109 85v11c0 40 26 79 69 104v652h120v-655z" />
    <glyph glyph-name="iogonek" unicode="&#x12f;" horiz-adv-x="222" 
d="M111 712c45 0 70 -20 70 -60v-26c0 -38 -25 -60 -70 -60c-44 0 -70 22 -70 60v26c0 40 26 60 70 60zM170 0h-37c-35 -16 -50 -43 -50 -67v-7c0 -22 11 -31 37 -31c9 0 20 1 37 4v-88c-29 -7 -47 -8 -62 -8c-73 0 -109 35 -109 85v11c0 40 26 79 67 103v486h117v-488z" />
    <glyph glyph-name="Idotaccent" unicode="&#x130;" horiz-adv-x="231" 
d="M176 0h-120v655h120v-655zM116 853c45 0 70 -20 70 -60v-26c0 -38 -25 -60 -70 -60c-44 0 -70 22 -70 60v26c0 40 26 60 70 60z" />
    <glyph glyph-name="dotlessi" unicode="&#x131;" horiz-adv-x="222" 
d="M170 0h-117v488h117v-488z" />
    <glyph glyph-name="IJ" unicode="&#x132;" horiz-adv-x="530" 
d="M176 0h-120v655h120v-655zM475 655v-489c0 -121 -53 -178 -166 -178c-22 0 -66 5 -80 10v102c18 -4 48 -6 71 -6c37 0 55 17 55 66v495h120z" />
    <glyph glyph-name="ij" unicode="&#x133;" horiz-adv-x="444" 
d="M111 706c45 0 70 -20 70 -59v-27c0 -37 -25 -59 -70 -59c-43 0 -69 22 -69 59v27c0 39 26 59 69 59zM333 706c45 0 70 -20 70 -59v-27c0 -37 -25 -59 -70 -59c-43 0 -69 22 -69 59v27c0 39 26 59 69 59zM170 0h-117v488h117v-488zM392 488v-509
c0 -122 -47 -176 -161 -176c-31 0 -62 4 -78 6v101c12 -2 41 -4 62 -4c43 0 60 18 60 65v517h117z" />
    <glyph glyph-name="Jcircumflex" unicode="&#x134;" horiz-adv-x="299" 
d="M244 655v-489c0 -121 -53 -178 -166 -178c-22 0 -66 5 -80 10v102c18 -4 48 -6 71 -6c37 0 55 17 55 66v495h120zM328 801v-88l-145 53l-146 -53v88l146 66z" />
    <glyph glyph-name="jcircumflex" unicode="&#x135;" horiz-adv-x="222" 
d="M170 488v-509c0 -122 -47 -176 -161 -176c-31 0 -62 4 -78 6v101c12 -2 41 -4 62 -4c43 0 60 18 60 65v517h117zM247 630v-89l-135 68l-136 -68v89l136 79z" />
    <glyph glyph-name="Kcommaaccent" unicode="&#x136;" horiz-adv-x="533" 
d="M278 335l259 -335h-146l-215 289v-289h-120v655h120v-295l212 295h127zM274 -56c41 0 61 -18 61 -50v-24c0 -18 -3 -32 -8 -51l-25 -74h-71l15 80c-19 7 -30 22 -30 46v23c0 32 22 50 58 50z" />
    <glyph glyph-name="kcommaaccent" unicode="&#x137;" horiz-adv-x="443" 
d="M170 303l133 185h132l-161 -215l171 -273h-137l-138 228v-228h-117v683h117v-380zM232 -56c41 0 61 -18 61 -50v-24c0 -18 -3 -32 -8 -51l-25 -74h-71l15 80c-19 7 -30 22 -30 46v23c0 32 22 50 58 50z" />
    <glyph glyph-name="kgreenlandic" unicode="&#x138;" horiz-adv-x="443" 
d="M273 258l172 -258h-137l-138 219v-219h-117v488h117v-205l134 205h132z" />
    <glyph glyph-name="Lacute" unicode="&#x139;" horiz-adv-x="440" 
d="M176 108h245v-108h-365v655h120v-547zM157 708h-95l75 136h122z" />
    <glyph glyph-name="lacute" unicode="&#x13a;" horiz-adv-x="222" 
d="M170 0h-117v683h117v-683zM154 708h-95l75 136h122z" />
    <glyph glyph-name="Lcommaaccent" unicode="&#x13b;" horiz-adv-x="440" 
d="M176 108h245v-108h-365v655h120v-547zM234 -56c41 0 61 -18 61 -50v-24c0 -18 -3 -32 -8 -51l-25 -74h-71l15 80c-19 7 -30 22 -30 46v23c0 32 22 50 58 50z" />
    <glyph glyph-name="lcommaaccent" unicode="&#x13c;" horiz-adv-x="222" 
d="M170 0h-117v683h117v-683zM110 -56c41 0 61 -18 61 -50v-24c0 -18 -3 -32 -8 -51l-25 -74h-71l15 80c-19 7 -30 22 -30 46v23c0 32 22 50 58 50z" />
    <glyph glyph-name="Lcaron" unicode="&#x13d;" horiz-adv-x="440" 
d="M176 108h245v-108h-365v655h120v-547zM286 666c41 0 61 -18 61 -50v-24c0 -18 -3 -32 -8 -51l-25 -74h-71l15 80c-19 7 -30 22 -30 46v23c0 32 22 50 58 50z" />
    <glyph glyph-name="lcaron" unicode="&#x13e;" horiz-adv-x="342" 
d="M170 0h-117v683h117v-683zM276 695c41 0 61 -18 61 -50v-24c0 -18 -3 -32 -8 -51l-25 -74h-71l15 80c-19 7 -30 22 -30 46v23c0 32 22 50 58 50z" />
    <glyph glyph-name="Ldot" unicode="&#x13f;" horiz-adv-x="440" 
d="M176 108h245v-108h-365v655h120v-547zM327 445c45 0 70 -20 70 -60v-26c0 -38 -25 -60 -70 -60c-44 0 -70 22 -70 60v26c0 40 26 60 70 60z" />
    <glyph glyph-name="ldot" unicode="&#x140;" horiz-adv-x="318" 
d="M170 0h-117v683h117v-683zM269 500c45 0 70 -20 70 -59v-27c0 -37 -25 -59 -70 -59c-43 0 -69 22 -69 59v27c0 39 26 59 69 59z" />
    <glyph glyph-name="Lslash" unicode="&#x141;" horiz-adv-x="456" 
d="M191 405l118 34v-102l-118 -33v-196h246v-108h-365v270l-67 -18v101l67 19v283h119v-250z" />
    <glyph glyph-name="lslash" unicode="&#x142;" horiz-adv-x="250" 
d="M184 461l79 24v-89l-79 -25v-371h-117v338l-79 -24v90l79 23v256h117v-222z" />
    <glyph glyph-name="Nacute" unicode="&#x143;" horiz-adv-x="559" 
d="M172 463v-463h-116v655h163l169 -463v463h115v-655h-159zM313 708h-95l75 136h122z" />
    <glyph glyph-name="nacute" unicode="&#x144;" horiz-adv-x="465" 
d="M287 500c79 0 125 -55 125 -170v-330h-117v318c0 55 -17 73 -45 73c-27 0 -58 -22 -80 -60v-331h-117v488h108v-67c35 54 78 79 126 79zM272 546h-94l81 148h120z" />
    <glyph glyph-name="Ncommaaccent" unicode="&#x145;" horiz-adv-x="559" 
d="M172 463v-463h-116v655h163l169 -463v463h115v-655h-159zM285 -56c41 0 61 -18 61 -50v-24c0 -18 -3 -32 -8 -51l-25 -74h-71l15 80c-19 7 -30 22 -30 46v23c0 32 22 50 58 50z" />
    <glyph glyph-name="ncommaaccent" unicode="&#x146;" horiz-adv-x="465" 
d="M287 500c79 0 125 -55 125 -170v-330h-117v318c0 55 -17 73 -45 73c-27 0 -58 -22 -80 -60v-331h-117v488h108v-67c35 54 78 79 126 79zM233 -56c41 0 61 -18 61 -50v-24c0 -18 -3 -32 -8 -51l-25 -74h-71l15 80c-19 7 -30 22 -30 46v23c0 32 22 50 58 50z" />
    <glyph glyph-name="Ncaron" unicode="&#x147;" horiz-adv-x="559" 
d="M172 463v-463h-116v655h163l169 -463v463h115v-655h-159zM427 777l-145 -66l-146 66v88l146 -53l145 53v-88z" />
    <glyph glyph-name="ncaron" unicode="&#x148;" horiz-adv-x="465" 
d="M287 500c79 0 125 -55 125 -170v-330h-117v318c0 55 -17 73 -45 73c-27 0 -58 -22 -80 -60v-331h-117v488h108v-67c35 54 78 79 126 79zM369 618l-135 -79l-136 79v89l136 -68l135 68v-89z" />
    <glyph glyph-name="napostrophe" unicode="&#x149;" horiz-adv-x="515" 
d="M337 500c79 0 125 -55 125 -170v-330h-117v318c0 55 -17 73 -45 73c-27 0 -58 -22 -80 -60v-331h-117v488h108v-67c35 54 78 79 126 79zM42 695c41 0 61 -18 61 -50v-24c0 -18 -3 -32 -8 -51l-25 -74h-71l15 80c-19 7 -30 22 -30 46v23c0 32 22 50 58 50z" />
    <glyph glyph-name="Eng" unicode="&#x14a;" horiz-adv-x="559" 
d="M503 655v-648c0 -123 -55 -180 -165 -180c-22 0 -67 4 -81 9v102c19 -3 48 -6 73 -6c38 0 59 19 59 56v12h-45l-172 463v-463h-116v655h163l169 -466v466h115z" />
    <glyph glyph-name="eng" unicode="&#x14b;" horiz-adv-x="465" 
d="M287 500c79 0 125 -55 125 -170v-356c-1 -118 -49 -171 -161 -171c-31 0 -62 4 -78 6v101c12 -2 41 -4 62 -4c44 0 60 18 60 65v347c0 55 -17 73 -45 73c-27 0 -58 -22 -80 -60v-331h-117v488h108v-67c35 54 78 79 126 79z" />
    <glyph glyph-name="Omacron" unicode="&#x14c;" horiz-adv-x="553" 
d="M276 667c157 0 226 -81 226 -221v-237c0 -138 -67 -221 -226 -221c-158 0 -225 83 -225 221v237c0 140 68 221 225 221zM276 559c-71 0 -106 -36 -106 -104v-254c0 -69 36 -105 106 -105s106 36 106 105v253c0 68 -36 105 -106 105zM404 711h-257v95h257v-95z" />
    <glyph glyph-name="omacron" unicode="&#x14d;" horiz-adv-x="451" 
d="M225 500c125 0 183 -67 183 -185v-142c0 -118 -58 -185 -183 -185c-123 0 -182 66 -182 185v142c0 118 59 185 182 185zM226 398c-42 0 -66 -26 -66 -77v-154c0 -51 24 -78 66 -78c41 0 66 27 66 78v155c0 51 -25 76 -66 76zM344 592h-237v95h237v-95z" />
    <glyph glyph-name="Obreve" unicode="&#x14e;" horiz-adv-x="553" 
d="M276 667c157 0 226 -81 226 -221v-237c0 -138 -67 -221 -226 -221c-158 0 -225 83 -225 221v237c0 140 68 221 225 221zM276 559c-71 0 -106 -36 -106 -104v-254c0 -69 36 -105 106 -105s106 36 106 105v253c0 68 -36 105 -106 105zM421 858v-99s-63 -55 -145 -55
c-84 0 -146 55 -146 55v99s68 -63 146 -63c76 0 145 63 145 63z" />
    <glyph glyph-name="obreve" unicode="&#x14f;" horiz-adv-x="451" 
d="M225 500c125 0 183 -67 183 -185v-142c0 -118 -58 -185 -183 -185c-123 0 -182 66 -182 185v142c0 118 59 185 182 185zM226 398c-42 0 -66 -26 -66 -77v-154c0 -51 24 -78 66 -78c41 0 66 27 66 78v155c0 51 -25 76 -66 76zM358 708v-98s-42 -57 -132 -57
c-89 0 -132 57 -132 57v98s51 -65 132 -65s132 65 132 65z" />
    <glyph glyph-name="Ohungarumlaut" unicode="&#x150;" horiz-adv-x="553" 
d="M276 667c157 0 226 -81 226 -221v-237c0 -138 -67 -221 -226 -221c-158 0 -225 83 -225 221v237c0 140 68 221 225 221zM276 559c-71 0 -106 -36 -106 -104v-254c0 -69 36 -105 106 -105s106 36 106 105v253c0 68 -36 105 -106 105zM230 708h-97l62 144h115zM395 708h-97
l63 144h114z" />
    <glyph glyph-name="ohungarumlaut" unicode="&#x151;" horiz-adv-x="451" 
d="M225 500c125 0 183 -67 183 -185v-142c0 -118 -58 -185 -183 -185c-123 0 -182 66 -182 185v142c0 118 59 185 182 185zM226 398c-42 0 -66 -26 -66 -77v-154c0 -51 24 -78 66 -78c41 0 66 27 66 78v155c0 51 -25 76 -66 76zM185 546h-95l65 155h115zM346 546h-95l66 155
h114z" />
    <glyph glyph-name="OE" unicode="&#x152;" horiz-adv-x="747" 
d="M262 667c31 0 65 -4 93 -12h346v-110h-237v-158h217v-109h-217v-168h237v-110h-350c-26 -8 -54 -12 -84 -12c-144 0 -216 78 -216 221v237c0 144 75 221 211 221zM273 560c-68 0 -103 -35 -103 -104v-256c0 -70 36 -105 101 -105c30 0 53 2 74 10v442
c-19 9 -42 13 -72 13z" />
    <glyph glyph-name="oe" unicode="&#x153;" horiz-adv-x="683" 
d="M476 500c111 0 173 -65 173 -184v-110h-242v-35c0 -57 24 -78 87 -78c42 0 95 8 136 16l3 -102c-49 -10 -111 -19 -148 -19c-64 0 -110 18 -141 50c-30 -31 -72 -50 -125 -50c-122 0 -176 70 -176 185v142c0 115 54 185 179 185c56 0 99 -19 128 -48c28 29 72 48 126 48z
M225 398c-41 0 -65 -26 -65 -77v-154c0 -51 24 -78 65 -78c42 0 66 27 66 78v155c0 51 -24 76 -66 76zM469 398c-38 0 -62 -23 -62 -69v-33h124v31c0 48 -23 71 -62 71z" />
    <glyph glyph-name="Racute" unicode="&#x154;" horiz-adv-x="529" 
d="M239 667c167 0 237 -72 237 -184v-24c0 -70 -38 -133 -111 -164l162 -295h-132l-142 264c-17 -2 -50 -1 -77 1v-265h-120v661c58 2 136 6 183 6zM239 562c-16 0 -44 -1 -64 -2v-191c29 -3 45 -4 65 -4c82 0 116 36 116 95v16c0 57 -34 86 -117 86zM279 708h-95l75 136
h122z" />
    <glyph glyph-name="racute" unicode="&#x155;" horiz-adv-x="324" 
d="M290 500c8 0 14 -1 20 -2v-125c-9 2 -20 2 -33 2c-44 0 -81 -20 -107 -65v-310h-117v488h108v-73c33 52 78 85 129 85zM210 546h-94l81 148h120z" />
    <glyph glyph-name="Rcommaaccent" unicode="&#x156;" horiz-adv-x="529" 
d="M239 667c167 0 237 -72 237 -184v-24c0 -70 -38 -133 -111 -164l162 -295h-132l-142 264c-17 -2 -50 -1 -77 1v-265h-120v661c58 2 136 6 183 6zM239 562c-16 0 -44 -1 -64 -2v-191c29 -3 45 -4 65 -4c82 0 116 36 116 95v16c0 57 -34 86 -117 86zM271 -56
c41 0 61 -18 61 -50v-24c0 -18 -3 -32 -8 -51l-25 -74h-71l15 80c-19 7 -30 22 -30 46v23c0 32 22 50 58 50z" />
    <glyph glyph-name="rcommaaccent" unicode="&#x157;" horiz-adv-x="324" 
d="M290 500c8 0 14 -1 20 -2v-125c-9 2 -20 2 -33 2c-44 0 -81 -20 -107 -65v-310h-117v488h108v-73c33 52 78 85 129 85zM116 -56c41 0 61 -18 61 -50v-24c0 -18 -3 -32 -8 -51l-25 -74h-71l15 80c-19 7 -30 22 -30 46v23c0 32 22 50 58 50z" />
    <glyph glyph-name="Rcaron" unicode="&#x158;" horiz-adv-x="529" 
d="M239 667c167 0 237 -72 237 -184v-24c0 -70 -38 -133 -111 -164l162 -295h-132l-142 264c-17 -2 -50 -1 -77 1v-265h-120v661c58 2 136 6 183 6zM239 562c-16 0 -44 -1 -64 -2v-191c29 -3 45 -4 65 -4c82 0 116 36 116 95v16c0 57 -34 86 -117 86zM393 777l-145 -66
l-146 66v88l146 -53l145 53v-88z" />
    <glyph glyph-name="rcaron" unicode="&#x159;" horiz-adv-x="324" 
d="M290 500c8 0 14 -1 20 -2v-125c-9 2 -20 2 -33 2c-44 0 -81 -20 -107 -65v-310h-117v488h108v-73c33 52 78 85 129 85zM307 618l-135 -79l-136 79v89l136 -68l135 68v-89z" />
    <glyph glyph-name="Sacute" unicode="&#x15a;" horiz-adv-x="459" 
d="M236 667c40 0 99 -7 152 -16l-2 -109c-50 9 -110 17 -147 17c-63 0 -86 -25 -86 -70v-21c0 -36 11 -50 63 -67l88 -29c93 -31 128 -78 128 -179v-19c0 -120 -62 -186 -228 -186c-36 0 -96 9 -154 21l1 111c54 -13 114 -22 150 -22c84 0 112 26 112 72v26
c0 35 -14 53 -53 66l-97 32c-97 32 -130 75 -130 178v10c0 119 60 185 203 185zM261 708h-95l75 136h122z" />
    <glyph glyph-name="sacute" unicode="&#x15b;" horiz-adv-x="379" 
d="M205 500c37 0 68 -4 114 -13l-2 -102c-42 9 -76 14 -103 14c-52 0 -69 -15 -69 -40v-6c0 -17 7 -25 29 -35l92 -41c60 -27 88 -69 88 -123v-20c0 -95 -51 -146 -177 -146c-38 0 -84 8 -138 20l6 106c47 -13 97 -22 131 -22c48 0 63 13 63 40v6c0 21 -7 33 -30 43l-87 38
c-64 27 -93 68 -93 122v13c2 96 53 146 176 146zM225 546h-94l81 148h120z" />
    <glyph glyph-name="Scircumflex" unicode="&#x15c;" horiz-adv-x="459" 
d="M236 667c40 0 99 -7 152 -16l-2 -109c-50 9 -110 17 -147 17c-63 0 -86 -25 -86 -70v-21c0 -36 11 -50 63 -67l88 -29c93 -31 128 -78 128 -179v-19c0 -120 -62 -186 -228 -186c-36 0 -96 9 -154 21l1 111c54 -13 114 -22 150 -22c84 0 112 26 112 72v26
c0 35 -14 53 -53 66l-97 32c-97 32 -130 75 -130 178v10c0 119 60 185 203 185zM375 801v-88l-145 53l-146 -53v88l146 66z" />
    <glyph glyph-name="scircumflex" unicode="&#x15d;" horiz-adv-x="379" 
d="M205 500c37 0 68 -4 114 -13l-2 -102c-42 9 -76 14 -103 14c-52 0 -69 -15 -69 -40v-6c0 -17 7 -25 29 -35l92 -41c60 -27 88 -69 88 -123v-20c0 -95 -51 -146 -177 -146c-38 0 -84 8 -138 20l6 106c47 -13 97 -22 131 -22c48 0 63 13 63 40v6c0 21 -7 33 -30 43l-87 38
c-64 27 -93 68 -93 122v13c2 96 53 146 176 146zM322 630v-89l-135 68l-136 -68v89l136 79z" />
    <glyph glyph-name="Scedilla" unicode="&#x15e;" horiz-adv-x="459" 
d="M236 667c40 0 99 -7 152 -16l-2 -109c-50 9 -110 17 -147 17c-63 0 -86 -25 -86 -70v-21c0 -36 11 -50 63 -67l88 -29c93 -31 128 -78 128 -179v-19c0 -102 -46 -165 -159 -181l-9 -28h10c31 0 57 -26 57 -62v-17c0 -53 -34 -83 -114 -83c-16 0 -39 2 -57 5v68
c14 -2 26 -4 36 -4c29 0 41 10 41 23v9c-1 18 -11 23 -34 23h-29v20l14 42c-35 2 -87 9 -138 20l1 111c54 -13 114 -22 150 -22c84 0 112 26 112 72v26c0 35 -14 53 -53 66l-97 32c-97 32 -130 75 -130 178v10c0 119 60 185 203 185z" />
    <glyph glyph-name="scedilla" unicode="&#x15f;" horiz-adv-x="379" 
d="M205 500c37 0 68 -4 114 -13l-2 -102c-42 9 -76 14 -103 14c-52 0 -69 -15 -69 -40v-6c0 -17 7 -25 29 -35l92 -41c60 -27 88 -69 88 -123v-20c0 -78 -34 -127 -117 -141l-9 -28h10c31 0 57 -26 57 -62v-17c0 -53 -34 -83 -114 -83c-16 0 -39 2 -57 5v68
c14 -2 26 -4 36 -4c29 0 41 10 41 23v9c-1 18 -11 23 -34 23h-28v20l14 42c-33 2 -71 9 -114 19l6 106c47 -13 97 -22 131 -22c48 0 63 13 63 40v6c0 21 -7 33 -30 43l-87 38c-64 27 -93 68 -93 122v13c2 96 53 146 176 146z" />
    <glyph glyph-name="Scaron" unicode="&#x160;" horiz-adv-x="459" 
d="M236 667c40 0 99 -7 152 -16l-2 -109c-50 9 -110 17 -147 17c-63 0 -86 -25 -86 -70v-21c0 -36 11 -50 63 -67l88 -29c93 -31 128 -78 128 -179v-19c0 -120 -62 -186 -228 -186c-36 0 -96 9 -154 21l1 111c54 -13 114 -22 150 -22c84 0 112 26 112 72v26
c0 35 -14 53 -53 66l-97 32c-97 32 -130 75 -130 178v10c0 119 60 185 203 185zM375 777l-145 -66l-146 66v88l146 -53l145 53v-88z" />
    <glyph glyph-name="scaron" unicode="&#x161;" horiz-adv-x="379" 
d="M205 500c37 0 68 -4 114 -13l-2 -102c-42 9 -76 14 -103 14c-52 0 -69 -15 -69 -40v-6c0 -17 7 -25 29 -35l92 -41c60 -27 88 -69 88 -123v-20c0 -95 -51 -146 -177 -146c-38 0 -84 8 -138 20l6 106c47 -13 97 -22 131 -22c48 0 63 13 63 40v6c0 21 -7 33 -30 43l-87 38
c-64 27 -93 68 -93 122v13c2 96 53 146 176 146zM322 618l-135 -79l-136 79v89l136 -68l135 68v-89z" />
    <glyph glyph-name="Tcedilla" unicode="&#x162;" horiz-adv-x="522" 
d="M500 545h-180v-545h-44l-10 -35h10c31 0 57 -26 57 -62v-17c0 -53 -34 -83 -114 -83c-16 0 -40 2 -58 5v68c14 -2 26 -4 36 -4c29 0 41 10 41 23v9c0 18 -11 23 -34 23h-28v20l25 76v522h-180v110h479v-110z" />
    <glyph glyph-name="tcedilla" unicode="&#x163;" horiz-adv-x="341" 
d="M190 488h121v-101h-121v-235c0 -44 17 -61 54 -61c25 0 60 5 81 10l3 -101c-21 -5 -48 -10 -76 -11h-25l-7 -24h10c32 0 57 -26 57 -62v-17c0 -53 -34 -83 -113 -83c-17 0 -40 2 -58 5v68c14 -2 26 -4 36 -4c29 0 41 10 41 23v9c-1 18 -11 23 -34 23h-28v20l18 54
c-52 22 -76 70 -76 156v230h-62v101h64l17 130h98v-130z" />
    <glyph glyph-name="Tcaron" unicode="&#x164;" horiz-adv-x="522" 
d="M500 545h-180v-545h-119v545h-180v110h479v-110zM406 777l-145 -66l-146 66v88l146 -53l145 53v-88z" />
    <glyph glyph-name="tcaron" unicode="&#x165;" horiz-adv-x="414" 
d="M190 488h121v-101h-121v-235c0 -44 17 -61 54 -61c24 0 61 5 81 10l3 -101c-19 -5 -62 -12 -94 -12c-112 0 -161 46 -161 169v230h-62v101h64l17 130h98v-130zM343 695c41 0 61 -18 61 -50v-24c0 -18 -3 -32 -8 -51l-25 -74h-71l15 80c-19 7 -30 22 -30 46v23
c0 32 22 50 58 50z" />
    <glyph glyph-name="Tbar" unicode="&#x166;" horiz-adv-x="522" 
d="M500 545h-180v-158h95v-100h-95v-287h-119v287h-95v100h95v158h-180v110h479v-110z" />
    <glyph glyph-name="tbar" unicode="&#x167;" horiz-adv-x="341" 
d="M190 488h121v-101h-121v-64h121v-87h-121v-84c0 -44 17 -61 54 -61c26 0 60 5 81 10l3 -101c-20 -5 -62 -12 -94 -12c-113 0 -161 46 -161 169v79h-62v87h62v64h-62v101h64l17 130h98v-130z" />
    <glyph glyph-name="Utilde" unicode="&#x168;" horiz-adv-x="553" 
d="M498 655v-444c0 -141 -70 -223 -221 -223c-149 0 -221 79 -221 222v445h120v-454c0 -69 36 -105 101 -105c64 0 101 36 101 105v454h120zM422 835v-87s-37 -34 -85 -34c-44 0 -82 28 -122 28c-35 0 -84 -28 -84 -28v87s37 34 86 34c54 0 84 -28 122 -28c34 0 83 28 83 28
z" />
    <glyph glyph-name="utilde" unicode="&#x169;" horiz-adv-x="460" 
d="M407 0h-108v66c-36 -54 -78 -78 -124 -78c-74 0 -122 51 -122 170v330h117v-316c0 -55 17 -75 42 -75c26 0 55 21 79 59v332h116v-488zM365 700v-88s-35 -34 -83 -34c-42 0 -68 28 -107 28c-34 0 -81 -28 -81 -28v88s35 34 83 34c53 0 71 -29 107 -29c34 0 81 29 81 29z
" />
    <glyph glyph-name="Umacron" unicode="&#x16a;" horiz-adv-x="553" 
d="M498 655v-444c0 -141 -70 -223 -221 -223c-149 0 -221 79 -221 222v445h120v-454c0 -69 36 -105 101 -105c64 0 101 36 101 105v454h120zM405 711h-257v95h257v-95z" />
    <glyph glyph-name="umacron" unicode="&#x16b;" horiz-adv-x="460" 
d="M407 0h-108v66c-36 -54 -78 -78 -124 -78c-74 0 -122 51 -122 170v330h117v-316c0 -55 17 -75 42 -75c26 0 55 21 79 59v332h116v-488zM348 592h-237v95h237v-95z" />
    <glyph glyph-name="Ubreve" unicode="&#x16c;" horiz-adv-x="553" 
d="M498 655v-444c0 -141 -70 -223 -221 -223c-149 0 -221 79 -221 222v445h120v-454c0 -69 36 -105 101 -105c64 0 101 36 101 105v454h120zM422 858v-99s-63 -55 -145 -55c-84 0 -146 55 -146 55v99s68 -63 146 -63c76 0 145 63 145 63z" />
    <glyph glyph-name="ubreve" unicode="&#x16d;" horiz-adv-x="460" 
d="M407 0h-108v66c-36 -54 -78 -78 -124 -78c-74 0 -122 51 -122 170v330h117v-316c0 -55 17 -75 42 -75c26 0 55 21 79 59v332h116v-488zM362 708v-98s-42 -57 -132 -57c-89 0 -132 57 -132 57v98s51 -65 132 -65s132 65 132 65z" />
    <glyph glyph-name="Uring" unicode="&#x16e;" horiz-adv-x="553" 
d="M498 655v-444c0 -141 -70 -223 -221 -223c-149 0 -221 79 -221 222v445h120v-454c0 -69 36 -105 101 -105c64 0 101 36 101 105v454h120zM277 893c77 0 125 -37 125 -111c0 -73 -47 -111 -125 -111s-126 38 -126 111c0 74 47 111 126 111zM276 822c-27 0 -38 -16 -38 -39
s11 -38 38 -38c28 0 39 15 39 38s-11 39 -39 39z" />
    <glyph glyph-name="uring" unicode="&#x16f;" horiz-adv-x="460" 
d="M407 0h-108v66c-36 -54 -78 -78 -124 -78c-74 0 -122 51 -122 170v330h117v-316c0 -55 17 -75 42 -75c26 0 55 21 79 59v332h116v-488zM230 745c77 0 124 -38 124 -108s-46 -109 -124 -109c-76 0 -123 39 -123 109s46 108 123 108zM230 677c-27 0 -39 -15 -39 -39
c0 -23 12 -39 39 -39s39 16 39 39c0 24 -12 39 -39 39z" />
    <glyph glyph-name="Uhungarumlaut" unicode="&#x170;" horiz-adv-x="553" 
d="M498 655v-444c0 -141 -70 -223 -221 -223c-149 0 -221 79 -221 222v445h120v-454c0 -69 36 -105 101 -105c64 0 101 36 101 105v454h120zM231 708h-97l62 144h115zM396 708h-97l63 144h114z" />
    <glyph glyph-name="uhungarumlaut" unicode="&#x171;" horiz-adv-x="460" 
d="M407 0h-108v66c-36 -54 -78 -78 -124 -78c-74 0 -122 51 -122 170v330h117v-316c0 -55 17 -75 42 -75c26 0 55 21 79 59v332h116v-488zM189 546h-95l65 155h115zM350 546h-95l66 155h114z" />
    <glyph glyph-name="Uogonek" unicode="&#x172;" horiz-adv-x="553" 
d="M498 655v-444c0 -99 -38 -174 -108 -201c-52 -19 -71 -49 -71 -77v-7c0 -22 11 -31 37 -31c9 0 21 1 38 4v-88c-30 -7 -48 -8 -63 -8c-73 0 -109 35 -109 85v11c0 33 18 65 49 89c-148 4 -215 83 -215 222v445h120v-454c0 -69 36 -105 101 -105c64 0 101 36 101 105v454
h120z" />
    <glyph glyph-name="uogonek" unicode="&#x173;" horiz-adv-x="462" 
d="M407 0h-29c-36 -16 -50 -43 -50 -67v-7c0 -22 11 -31 37 -31c9 0 20 1 37 4v-88c-29 -7 -48 -8 -63 -8c-73 0 -108 35 -108 85v11c0 40 26 80 68 103v64c-36 -54 -78 -78 -124 -78c-74 0 -122 52 -122 170v330h117v-316c0 -55 17 -75 42 -75c26 0 55 21 79 59v332h116
v-488z" />
    <glyph glyph-name="Wcircumflex" unicode="&#x174;" horiz-adv-x="832" 
d="M675 0h-147l-111 526l-111 -526h-147l-143 655h126l95 -532l109 532h141l110 -531l94 531h126zM561 801v-88l-145 53l-146 -53v88l146 66z" />
    <glyph glyph-name="wcircumflex" unicode="&#x175;" horiz-adv-x="671" 
d="M549 0h-133l-81 375l-81 -375h-134l-109 488h123l61 -375l74 375h132l74 -375l61 375h123zM471 630v-89l-135 68l-136 -68v89l136 79z" />
    <glyph glyph-name="Ycircumflex" unicode="&#x176;" horiz-adv-x="513" 
d="M316 226v-226h-120v226l-189 429h135l115 -313l116 313h132zM402 801v-88l-145 53l-146 -53v88l146 66z" />
    <glyph glyph-name="ycircumflex" unicode="&#x177;" horiz-adv-x="445" 
d="M233 -185h-114l59 185h-44l-130 488h127l82 -401l108 401h121zM358 630v-89l-135 68l-136 -68v89l136 79z" />
    <glyph glyph-name="Ydieresis" unicode="&#x178;" horiz-adv-x="513" 
d="M316 226v-226h-120v226l-189 429h135l115 -313l116 313h132zM161 847c42 0 66 -20 66 -57v-26c0 -35 -24 -56 -66 -56c-41 0 -66 21 -66 56v26c0 37 25 57 66 57zM351 847c43 0 66 -20 66 -57v-26c0 -35 -23 -56 -66 -56c-40 0 -66 21 -66 56v26c0 37 26 57 66 57z" />
    <glyph glyph-name="Zacute" unicode="&#x179;" horiz-adv-x="476" 
d="M441 563l-270 -454h270v-109h-413v91l271 455h-264v109h406v-92zM269 708h-95l75 136h122z" />
    <glyph glyph-name="zacute" unicode="&#x17a;" horiz-adv-x="395" 
d="M366 404l-196 -301h196v-103h-341v84l195 302h-190v102h336v-84zM241 546h-94l81 148h120z" />
    <glyph glyph-name="Zdotaccent" unicode="&#x17b;" horiz-adv-x="476" 
d="M441 563l-270 -454h270v-109h-413v91l271 455h-264v109h406v-92zM238 853c45 0 70 -20 70 -60v-26c0 -38 -25 -60 -70 -60c-44 0 -70 22 -70 60v26c0 40 26 60 70 60z" />
    <glyph glyph-name="zdotaccent" unicode="&#x17c;" horiz-adv-x="395" 
d="M366 404l-196 -301h196v-103h-341v84l195 302h-190v102h336v-84zM202 706c45 0 70 -20 70 -59v-27c0 -37 -25 -59 -70 -59c-43 0 -69 22 -69 59v27c0 39 26 59 69 59z" />
    <glyph glyph-name="Zcaron" unicode="&#x17d;" horiz-adv-x="476" 
d="M441 563l-270 -454h270v-109h-413v91l271 455h-264v109h406v-92zM383 777l-145 -66l-146 66v88l146 -53l145 53v-88z" />
    <glyph glyph-name="zcaron" unicode="&#x17e;" horiz-adv-x="395" 
d="M366 404l-196 -301h196v-103h-341v84l195 302h-190v102h336v-84zM338 618l-135 -79l-136 79v89l136 -68l135 68v-89z" />
    <glyph glyph-name="longs" unicode="&#x17f;" horiz-adv-x="256" 
d="M243 695c27 0 61 -4 78 -8v-98c-23 4 -42 6 -64 6c-37 0 -58 -19 -58 -70v-525h-116v387h-64v101h64v42c0 108 57 165 160 165z" />
    <glyph glyph-name="florin" unicode="&#x192;" horiz-adv-x="323" 
d="M238 613c27 0 61 -5 78 -9v-97c-23 3 -42 5 -64 5c-37 0 -58 -20 -58 -69v-37h92v-101h-92v-490h-116v490h-64v101h64v41c0 109 57 166 160 166z" />
    <glyph glyph-name="AEacute" unicode="&#x1fc;" horiz-adv-x="762" 
d="M716 545h-245v-158h225v-109h-225v-168h245v-110h-365v143h-165l-56 -143h-127l271 655h442v-110zM227 252h125v311zM555 708h-95l75 136h122z" />
    <glyph glyph-name="aeacute" unicode="&#x1fd;" horiz-adv-x="662" 
d="M459 500c106 0 169 -61 169 -184v-110h-241v-39c0 -53 25 -74 85 -74c42 0 100 9 141 17l-1 -103c-48 -9 -112 -19 -150 -19c-96 0 -144 34 -166 98c-36 -64 -85 -98 -141 -98c-75 0 -124 55 -124 154v26c0 86 56 145 153 145c21 0 59 -5 86 -10v39c0 40 -19 57 -71 57
c-33 0 -91 -8 -132 -16v100c49 9 109 17 142 17c63 0 106 -19 128 -54c24 34 69 54 122 54zM449 398c-38 0 -61 -22 -62 -65v-37h124v31c0 48 -23 71 -62 71zM210 224c-40 0 -61 -23 -61 -63v-8c0 -39 17 -59 41 -59c26 0 56 22 80 65v60c-21 4 -46 5 -60 5zM387 546h-94
l81 148h120z" />
    <glyph glyph-name="Oslashacute" unicode="&#x1fe;" horiz-adv-x="553" 
d="M541 705l-70 -127c21 -35 31 -79 31 -132v-237c0 -138 -68 -221 -226 -221c-48 0 -87 8 -118 22l-35 -60h-114l72 127c-21 35 -30 80 -30 132v237c0 140 68 221 225 221c48 0 87 -8 118 -23l34 61h113zM276 559c-71 0 -106 -36 -106 -104v-208c0 -10 1 -20 2 -29l176 320
c-17 14 -42 21 -72 21zM381 436l-177 -320c17 -14 42 -20 72 -20c70 0 106 36 106 105v208c0 9 0 19 -1 27zM306 708h-95l75 136h122z" />
    <glyph glyph-name="oslashacute" unicode="&#x1ff;" horiz-adv-x="451" 
d="M477 538l-86 -129c12 -27 17 -58 17 -94v-142c0 -118 -58 -185 -182 -185c-38 0 -69 7 -93 19l-39 -58h-119l85 128c-11 27 -17 59 -17 96v142c0 118 59 185 183 185c37 0 69 -7 94 -20l38 58h119zM264 546h-94l81 148h120zM226 398c-42 0 -66 -26 -66 -77v-123l115 180
c-11 13 -28 20 -49 20zM291 286l-115 -178c11 -13 28 -19 49 -19c42 0 66 27 66 78v119z" />
    <glyph glyph-name="Scommaaccent" unicode="&#x218;" horiz-adv-x="459" 
d="M236 667c40 0 99 -7 152 -16l-2 -109c-50 9 -110 17 -147 17c-63 0 -86 -25 -86 -70v-21c0 -36 11 -50 63 -67l88 -29c93 -31 128 -78 128 -179v-19c0 -120 -62 -186 -228 -186c-36 0 -96 9 -154 21l1 111c54 -13 114 -22 150 -22c84 0 112 26 112 72v26
c0 35 -14 53 -53 66l-97 32c-97 32 -130 75 -130 178v10c0 119 60 185 203 185zM230 -56c41 0 61 -18 61 -50v-24c0 -18 -3 -32 -8 -51l-25 -74h-71l15 80c-19 7 -30 22 -30 46v23c0 32 22 50 58 50z" />
    <glyph glyph-name="scommaaccent" unicode="&#x219;" horiz-adv-x="379" 
d="M205 500c37 0 68 -4 114 -13l-2 -102c-42 9 -76 14 -103 14c-52 0 -69 -15 -69 -40v-6c0 -17 7 -25 29 -35l92 -41c60 -27 88 -69 88 -123v-20c0 -95 -51 -146 -177 -146c-38 0 -84 8 -138 20l6 106c47 -13 97 -22 131 -22c48 0 63 13 63 40v6c0 21 -7 33 -30 43l-87 38
c-64 27 -93 68 -93 122v13c2 96 53 146 176 146zM191 -56c41 0 61 -18 61 -50v-24c0 -18 -3 -32 -8 -51l-25 -74h-71l15 80c-19 7 -30 22 -30 46v23c0 32 22 50 58 50z" />
    <glyph glyph-name="uni021A" unicode="&#x21a;" horiz-adv-x="522" 
d="M500 545h-180v-545h-119v545h-180v110h479v-110zM259 -56c41 0 61 -18 61 -50v-24c0 -18 -3 -32 -8 -51l-25 -74h-71l15 80c-19 7 -30 22 -30 46v23c0 32 22 50 58 50z" />
    <glyph glyph-name="uni021B" unicode="&#x21b;" horiz-adv-x="341" 
d="M190 488h121v-101h-121v-235c0 -44 17 -61 54 -61c24 0 61 5 81 10l3 -101c-19 -5 -62 -12 -94 -12c-112 0 -161 46 -161 169v230h-62v101h64l17 130h98v-130zM180 -56c41 0 61 -18 61 -50v-24c0 -18 -3 -32 -8 -51l-25 -74h-71l15 80c-19 7 -30 22 -30 46v23
c0 32 22 50 58 50z" />
    <glyph glyph-name="dotlessj" unicode="&#x237;" horiz-adv-x="222" 
d="M170 488v-509c0 -122 -47 -176 -161 -176c-31 0 -62 4 -78 6v101c12 -2 41 -4 62 -4c43 0 60 18 60 65v517h117z" />
    <glyph glyph-name="uni02BC" unicode="&#x2bc;" horiz-adv-x="197" 
d="M105 695c41 0 61 -18 61 -50v-24c0 -18 -3 -32 -8 -51l-25 -74h-71l15 80c-19 7 -30 22 -30 46v23c0 32 22 50 58 50z" />
    <glyph glyph-name="circumflex" unicode="&#x2c6;" horiz-adv-x="331" 
d="M301 630v-89l-135 68l-136 -68v89l136 79z" />
    <glyph glyph-name="caron" unicode="&#x2c7;" horiz-adv-x="331" 
d="M301 618l-135 -79l-136 79v89l136 -68l135 68v-89z" />
    <glyph glyph-name="uni02C9" unicode="&#x2c9;" horiz-adv-x="297" 
d="M267 592h-237v95h237v-95z" />
    <glyph glyph-name="breve" unicode="&#x2d8;" horiz-adv-x="324" 
d="M294 708v-98s-42 -57 -132 -57c-89 0 -132 57 -132 57v98s51 -65 132 -65s132 65 132 65z" />
    <glyph glyph-name="dotaccent" unicode="&#x2d9;" horiz-adv-x="199" 
d="M99 706c45 0 70 -20 70 -59v-27c0 -37 -25 -59 -70 -59c-43 0 -69 22 -69 59v27c0 39 26 59 69 59z" />
    <glyph glyph-name="ring" unicode="&#x2da;" horiz-adv-x="307" 
d="M153 745c77 0 124 -38 124 -108s-46 -109 -124 -109c-76 0 -123 39 -123 109s46 108 123 108zM153 677c-27 0 -39 -15 -39 -39c0 -23 12 -39 39 -39s39 16 39 39c0 24 -12 39 -39 39z" />
    <glyph glyph-name="ogonek" unicode="&#x2db;" horiz-adv-x="232" 
d="M168 26l32 -19c-53 -14 -73 -46 -73 -74v-7c0 -22 11 -31 37 -31c9 0 21 1 37 4v-88c-29 -7 -47 -8 -62 -8c-73 0 -109 35 -109 85v11c0 58 58 114 138 127z" />
    <glyph glyph-name="tilde" unicode="&#x2dc;" horiz-adv-x="331" 
d="M301 700v-88s-35 -34 -83 -34c-42 0 -68 28 -107 28c-34 0 -81 -28 -81 -28v88s35 34 83 34c53 0 71 -29 107 -29c34 0 81 29 81 29z" />
    <glyph glyph-name="hungarumlaut" unicode="&#x2dd;" horiz-adv-x="401" 
d="M125 546h-95l65 155h115zM286 546h-95l66 155h114z" />
    <glyph glyph-name="uni0312" unicode="&#x312;" horiz-adv-x="0" 
d="M134 757l-15 -80c20 -8 30 -23 30 -47v-23c0 -31 -21 -50 -58 -50c-41 0 -61 19 -61 50v24c0 19 3 32 9 51l25 75h70z" />
    <glyph glyph-name="uni0313" unicode="&#x313;" horiz-adv-x="0" 
d="M88 695c41 0 61 -18 61 -50v-24c0 -18 -3 -32 -8 -51l-25 -74h-71l15 80c-19 7 -30 22 -30 46v23c0 32 22 50 58 50z" />
    <glyph glyph-name="uni0326" unicode="&#x326;" horiz-adv-x="0" 
d="M88 -56c41 0 61 -18 61 -50v-24c0 -18 -3 -32 -8 -51l-25 -74h-71l15 80c-19 7 -30 22 -30 46v23c0 32 22 50 58 50z" />
    <glyph glyph-name="uni037E" unicode="&#x37e;" horiz-adv-x="217" 
d="M108 480c46 0 71 -21 71 -61v-27c0 -38 -25 -60 -71 -60s-71 22 -71 60v27c0 40 25 61 71 61zM107 136c45 0 70 -21 70 -59v-30c0 -20 -2 -36 -7 -52l-49 -156h-83l39 155c-25 7 -39 26 -39 55v28c0 37 24 59 69 59z" />
    <glyph glyph-name="tonos" unicode="&#x384;" horiz-adv-x="227" 
d="M126 544h-96l40 160h127z" />
    <glyph glyph-name="dieresistonos" unicode="&#x385;" horiz-adv-x="388" 
d="M239 723h-96l40 160h127zM93 692c36 0 65 -22 65 -58v-22c0 -35 -29 -57 -65 -57c-34 0 -63 22 -63 57v22c0 36 29 58 63 58zM293 692c35 0 65 -22 65 -58v-22c0 -35 -30 -57 -65 -57c-34 0 -63 22 -63 57v22c0 36 29 58 63 58z" />
    <glyph glyph-name="Alphatonos" unicode="&#x386;" horiz-adv-x="582" 
d="M579 0h-128l-35 137h-209l-35 -137h-123l194 655h142zM231 239h161l-80 316zM124 495h-96l40 160h127z" />
    <glyph glyph-name="anoteleia" unicode="&#x387;" horiz-adv-x="217" 
d="M108 336c46 0 71 -21 71 -61v-27c0 -38 -25 -60 -71 -60s-71 22 -71 60v27c0 40 25 61 71 61z" />
    <glyph glyph-name="Epsilontonos" unicode="&#x388;" horiz-adv-x="566" 
d="M520 545h-245v-158h225v-109h-225v-168h245v-110h-365v655h365v-110zM52 495h-96l40 160h127z" />
    <glyph glyph-name="Etatonos" unicode="&#x389;" horiz-adv-x="557" 
d="M501 0h-119v283h-206v-283h-120v655h120v-264h206v264h119v-655zM-50 495h-96l40 160h127z" />
    <glyph glyph-name="Iotatonos" unicode="&#x38a;" horiz-adv-x="331" 
d="M275 0h-120v655h120v-655zM52 495h-96l40 160h127z" />
    <glyph glyph-name="Omicrontonos" unicode="&#x38c;" horiz-adv-x="629" 
d="M352 667c157 0 226 -81 226 -221v-237c0 -138 -67 -221 -226 -221c-158 0 -225 83 -225 221v237c0 140 68 221 225 221zM352 559c-71 0 -106 -36 -106 -104v-254c0 -69 36 -105 106 -105s106 36 106 105v253c0 68 -36 105 -106 105zM72 495h-96l40 160h127z" />
    <glyph glyph-name="Upsilontonos" unicode="&#x38e;" horiz-adv-x="699" 
d="M96 495h-96l40 160h127zM502 226v-226h-120v226l-189 429h135l115 -313l116 313h132z" />
    <glyph glyph-name="Omegatonos" unicode="&#x38f;" horiz-adv-x="628" 
d="M351 667c153 0 227 -80 227 -218v-188c0 -65 -18 -115 -63 -151h72v-110h-206v105h6c43 0 71 40 71 106v247c0 67 -38 103 -107 103c-68 0 -106 -36 -106 -103v-247c0 -66 28 -106 71 -106h6v-105h-206v110h72c-45 36 -62 87 -62 151v188c0 138 72 218 225 218zM72 495
h-96l40 160h127z" />
    <glyph glyph-name="iotadieresistonos" unicode="&#x390;" horiz-adv-x="222" 
d="M170 0h-117v488h117v-488zM157 723h-96l40 160h127zM11 692c36 0 65 -22 65 -58v-22c0 -35 -29 -57 -65 -57c-34 0 -63 22 -63 57v22c0 36 29 58 63 58zM211 692c35 0 65 -22 65 -58v-22c0 -35 -30 -57 -65 -57c-34 0 -63 22 -63 57v22c0 36 29 58 63 58z" />
    <glyph glyph-name="Alpha" unicode="&#x391;" horiz-adv-x="536" 
d="M533 0h-128l-35 137h-209l-35 -137h-123l194 655h142zM185 239h161l-80 316z" />
    <glyph glyph-name="Beta" unicode="&#x392;" horiz-adv-x="513" 
d="M241 667c149 0 223 -70 223 -163v-18c0 -65 -31 -118 -98 -144c77 -15 124 -71 124 -149v-20c0 -108 -71 -185 -244 -185c-57 0 -99 1 -190 5v669c50 2 128 5 185 5zM232 563c-18 0 -35 0 -57 -2v-179h73c64 0 96 33 96 87v16c0 50 -31 78 -112 78zM175 282v-185
c37 -3 47 -4 73 -4c87 0 122 35 122 89v18c0 52 -35 82 -117 82h-78z" />
    <glyph glyph-name="Gamma" unicode="&#x393;" horiz-adv-x="438" 
d="M416 545h-240v-545h-120v655h360v-110z" />
    <glyph glyph-name="uni0394" unicode="&#x394;" horiz-adv-x="527" 
d="M511 74v-74h-494v73l177 582h139zM142 106h237l-116 449z" />
    <glyph glyph-name="Epsilon" unicode="&#x395;" horiz-adv-x="467" 
d="M421 545h-245v-158h225v-109h-225v-168h245v-110h-365v655h365v-110z" />
    <glyph glyph-name="Zeta" unicode="&#x396;" horiz-adv-x="476" 
d="M441 563l-270 -454h270v-109h-413v91l271 455h-264v109h406v-92z" />
    <glyph glyph-name="Eta" unicode="&#x397;" horiz-adv-x="557" 
d="M501 0h-119v283h-206v-283h-120v655h120v-264h206v264h119v-655z" />
    <glyph glyph-name="Theta" unicode="&#x398;" horiz-adv-x="553" 
d="M276 667c157 0 226 -81 226 -221v-237c0 -138 -67 -221 -226 -221c-158 0 -225 83 -225 221v237c0 140 68 221 225 221zM276 559c-71 0 -106 -36 -106 -104v-254c0 -69 36 -105 106 -105s106 36 106 105v253c0 68 -36 105 -106 105zM342 284h-131v96h131v-96z" />
    <glyph glyph-name="Iota" unicode="&#x399;" horiz-adv-x="231" 
d="M176 0h-120v655h120v-655z" />
    <glyph glyph-name="Kappa" unicode="&#x39a;" horiz-adv-x="533" 
d="M278 335l259 -335h-146l-215 289v-289h-120v655h120v-295l212 295h127z" />
    <glyph glyph-name="Lambda" unicode="&#x39b;" horiz-adv-x="531" 
d="M527 0h-128l-135 555l-137 -555h-124l191 655h141z" />
    <glyph glyph-name="Mu" unicode="&#x39c;" horiz-adv-x="680" 
d="M509 456l-104 -384h-130l-104 384l-5 -456h-114l6 655h155l128 -465l128 465h153l6 -655h-113z" />
    <glyph glyph-name="Nu" unicode="&#x39d;" horiz-adv-x="559" 
d="M172 463v-463h-116v655h163l169 -463v463h115v-655h-159z" />
    <glyph glyph-name="Xi" unicode="&#x39e;" horiz-adv-x="472" 
d="M437 541h-403v114h403v-114zM373 276h-275v113h275v-113zM437 0h-403v114h403v-114z" />
    <glyph glyph-name="Omicron" unicode="&#x39f;" horiz-adv-x="553" 
d="M276 667c157 0 226 -81 226 -221v-237c0 -138 -67 -221 -226 -221c-158 0 -225 83 -225 221v237c0 140 68 221 225 221zM276 559c-71 0 -106 -36 -106 -104v-254c0 -69 36 -105 106 -105s106 36 106 105v253c0 68 -36 105 -106 105z" />
    <glyph glyph-name="Pi" unicode="&#x3a0;" horiz-adv-x="557" 
d="M501 0h-119v545h-206v-545h-120v655h445v-655z" />
    <glyph glyph-name="Rho" unicode="&#x3a1;" horiz-adv-x="499" 
d="M238 667c165 1 240 -74 240 -191v-22c0 -127 -75 -204 -227 -204c-21 0 -44 2 -75 7v-257h-120v661c50 2 115 5 182 6zM238 563c-30 0 -46 -1 -63 -2v-199c31 -4 50 -6 67 -6c78 0 116 35 116 102v15c0 58 -35 90 -120 90z" />
    <glyph glyph-name="Sigma" unicode="&#x3a3;" horiz-adv-x="456" 
d="M433 545h-264l142 -191v-47l-145 -197h267v-110h-406v92l169 239l-169 232v92h406v-110z" />
    <glyph glyph-name="Tau" unicode="&#x3a4;" horiz-adv-x="522" 
d="M500 545h-180v-545h-119v545h-180v110h479v-110z" />
    <glyph glyph-name="Upsilon" unicode="&#x3a5;" horiz-adv-x="513" 
d="M316 226v-226h-120v226l-189 429h135l115 -313l116 313h132z" />
    <glyph glyph-name="Phi" unicode="&#x3a6;" horiz-adv-x="720" 
d="M420 695v-78c13 2 26 2 38 2c157 0 221 -64 221 -209v-137c0 -143 -62 -209 -220 -209c-10 0 -24 1 -39 2v-78h-120v78c-15 -1 -27 -2 -40 -2c-150 0 -219 59 -219 209v137c0 139 57 209 221 209c12 0 25 -1 38 -2v78h120zM262 515c-74 0 -101 -28 -101 -95v-157
c0 -69 30 -96 101 -96c13 0 26 0 39 2v343c-13 2 -26 3 -39 3zM458 515c-13 0 -26 0 -38 -2v-344c12 -2 25 -2 38 -2c73 0 101 29 101 96v157c0 69 -29 95 -101 95z" />
    <glyph glyph-name="Chi" unicode="&#x3a7;" horiz-adv-x="531" 
d="M338 335l190 -335h-142l-122 239l-124 -239h-137l192 336l-181 319h140l115 -223l114 223h135z" />
    <glyph glyph-name="Psi" unicode="&#x3a8;" horiz-adv-x="695" 
d="M645 655v-307c0 -124 -63 -190 -182 -190h-55v-158h-119v158h-56c-120 0 -183 65 -183 190v307h120v-317c0 -49 25 -73 63 -73h56v390h119v-390h55c38 0 63 24 63 73v317h119z" />
    <glyph glyph-name="uni03A9" unicode="&#x3a9;" horiz-adv-x="554" 
d="M276 667c153 0 227 -80 227 -218v-188c0 -65 -18 -115 -63 -151h72v-110h-206v105h6c43 0 71 40 71 106v247c0 67 -38 103 -107 103c-68 0 -106 -36 -106 -103v-247c0 -66 28 -106 71 -106h6v-105h-206v110h72c-45 36 -62 87 -62 151v188c0 138 72 218 225 218z" />
    <glyph glyph-name="Iotadieresis" unicode="&#x3aa;" horiz-adv-x="231" 
d="M176 0h-120v655h120v-655zM20 847c42 0 66 -20 66 -57v-26c0 -35 -24 -56 -66 -56c-41 0 -66 21 -66 56v26c0 37 25 57 66 57zM210 847c43 0 66 -20 66 -57v-26c0 -35 -23 -56 -66 -56c-40 0 -66 21 -66 56v26c0 37 26 57 66 57z" />
    <glyph glyph-name="Upsilondieresis" unicode="&#x3ab;" horiz-adv-x="513" 
d="M161 847c42 0 66 -20 66 -57v-26c0 -35 -24 -56 -66 -56c-41 0 -66 21 -66 56v26c0 37 25 57 66 57zM351 847c43 0 66 -20 66 -57v-26c0 -35 -23 -56 -66 -56c-40 0 -66 21 -66 56v26c0 37 26 57 66 57zM316 226v-226h-120v226l-189 429h135l115 -313l116 313h132z" />
    <glyph glyph-name="alphatonos" unicode="&#x3ac;" horiz-adv-x="455" 
d="M179 500c45 0 87 -27 115 -51v39h108v-488h-109v70c-35 -52 -79 -82 -126 -82c-78 0 -124 52 -124 167v174c0 111 50 171 136 171zM214 394c-34 0 -54 -21 -54 -78v-148c0 -56 17 -74 43 -74c28 0 58 23 83 66v199c-21 21 -50 35 -72 35zM275 544h-96l40 160h127z" />
    <glyph glyph-name="epsilontonos" unicode="&#x3ad;" horiz-adv-x="361" 
d="M217 500c37 0 67 -3 114 -11l-1 -98c-39 7 -74 13 -114 13c-50 0 -70 -19 -70 -50v-9c0 -31 22 -52 74 -52h82v-93h-94c-49 0 -68 -19 -68 -50v-6c0 -33 24 -54 78 -54c39 0 72 4 112 11l1 -101c-49 -8 -76 -12 -114 -12c-136 0 -190 51 -190 140v8c0 49 33 96 85 112
c-50 19 -77 61 -77 108v10c0 80 55 134 182 134zM226 544h-96l40 160h127z" />
    <glyph glyph-name="etatonos" unicode="&#x3ae;" horiz-adv-x="465" 
d="M287 500c79 0 125 -55 125 -170v-515h-117v503c0 55 -17 73 -45 73c-27 0 -58 -22 -80 -60v-331h-117v488h108v-67c35 54 78 79 126 79zM277 544h-96l40 160h127z" />
    <glyph glyph-name="iotatonos" unicode="&#x3af;" horiz-adv-x="222" 
d="M170 0h-117v488h117v-488zM159 544h-96l40 160h127z" />
    <glyph glyph-name="upsilondieresistonos" unicode="&#x3b0;" horiz-adv-x="460" 
d="M407 488v-313c0 -120 -58 -187 -177 -187s-177 67 -177 187v313h117v-325c0 -47 23 -74 60 -74s60 27 60 74v325h117zM275 723h-96l40 160h127zM129 692c36 0 65 -22 65 -58v-22c0 -35 -29 -57 -65 -57c-34 0 -63 22 -63 57v22c0 36 29 58 63 58zM329 692
c35 0 65 -22 65 -58v-22c0 -35 -30 -57 -65 -57c-34 0 -63 22 -63 57v22c0 36 29 58 63 58z" />
    <glyph glyph-name="alpha" unicode="&#x3b1;" horiz-adv-x="455" 
d="M179 500c45 0 87 -27 115 -51v39h108v-488h-109v70c-35 -52 -79 -82 -126 -82c-78 0 -124 52 -124 167v174c0 111 50 171 136 171zM214 394c-34 0 -54 -21 -54 -78v-148c0 -56 17 -74 43 -74c28 0 58 23 83 66v199c-21 21 -50 35 -72 35z" />
    <glyph glyph-name="beta" unicode="&#x3b2;" horiz-adv-x="452" 
d="M218 695c103 0 165 -58 165 -147v-39c0 -49 -22 -90 -58 -110c58 -20 91 -68 91 -153v-85c0 -113 -54 -173 -145 -173c-34 0 -72 15 -101 32v-205h-117v692c0 133 46 188 165 188zM219 595c-34 0 -49 -16 -49 -68v-407c23 -17 51 -26 71 -26c35 0 58 26 58 78v74
c0 61 -20 81 -51 81h-42v91h2c52 0 60 9 60 75v47c0 38 -18 55 -49 55z" />
    <glyph glyph-name="gamma" unicode="&#x3b3;" horiz-adv-x="446" 
d="M281 0v-185h-116v185l-161 488h123l96 -373l96 373h123z" />
    <glyph glyph-name="delta" unicode="&#x3b4;" horiz-adv-x="447" 
d="M403 683v-100l-130 4c76 -39 127 -132 127 -237v-175c0 -117 -59 -187 -180 -187c-132 0 -179 52 -179 175v115c0 115 53 173 130 173c42 0 84 -26 114 -68v11c0 103 -94 192 -190 216v73h308zM202 345c-28 0 -45 -19 -45 -78v-113c0 -43 22 -65 63 -65c42 0 63 22 63 65
v130c-23 39 -52 61 -81 61z" />
    <glyph glyph-name="epsilon" unicode="&#x3b5;" horiz-adv-x="361" 
d="M217 500c37 0 67 -3 114 -11l-1 -98c-39 7 -74 13 -114 13c-50 0 -70 -19 -70 -50v-9c0 -31 22 -52 74 -52h82v-93h-94c-49 0 -68 -19 -68 -50v-6c0 -33 24 -54 78 -54c39 0 72 4 112 11l1 -101c-49 -8 -76 -12 -114 -12c-136 0 -190 51 -190 140v8c0 49 33 96 85 112
c-50 19 -77 61 -77 108v10c0 80 55 134 182 134z" />
    <glyph glyph-name="zeta" unicode="&#x3b6;" horiz-adv-x="373" 
d="M363 600l-104 -138c-76 -101 -108 -187 -108 -271c0 -64 31 -91 87 -91c109 0 126 -14 126 -97v-133h-111v95c0 26 -8 34 -32 34h-17c-112 0 -170 66 -170 191c0 95 44 216 133 314l66 79h-202v100h332v-83z" />
    <glyph glyph-name="eta" unicode="&#x3b7;" horiz-adv-x="465" 
d="M287 500c79 0 125 -55 125 -170v-515h-117v503c0 55 -17 73 -45 73c-27 0 -58 -22 -80 -60v-331h-117v488h108v-67c35 54 78 79 126 79z" />
    <glyph glyph-name="theta" unicode="&#x3b8;" horiz-adv-x="469" 
d="M235 695c124 0 184 -66 184 -185v-337c0 -118 -60 -185 -184 -185s-184 66 -184 185v337c0 119 60 185 184 185zM234 593c-42 0 -67 -26 -67 -77v-115h134v116c0 51 -25 76 -67 76zM167 300v-133c0 -51 25 -78 67 -78s67 27 67 78v133h-134z" />
    <glyph glyph-name="iota" unicode="&#x3b9;" horiz-adv-x="222" 
d="M170 0h-117v488h117v-488z" />
    <glyph glyph-name="kappa" unicode="&#x3ba;" horiz-adv-x="443" 
d="M273 258l172 -258h-137l-138 219v-219h-117v488h117v-205l134 205h132z" />
    <glyph glyph-name="lambda" unicode="&#x3bb;" horiz-adv-x="440" 
d="M442 0h-125l-107 402l-86 -402h-120l129 488h43l-61 195h118z" />
    <glyph glyph-name="uni03BC" unicode="&#x3bc;" horiz-adv-x="460" 
d="M408 0h-108v66c-26 -39 -58 -62 -89 -66c-14 -3 -30 -2 -43 2v-187h-114v673h117v-316c0 -55 17 -75 42 -75c26 0 55 21 79 59v332h116v-488z" />
    <glyph glyph-name="nu" unicode="&#x3bd;" horiz-adv-x="441" 
d="M290 0h-140l-146 488h123l93 -401l94 401h123z" />
    <glyph glyph-name="xi" unicode="&#x3be;" horiz-adv-x="373" 
d="M351 583h-24c-128 0 -164 -34 -164 -103v-21c0 -40 23 -58 80 -58h55v-97h-65c-54 0 -77 -23 -77 -74v-64c0 -43 25 -66 80 -66c111 0 129 -16 129 -104v-126h-111v92c0 29 -9 38 -31 38h-10c-116 0 -171 57 -171 151v75c0 58 26 106 83 126c-48 14 -77 51 -77 96v21
c0 52 26 94 94 114h-117v100h326v-100z" />
    <glyph glyph-name="omicron" unicode="&#x3bf;" horiz-adv-x="451" 
d="M225 500c125 0 183 -67 183 -185v-142c0 -118 -58 -185 -183 -185c-123 0 -182 66 -182 185v142c0 118 59 185 182 185zM226 398c-42 0 -66 -26 -66 -77v-154c0 -51 24 -78 66 -78c41 0 66 27 66 78v155c0 51 -25 76 -66 76z" />
    <glyph glyph-name="pi" unicode="&#x3c0;" horiz-adv-x="522" 
d="M497 387h-63v-249c0 -39 12 -49 33 -49c15 0 33 1 49 3v-97c-15 -4 -47 -7 -63 -7c-96 0 -136 46 -136 173v226h-126v-387h-116v387h-64v101h486v-101z" />
    <glyph glyph-name="rho" unicode="&#x3c1;" horiz-adv-x="450" 
d="M227 500c120 0 180 -60 180 -186v-153c0 -114 -53 -173 -140 -173c-34 0 -73 14 -102 32v-205h-117v498c0 121 58 187 179 187zM228 399c-39 0 -63 -27 -63 -74v-205c23 -17 49 -26 68 -26c37 0 58 25 58 78v153c0 50 -27 74 -63 74z" />
    <glyph glyph-name="sigma1" unicode="&#x3c2;" horiz-adv-x="377" 
d="M225 500c34 0 59 -3 110 -11l-2 -102c-35 6 -62 11 -94 11c-53 0 -79 -27 -79 -86v-125c0 -62 26 -87 82 -87c101 0 120 -15 120 -95v-135h-112v95c0 28 -7 34 -34 34h-16c-92 0 -157 69 -157 190v124c0 122 61 187 182 187z" />
    <glyph glyph-name="sigma" unicode="&#x3c3;" horiz-adv-x="461" 
d="M225 500c29 0 57 -5 81 -14l151 3v-102l-68 2c12 -22 18 -50 18 -83v-133c0 -116 -57 -185 -182 -185c-123 0 -182 66 -182 185v142c0 118 59 185 182 185zM226 398c-42 0 -66 -26 -66 -77v-154c0 -51 24 -78 66 -78c41 0 66 27 66 78v155c0 51 -25 76 -66 76z" />
    <glyph glyph-name="tau" unicode="&#x3c4;" horiz-adv-x="416" 
d="M396 378h-130v-378h-117v378h-130v110h377v-110z" />
    <glyph glyph-name="upsilon" unicode="&#x3c5;" horiz-adv-x="460" 
d="M407 488v-313c0 -120 -58 -187 -177 -187s-177 67 -177 187v313h117v-325c0 -47 23 -74 60 -74s60 27 60 74v325h117z" />
    <glyph glyph-name="phi" unicode="&#x3c6;" horiz-adv-x="659" 
d="M440 500c112 0 176 -61 176 -187v-126c0 -121 -59 -187 -178 -187h-44v-185h-117v185h-45c-119 0 -179 66 -179 187v301h117v-314c0 -49 24 -73 62 -73l45 -1v388c34 4 115 12 163 12zM438 398c-15 0 -31 -1 -44 -2v-296l44 1c39 0 62 23 62 71v155c0 49 -25 71 -62 71z
" />
    <glyph glyph-name="chi" unicode="&#x3c7;" horiz-adv-x="434" 
d="M286 253l152 -253h-134l-88 170l-85 -170h-134l150 251l-141 237h134l78 -153l78 153h131z" />
    <glyph glyph-name="psi" unicode="&#x3c8;" horiz-adv-x="674" 
d="M622 488v-301c0 -120 -60 -187 -180 -187h-46v-185h-117v185h-46c-120 0 -180 67 -180 187v301h117v-313c0 -48 24 -74 63 -74h46v387h117v-387h46c39 0 63 26 63 74v313h117z" />
    <glyph glyph-name="omega" unicode="&#x3c9;" horiz-adv-x="684" 
d="M631 488v-327c0 -120 -51 -173 -155 -173c-57 0 -111 37 -134 79c-23 -42 -77 -79 -134 -79c-104 0 -155 53 -155 173v327h117v-315c0 -56 20 -76 58 -76c36 0 57 20 57 79v282h114v-282c0 -59 21 -79 57 -79c39 0 59 20 59 76v315h116z" />
    <glyph glyph-name="iotadieresis" unicode="&#x3ca;" horiz-adv-x="222" 
d="M170 0h-117v488h117v-488zM15 700c42 0 66 -19 66 -56v-26c0 -34 -24 -55 -66 -55c-40 0 -65 21 -65 55v26c0 37 25 56 65 56zM206 700c42 0 66 -19 66 -56v-26c0 -34 -24 -55 -66 -55c-40 0 -65 21 -65 55v26c0 37 25 56 65 56z" />
    <glyph glyph-name="upsilondieresis" unicode="&#x3cb;" horiz-adv-x="460" 
d="M407 488v-313c0 -120 -58 -187 -177 -187s-177 67 -177 187v313h117v-325c0 -47 23 -74 60 -74s60 27 60 74v325h117zM133 700c42 0 66 -19 66 -56v-26c0 -34 -24 -55 -66 -55c-40 0 -65 21 -65 55v26c0 37 25 56 65 56zM324 700c42 0 66 -19 66 -56v-26
c0 -34 -24 -55 -66 -55c-40 0 -65 21 -65 55v26c0 37 25 56 65 56z" />
    <glyph glyph-name="omicrontonos" unicode="&#x3cc;" horiz-adv-x="451" 
d="M273 544h-96l40 160h127zM225 500c125 0 183 -67 183 -185v-142c0 -118 -58 -185 -183 -185c-123 0 -182 66 -182 185v142c0 118 59 185 182 185zM226 398c-42 0 -66 -26 -66 -77v-154c0 -51 24 -78 66 -78c41 0 66 27 66 78v155c0 51 -25 76 -66 76z" />
    <glyph glyph-name="upsilontonos" unicode="&#x3cd;" horiz-adv-x="460" 
d="M407 488v-313c0 -120 -58 -187 -177 -187s-177 67 -177 187v313h117v-325c0 -47 23 -74 60 -74s60 27 60 74v325h117zM277 544h-96l40 160h127z" />
    <glyph glyph-name="omegatonos" unicode="&#x3ce;" horiz-adv-x="684" 
d="M631 488v-327c0 -120 -51 -173 -155 -173c-57 0 -111 37 -134 79c-23 -42 -77 -79 -134 -79c-104 0 -155 53 -155 173v327h117v-315c0 -56 20 -76 58 -76c36 0 57 20 57 79v282h114v-282c0 -59 21 -79 57 -79c39 0 59 20 59 76v315h116zM389 544h-96l40 160h127z" />
    <glyph glyph-name="uni0401" unicode="&#x401;" horiz-adv-x="467" 
d="M421 545h-245v-158h225v-109h-225v-168h245v-110h-365v655h365v-110zM143 847c42 0 66 -20 66 -57v-26c0 -35 -24 -56 -66 -56c-41 0 -66 21 -66 56v26c0 37 25 57 66 57zM333 847c43 0 66 -20 66 -57v-26c0 -35 -23 -56 -66 -56c-40 0 -66 21 -66 56v26
c0 37 26 57 66 57z" />
    <glyph glyph-name="uni0402" unicode="&#x402;" horiz-adv-x="680" 
d="M500 545h-180v-118c32 5 65 9 103 9c141 0 220 -70 220 -219v-51c0 -121 -54 -178 -167 -178c-22 0 -56 4 -71 7v103c14 -2 39 -4 63 -4c37 0 55 17 55 63v69c0 70 -37 105 -102 105c-42 0 -78 -3 -101 -7v-324h-119v545h-180v110h479v-110z" />
    <glyph glyph-name="uni0403" unicode="&#x403;" horiz-adv-x="438" 
d="M416 545h-240v-545h-120v655h360v-110zM262 708h-95l75 136h122z" />
    <glyph glyph-name="uni0404" unicode="&#x404;" horiz-adv-x="464" 
d="M272 667c44 0 92 -8 150 -17l-2 -107c-39 7 -90 16 -136 16c-85 0 -113 -27 -113 -108v-64h212v-109h-212v-73c0 -80 29 -107 113 -107c46 0 97 10 136 18l2 -110c-51 -9 -104 -18 -150 -18c-164 0 -221 70 -221 209v261c0 141 59 209 221 209z" />
    <glyph glyph-name="uni0405" unicode="&#x405;" horiz-adv-x="459" 
d="M236 667c40 0 99 -7 152 -16l-2 -109c-50 9 -110 17 -147 17c-63 0 -86 -25 -86 -70v-21c0 -36 11 -50 63 -67l88 -29c93 -31 128 -78 128 -179v-19c0 -120 -62 -186 -228 -186c-36 0 -96 9 -154 21l1 111c54 -13 114 -22 150 -22c84 0 112 26 112 72v26
c0 35 -14 53 -53 66l-97 32c-97 32 -130 75 -130 178v10c0 119 60 185 203 185z" />
    <glyph glyph-name="uni0406" unicode="&#x406;" horiz-adv-x="231" 
d="M176 0h-120v655h120v-655z" />
    <glyph glyph-name="uni0407" unicode="&#x407;" horiz-adv-x="231" 
d="M176 0h-120v655h120v-655zM20 847c42 0 66 -20 66 -57v-26c0 -35 -24 -56 -66 -56c-41 0 -66 21 -66 56v26c0 37 25 57 66 57zM210 847c43 0 66 -20 66 -57v-26c0 -35 -23 -56 -66 -56c-40 0 -66 21 -66 56v26c0 37 26 57 66 57z" />
    <glyph glyph-name="uni0408" unicode="&#x408;" horiz-adv-x="299" 
d="M244 655v-489c0 -121 -53 -178 -166 -178c-22 0 -66 5 -80 10v102c18 -4 48 -6 71 -6c37 0 55 17 55 66v495h120z" />
    <glyph glyph-name="uni0409" unicode="&#x409;" horiz-adv-x="830" 
d="M304 667c72 0 135 -3 195 -9v-262c33 4 63 7 83 7c144 0 225 -68 225 -194v-25c0 -119 -75 -196 -237 -196c-54 0 -139 5 -191 9v563c-26 2 -44 3 -73 3c-63 0 -101 -34 -102 -106l-4 -259c-2 -143 -57 -210 -154 -210c-16 0 -35 2 -53 8v101c15 -2 28 -3 41 -3
c27 0 46 22 47 90l3 265c2 144 74 218 220 218zM564 298c-19 0 -46 -3 -66 -5v-196c30 -4 50 -5 67 -5c85 0 122 35 122 95v21c0 58 -38 90 -123 90z" />
    <glyph glyph-name="uni040A" unicode="&#x40a;" horiz-adv-x="834" 
d="M501 655v-259c34 4 64 7 84 7c144 0 224 -68 224 -194v-25c0 -119 -74 -196 -236 -196c-54 0 -140 5 -191 9v286h-206v-283h-120v655h120v-264h206v264h119zM567 298c-19 0 -46 -3 -66 -5v-196c30 -4 50 -5 67 -5c85 0 122 35 122 95v21c0 58 -38 90 -123 90z" />
    <glyph glyph-name="uni040B" unicode="&#x40b;" horiz-adv-x="676" 
d="M500 545h-180v-113c30 4 62 8 99 8c141 0 220 -70 220 -219v-221h-120v231c0 69 -37 105 -102 105c-42 0 -74 -4 -97 -8v-328h-119v545h-180v110h479v-110z" />
    <glyph glyph-name="uni040C" unicode="&#x40c;" horiz-adv-x="546" 
d="M325 347l225 -347h-143l-178 283h-53v-283h-120v655h120v-272h51l171 272h125zM300 708h-95l75 136h122z" />
    <glyph glyph-name="uni040E" unicode="&#x40e;" horiz-adv-x="503" 
d="M214 0h-123l102 231l-187 424h137l112 -305l120 305h129zM399 858v-99s-63 -55 -145 -55c-84 0 -146 55 -146 55v99s68 -63 146 -63c76 0 145 63 145 63z" />
    <glyph glyph-name="uni040F" unicode="&#x40f;" horiz-adv-x="557" 
d="M501 0h-166v-130h-113v130h-166v655h120v-546h206v546h119v-655z" />
    <glyph glyph-name="uni0410" unicode="&#x410;" horiz-adv-x="536" 
d="M533 0h-128l-35 137h-209l-35 -137h-123l194 655h142zM185 239h161l-80 316z" />
    <glyph glyph-name="uni0411" unicode="&#x411;" horiz-adv-x="508" 
d="M416 545h-240v-149c33 4 63 7 83 7c144 0 225 -68 225 -194v-25c0 -119 -74 -196 -237 -196c-54 0 -139 5 -191 9v658h360v-110zM241 298c-19 0 -46 -3 -66 -5v-196c30 -4 50 -5 67 -5c85 0 122 35 122 95v21c0 58 -38 90 -123 90z" />
    <glyph glyph-name="uni0412" unicode="&#x412;" horiz-adv-x="513" 
d="M241 667c149 0 223 -70 223 -163v-18c0 -65 -31 -118 -98 -144c77 -15 124 -71 124 -149v-20c0 -108 -71 -185 -244 -185c-57 0 -99 1 -190 5v669c50 2 128 5 185 5zM232 563c-18 0 -35 0 -57 -2v-179h73c64 0 96 33 96 87v16c0 50 -31 78 -112 78zM175 282v-185
c37 -3 47 -4 73 -4c87 0 122 35 122 89v18c0 52 -35 82 -117 82h-78z" />
    <glyph glyph-name="uni0413" unicode="&#x413;" horiz-adv-x="438" 
d="M416 545h-240v-545h-120v655h360v-110z" />
    <glyph glyph-name="uni0414" unicode="&#x414;" horiz-adv-x="577" 
d="M309 667c72 0 149 -6 197 -11v-547h61v-239h-113v130h-332v-130h-113v239h61v336c0 150 70 222 239 222zM304 564c-80 0 -114 -35 -114 -106v-349h197v450c-33 4 -56 5 -83 5z" />
    <glyph glyph-name="uni0415" unicode="&#x415;" horiz-adv-x="467" 
d="M421 545h-245v-158h225v-109h-225v-168h245v-110h-365v655h365v-110z" />
    <glyph glyph-name="uni0416" unicode="&#x416;" horiz-adv-x="800" 
d="M624 340l164 -340h-135l-131 283h-62v-283h-120v283h-64l-130 -283h-134l164 339l-156 316h127l130 -272h63v272h120v-272h65l131 272h123z" />
    <glyph glyph-name="uni0417" unicode="&#x417;" horiz-adv-x="458" 
d="M181 667c160 0 228 -60 228 -168v-17c0 -58 -34 -112 -99 -138c72 -20 116 -78 116 -152v-24c0 -109 -74 -180 -244 -180c-45 0 -104 7 -152 16l2 107c43 -9 104 -17 148 -17c94 0 127 28 127 80v27c0 55 -33 84 -117 84h-95v104h95c68 0 100 30 100 81v19
c0 46 -31 73 -111 73c-44 0 -104 -8 -147 -16l-2 105c52 9 110 16 151 16z" />
    <glyph glyph-name="uni0418" unicode="&#x418;" horiz-adv-x="557" 
d="M501 0h-119v431l-214 -431h-112v655h120v-432l213 432h112v-655z" />
    <glyph glyph-name="uni0419" unicode="&#x419;" horiz-adv-x="557" 
d="M501 0h-119v431l-214 -431h-112v655h120v-432l213 432h112v-655zM423 858v-99s-63 -55 -145 -55c-84 0 -146 55 -146 55v99s68 -63 146 -63c76 0 145 63 145 63z" />
    <glyph glyph-name="uni041A" unicode="&#x41a;" horiz-adv-x="546" 
d="M325 347l225 -347h-143l-178 283h-53v-283h-120v655h120v-272h51l171 272h125z" />
    <glyph glyph-name="uni041B" unicode="&#x41b;" horiz-adv-x="553" 
d="M304 667c72 0 135 -3 195 -9v-658h-120v560c-26 2 -44 3 -73 3c-63 0 -101 -34 -102 -106l-4 -259c-2 -143 -57 -210 -154 -210c-16 0 -35 2 -53 8v101c15 -2 28 -3 41 -3c27 0 46 22 47 90l3 265c2 144 74 218 220 218z" />
    <glyph glyph-name="uni041C" unicode="&#x41c;" horiz-adv-x="680" 
d="M509 456l-104 -384h-130l-104 384l-5 -456h-114l6 655h155l128 -465l128 465h153l6 -655h-113z" />
    <glyph glyph-name="uni041D" unicode="&#x41d;" horiz-adv-x="557" 
d="M501 0h-119v283h-206v-283h-120v655h120v-264h206v264h119v-655z" />
    <glyph glyph-name="uni041E" unicode="&#x41e;" horiz-adv-x="553" 
d="M276 667c157 0 226 -81 226 -221v-237c0 -138 -67 -221 -226 -221c-158 0 -225 83 -225 221v237c0 140 68 221 225 221zM276 559c-71 0 -106 -36 -106 -104v-254c0 -69 36 -105 106 -105s106 36 106 105v253c0 68 -36 105 -106 105z" />
    <glyph glyph-name="uni041F" unicode="&#x41f;" horiz-adv-x="557" 
d="M501 0h-119v545h-206v-545h-120v655h445v-655z" />
    <glyph glyph-name="uni0420" unicode="&#x420;" horiz-adv-x="499" 
d="M238 667c165 1 240 -74 240 -191v-22c0 -127 -75 -204 -227 -204c-21 0 -44 2 -75 7v-257h-120v661c50 2 115 5 182 6zM238 563c-30 0 -46 -1 -63 -2v-199c31 -4 50 -6 67 -6c78 0 116 35 116 102v15c0 58 -35 90 -120 90z" />
    <glyph glyph-name="uni0421" unicode="&#x421;" horiz-adv-x="460" 
d="M272 667c44 0 92 -8 150 -17l-2 -107c-39 7 -90 16 -136 16c-85 0 -113 -27 -113 -108v-246c0 -80 29 -107 113 -107c46 0 97 10 136 18l2 -110c-51 -9 -104 -18 -150 -18c-164 0 -221 70 -221 209v261c0 141 59 209 221 209z" />
    <glyph glyph-name="uni0422" unicode="&#x422;" horiz-adv-x="522" 
d="M500 545h-180v-545h-119v545h-180v110h479v-110z" />
    <glyph glyph-name="uni0423" unicode="&#x423;" horiz-adv-x="503" 
d="M214 0h-123l102 231l-187 424h137l112 -305l120 305h129z" />
    <glyph glyph-name="uni0424" unicode="&#x424;" horiz-adv-x="740" 
d="M430 695v-54c11 1 23 2 34 2c160 0 226 -67 226 -236v-159c0 -168 -65 -237 -226 -237c-11 0 -23 1 -34 2v-54h-119v54c-12 -1 -23 -2 -35 -2c-161 0 -225 69 -225 237v159c0 169 66 236 225 236c12 0 23 -1 35 -2v54h119zM276 539c-74 0 -105 -29 -105 -122v-180
c0 -92 31 -122 105 -122c12 0 23 0 35 1v421c-12 1 -23 2 -35 2zM464 539c-12 0 -23 -1 -34 -2v-421c11 -1 22 -1 34 -1c74 0 105 30 105 122v180c0 93 -31 122 -105 122z" />
    <glyph glyph-name="uni0425" unicode="&#x425;" horiz-adv-x="531" 
d="M338 335l190 -335h-142l-122 239l-124 -239h-137l192 336l-181 319h140l115 -223l114 223h135z" />
    <glyph glyph-name="uni0426" unicode="&#x426;" horiz-adv-x="563" 
d="M493 109h61v-239h-113v130h-385v655h120v-546h198v546h119v-546z" />
    <glyph glyph-name="uni0427" unicode="&#x427;" horiz-adv-x="536" 
d="M481 0h-120v223c-34 -5 -69 -8 -100 -8c-143 0 -216 72 -216 212v228h120v-231c0 -70 34 -105 102 -105c36 0 68 2 94 7v329h120v-655z" />
    <glyph glyph-name="uni0428" unicode="&#x428;" horiz-adv-x="732" 
d="M676 0h-620v655h119v-546h131v546h120v-546h131v546h119v-655z" />
    <glyph glyph-name="uni0429" unicode="&#x429;" horiz-adv-x="746" 
d="M676 109h61v-239h-113v130h-568v655h119v-546h131v546h120v-546h131v546h119v-546z" />
    <glyph glyph-name="uni042A" unicode="&#x42a;" horiz-adv-x="648" 
d="M316 655v-259c33 4 63 7 83 7c144 0 225 -68 225 -194v-25c0 -119 -74 -196 -237 -196c-54 0 -139 5 -191 9v546h-180v112h300zM381 298c-19 0 -46 -3 -66 -5v-196c30 -4 50 -5 67 -5c85 0 122 35 122 95v21c0 58 -38 90 -123 90z" />
    <glyph glyph-name="uni042B" unicode="&#x42b;" horiz-adv-x="712" 
d="M176 655v-259c33 4 63 7 83 7c144 0 225 -68 225 -194v-25c0 -119 -74 -196 -237 -196c-54 0 -139 5 -191 9v658h120zM657 0h-120v655h120v-655zM241 298c-19 0 -46 -3 -66 -5v-196c30 -4 50 -5 67 -5c85 0 122 35 122 95v21c0 58 -38 90 -123 90z" />
    <glyph glyph-name="uni042C" unicode="&#x42c;" horiz-adv-x="508" 
d="M176 655v-259c33 4 63 7 83 7c144 0 225 -68 225 -194v-25c0 -119 -74 -196 -237 -196c-54 0 -139 5 -191 9v658h120zM241 298c-19 0 -46 -3 -66 -5v-196c30 -4 50 -5 67 -5c85 0 122 35 122 95v21c0 58 -38 90 -123 90z" />
    <glyph glyph-name="uni042D" unicode="&#x42d;" horiz-adv-x="466" 
d="M195 667c157 0 221 -64 221 -209v-261c0 -140 -59 -209 -221 -209c-46 0 -99 9 -150 18l2 106c40 -9 90 -18 135 -18c87 0 114 30 114 108v76h-223v109h223v67c0 79 -27 107 -114 107c-43 0 -95 -9 -135 -16l-2 105c58 9 105 17 150 17z" />
    <glyph glyph-name="uni042E" unicode="&#x42e;" horiz-adv-x="748" 
d="M486 667c139 0 211 -75 211 -218v-242c0 -142 -71 -219 -211 -219s-210 77 -210 219v74h-101v-281h-119v655h119v-265h101v59c0 142 71 218 210 218zM486 563c-57 0 -91 -35 -91 -102v-266c0 -69 35 -103 91 -103c57 0 92 34 92 103v265c0 69 -35 103 -92 103z" />
    <glyph glyph-name="uni042F" unicode="&#x42f;" horiz-adv-x="521" 
d="M268 667c70 0 118 -3 197 -7v-660h-120v264c-29 -2 -47 -3 -87 -3l-119 -261h-131l137 281c-73 30 -108 91 -108 176v15c0 122 69 195 231 195zM268 563c-76 0 -111 -32 -111 -87v-21c0 -57 36 -90 111 -90c31 0 46 1 78 3v192c-33 3 -47 3 -78 3z" />
    <glyph glyph-name="uni0430" unicode="&#x430;" horiz-adv-x="432" 
d="M211 500c125 0 173 -44 173 -174v-326h-109v66c-34 -51 -76 -78 -120 -78c-75 0 -124 55 -124 154v26c0 87 57 144 153 144c21 0 56 -5 83 -10v38c0 42 -19 58 -68 58c-33 0 -91 -9 -132 -17v102c49 9 110 17 144 17zM211 226c-42 0 -63 -23 -63 -65v-8
c0 -40 18 -60 43 -60s53 21 77 64v64c-20 3 -42 5 -57 5z" />
    <glyph glyph-name="uni0431" unicode="&#x431;" horiz-adv-x="453" 
d="M235 695c32 0 97 -2 140 -5v-100c-44 3 -90 5 -125 5c-61 0 -82 -16 -82 -74v-99c30 41 71 66 116 66c78 0 126 -51 126 -171v-151c0 -121 -55 -178 -181 -178c-129 0 -178 53 -178 179v341c0 131 55 187 184 187zM248 382c-28 0 -58 -23 -80 -61v-168
c0 -44 20 -64 62 -64c44 0 63 22 63 67v150c0 57 -17 76 -45 76z" />
    <glyph glyph-name="uni0432" unicode="&#x432;" horiz-adv-x="455" 
d="M218 695c99 0 158 -52 158 -143v-16c0 -46 -22 -89 -57 -108c58 -17 92 -62 92 -149v-113c0 -117 -55 -178 -181 -178s-179 59 -179 184v336c0 133 47 187 167 187zM216 596c-34 0 -48 -14 -48 -60v-151c19 23 38 37 59 46c29 13 37 31 37 71v37c0 41 -16 57 -48 57z
M249 342c-28 0 -56 -20 -81 -59v-128c0 -44 22 -66 63 -66c43 0 64 20 64 66v111c0 57 -18 76 -46 76z" />
    <glyph glyph-name="uni0433" unicode="&#x433;" horiz-adv-x="388" 
d="M182 500c125 0 176 -45 176 -138v-13c0 -53 -28 -95 -92 -124l-89 -41c-27 -12 -34 -26 -34 -45v-7c0 -25 17 -39 67 -39c44 0 92 9 137 21l-2 -105c-51 -13 -96 -21 -137 -21c-132 0 -181 45 -181 143v19c0 50 32 99 92 125l91 40c25 11 32 23 32 41v7
c0 26 -14 37 -67 37c-31 0 -79 -8 -121 -17l-3 99c46 10 93 18 131 18z" />
    <glyph glyph-name="uni0434" unicode="&#x434;" horiz-adv-x="455" 
d="M179 500c45 0 87 -27 114 -50v38h109v-498c0 -131 -55 -187 -178 -187c-38 0 -102 8 -146 15v102c41 -7 90 -14 132 -14c56 0 76 18 76 73v81c-35 -45 -75 -72 -119 -72c-79 0 -124 52 -124 167v174c0 111 50 171 136 171zM214 394c-34 0 -54 -21 -54 -78v-148
c0 -56 16 -74 43 -74c28 0 58 23 83 66v199c-21 21 -50 35 -72 35z" />
    <glyph glyph-name="uni0435" unicode="&#x435;" horiz-adv-x="432" 
d="M220 500c115 0 179 -64 179 -184v-112h-240v-37c0 -53 23 -74 85 -74c41 0 94 8 134 16l3 -102c-49 -10 -110 -19 -147 -19c-138 0 -191 57 -191 191v137c0 117 57 184 177 184zM220 400c-37 0 -61 -24 -61 -69v-40h124v37c0 49 -24 72 -63 72z" />
    <glyph glyph-name="uni0436" unicode="&#x436;" horiz-adv-x="633" 
d="M373 309h32l97 179h119l-120 -220l130 -268h-122l-101 210h-35v-210h-115v210h-37l-100 -210h-119l129 265l-121 223h120l95 -179h33v374h115v-374z" />
    <glyph glyph-name="uni0437" unicode="&#x437;" horiz-adv-x="377" 
d="M154 500c125 0 185 -52 185 -130v-12c0 -48 -27 -91 -72 -110c48 -14 80 -56 80 -101v-13c-1 -91 -53 -146 -180 -146c-33 0 -92 8 -142 16v101c41 -7 107 -16 140 -16c47 0 65 18 65 51v6c0 39 -22 59 -71 59h-91v85h85c52 0 73 22 73 54v9c0 28 -21 48 -74 48
c-33 0 -66 -4 -111 -11l-3 99c54 8 82 11 116 11z" />
    <glyph glyph-name="uni0438" unicode="&#x438;" horiz-adv-x="460" 
d="M407 0h-108v66c-36 -54 -78 -78 -124 -78c-74 0 -122 51 -122 170v330h117v-316c0 -55 17 -75 42 -75c26 0 55 21 79 59v332h116v-488z" />
    <glyph glyph-name="uni0439" unicode="&#x439;" horiz-adv-x="460" 
d="M359 708v-98s-42 -57 -132 -57c-89 0 -132 57 -132 57v98s51 -65 132 -65s132 65 132 65zM407 0h-108v66c-36 -54 -78 -78 -124 -78c-74 0 -122 51 -122 170v330h117v-316c0 -55 17 -75 42 -75c26 0 55 21 79 59v332h116v-488z" />
    <glyph glyph-name="uni043A" unicode="&#x43a;" horiz-adv-x="450" 
d="M170 309h34l108 179h125l-137 -216l146 -272h-134l-107 210h-35v-210h-117v683h117v-374z" />
    <glyph glyph-name="uni043B" unicode="&#x43b;" horiz-adv-x="472" 
d="M259 500c56 0 113 -4 160 -9v-491h-116v396c-20 2 -31 2 -47 2c-49 0 -71 -27 -71 -103v-115c0 -137 -46 -192 -138 -192c-12 0 -33 2 -48 6v99c17 -2 28 -3 35 -3c24 0 38 17 38 84v111c0 153 52 215 187 215z" />
    <glyph glyph-name="uni043C" unicode="&#x43c;" horiz-adv-x="552" 
d="M506 0h-112l-1 309l-67 -241h-94l-74 241v-309h-112l7 488h129l97 -312l91 312h129z" />
    <glyph glyph-name="uni043D" unicode="&#x43d;" horiz-adv-x="465" 
d="M412 0h-117v199h-125v-199h-117v488h117v-188h125v188h117v-488z" />
    <glyph glyph-name="uni043E" unicode="&#x43e;" horiz-adv-x="451" 
d="M225 500c125 0 183 -67 183 -185v-142c0 -118 -58 -185 -183 -185c-123 0 -182 66 -182 185v142c0 118 59 185 182 185zM226 398c-42 0 -66 -26 -66 -77v-154c0 -51 24 -78 66 -78c41 0 66 27 66 78v155c0 51 -25 76 -66 76z" />
    <glyph glyph-name="uni043F" unicode="&#x43f;" horiz-adv-x="465" 
d="M287 500c79 0 125 -55 125 -170v-330h-117v318c0 55 -17 73 -45 73c-27 0 -58 -22 -80 -60v-331h-117v488h108v-67c35 54 78 79 126 79z" />
    <glyph glyph-name="uni0440" unicode="&#x440;" horiz-adv-x="454" 
d="M283 500c80 0 128 -52 128 -173v-166c0 -113 -55 -173 -142 -173c-32 0 -70 15 -99 32v-205h-117v673h108v-64c33 49 75 76 122 76zM250 394c-28 0 -57 -21 -80 -59v-215c23 -17 48 -26 67 -26c39 0 58 24 58 78v144c0 58 -18 78 -45 78z" />
    <glyph glyph-name="uni0441" unicode="&#x441;" horiz-adv-x="375" 
d="M230 500c31 0 61 -3 112 -13l-2 -104c-36 8 -68 13 -96 13c-60 0 -84 -27 -84 -87v-130c0 -62 28 -86 84 -86c30 0 56 4 95 12l3 -104c-54 -10 -84 -13 -113 -13c-125 0 -186 64 -186 187v138c0 121 60 187 187 187z" />
    <glyph glyph-name="uni0442" unicode="&#x442;" horiz-adv-x="700" 
d="M524 500c77 0 123 -54 123 -170v-330h-117v318c0 56 -16 73 -43 73c-25 0 -56 -22 -79 -59v-332h-117v318c0 56 -16 73 -43 73c-25 0 -56 -22 -78 -59v-332h-117v488h108v-67c35 54 78 79 124 79c55 0 94 -27 112 -84c35 57 79 84 127 84z" />
    <glyph glyph-name="uni0443" unicode="&#x443;" horiz-adv-x="460" 
d="M407 488v-498c0 -131 -55 -187 -178 -187c-38 0 -102 8 -146 15v102c41 -7 89 -14 132 -14c57 0 76 19 76 73v75c-36 -45 -70 -66 -116 -66c-74 0 -122 51 -122 170v330h117v-316c0 -55 17 -75 42 -75c26 0 55 21 79 59v332h116z" />
    <glyph glyph-name="uni0444" unicode="&#x444;" horiz-adv-x="642" 
d="M380 684v-201c22 10 47 17 70 17c90 0 149 -61 149 -173v-164c0 -112 -56 -175 -137 -175c-26 0 -56 13 -82 28v-201h-117v201c-28 -15 -58 -28 -83 -28c-80 0 -137 63 -137 175v164c0 111 58 173 150 173c22 0 47 -7 70 -17v201h117zM217 399c-36 0 -57 -26 -57 -78
v-152c0 -55 20 -78 55 -78c14 0 31 7 48 16v279c-16 8 -32 13 -46 13zM426 399c-14 0 -30 -5 -46 -13v-278c16 -11 34 -17 48 -17c35 0 55 23 55 78v152c0 52 -21 78 -57 78z" />
    <glyph glyph-name="uni0445" unicode="&#x445;" horiz-adv-x="434" 
d="M286 253l152 -253h-134l-88 170l-85 -170h-134l150 251l-141 237h134l78 -153l78 153h131z" />
    <glyph glyph-name="uni0446" unicode="&#x446;" horiz-adv-x="473" 
d="M407 99h61v-219h-110v120h-59v66c-36 -54 -78 -78 -124 -78c-74 0 -122 52 -122 170v330h117v-316c0 -55 17 -75 42 -75c26 0 55 21 79 59v332h116v-389z" />
    <glyph glyph-name="uni0447" unicode="&#x447;" horiz-adv-x="446" 
d="M393 0h-116v165c-34 -45 -74 -66 -116 -66c-74 0 -122 52 -122 169v220h117v-206c0 -54 16 -74 42 -74c25 0 55 22 79 59v221h116v-488z" />
    <glyph glyph-name="uni0448" unicode="&#x448;" horiz-adv-x="687" 
d="M635 0h-108v67c-36 -54 -78 -79 -122 -79c-52 0 -90 28 -108 83c-36 -56 -79 -83 -125 -83c-75 0 -119 56 -119 170v330h117v-318c0 -55 15 -73 39 -73c25 0 54 21 77 59v332h117v-318c0 -55 16 -73 39 -73c24 0 54 21 76 59v332h117v-488z" />
    <glyph glyph-name="uni0449" unicode="&#x449;" horiz-adv-x="700" 
d="M635 99h61v-219h-110v120h-59v67c-36 -54 -78 -79 -122 -79c-52 0 -90 28 -108 83c-36 -56 -79 -83 -125 -83c-75 0 -119 56 -119 170v330h117v-318c0 -55 15 -73 39 -73c25 0 54 21 77 59v332h117v-318c0 -55 16 -73 39 -73c24 0 54 21 76 59v332h117v-389z" />
    <glyph glyph-name="uni044A" unicode="&#x44a;" horiz-adv-x="549" 
d="M272 488v-164c29 42 70 70 113 70c77 0 129 -50 129 -173v-47c0 -122 -62 -186 -183 -186c-124 0 -175 57 -175 187v212h-140v101h256zM351 288c-28 0 -56 -24 -78 -61v-67c0 -47 24 -71 60 -71c40 0 64 26 64 72v46c0 61 -19 81 -46 81z" />
    <glyph glyph-name="uni044B" unicode="&#x44b;" horiz-adv-x="639" 
d="M170 488v-164c29 42 70 70 113 70c77 0 129 -50 129 -173v-47c0 -122 -63 -186 -183 -186c-124 0 -176 57 -176 187v313h117zM587 0h-117v488h117v-488zM248 288c-28 0 -56 -24 -78 -61v-67c0 -47 24 -71 60 -71c40 0 64 26 64 72v46c0 61 -19 81 -46 81z" />
    <glyph glyph-name="uni044C" unicode="&#x44c;" horiz-adv-x="446" 
d="M170 488v-164c29 42 70 70 113 70c77 0 129 -50 129 -173v-47c0 -122 -63 -186 -183 -186c-124 0 -176 57 -176 187v313h117zM248 288c-28 0 -56 -24 -78 -61v-67c0 -47 24 -71 60 -71c40 0 64 26 64 72v46c0 61 -19 81 -46 81z" />
    <glyph glyph-name="uni044D" unicode="&#x44d;" horiz-adv-x="382" 
d="M150 500c126 0 189 -62 189 -187v-138c0 -122 -59 -187 -189 -187c-41 0 -67 3 -113 11l3 105c32 -6 62 -11 96 -11c62 0 87 27 87 82v30h-160v88h159v23c0 55 -26 79 -83 79c-37 0 -66 -4 -100 -10l-2 104c46 8 74 11 113 11z" />
    <glyph glyph-name="uni044E" unicode="&#x44e;" horiz-adv-x="625" 
d="M169 300h66v19c1 119 56 181 174 181c116 0 173 -60 173 -185v-142c0 -124 -55 -185 -173 -185c-116 0 -174 59 -174 185v26h-66v-199h-116v683h116v-383zM408 398c-37 0 -59 -23 -59 -75v-158c0 -53 23 -76 59 -76c37 0 58 23 58 76v158c0 53 -20 75 -58 75z" />
    <glyph glyph-name="uni044F" unicode="&#x44f;" horiz-adv-x="446" 
d="M393 488v-488h-116v175c-27 -1 -59 0 -82 3l20 -23l-75 -155h-127l103 195c-50 22 -77 62 -77 125v22c0 76 62 146 176 146h178zM276 388h-54c-44 0 -67 -22 -67 -56v-4c0 -39 22 -56 62 -56h59v116z" />
    <glyph glyph-name="uni0451" unicode="&#x451;" horiz-adv-x="432" 
d="M220 500c115 0 179 -64 179 -184v-112h-240v-37c0 -53 23 -74 85 -74c41 0 94 8 134 16l3 -102c-49 -10 -110 -19 -147 -19c-138 0 -191 57 -191 191v137c0 117 57 184 177 184zM220 400c-37 0 -61 -24 -61 -69v-40h124v37c0 49 -24 72 -63 72zM121 700
c42 0 66 -19 66 -56v-26c0 -34 -24 -55 -66 -55c-40 0 -65 21 -65 55v26c0 37 25 56 65 56zM312 700c42 0 66 -19 66 -56v-26c0 -34 -24 -55 -66 -55c-40 0 -65 21 -65 55v26c0 37 25 56 65 56z" />
    <glyph glyph-name="uni0452" unicode="&#x452;" horiz-adv-x="472" 
d="M182 635h103v-88h-103v-115c34 44 74 67 119 67c78 0 124 -56 124 -170v-350c0 -127 -52 -176 -161 -176c-32 0 -62 4 -78 6v101c11 -2 41 -4 62 -4c43 0 60 17 60 65v346c0 55 -18 73 -45 73s-58 -23 -81 -60v-330h-116v547h-64v88h64v48h116v-48z" />
    <glyph glyph-name="uni0453" unicode="&#x453;" horiz-adv-x="388" 
d="M182 500c125 0 176 -45 176 -138v-13c0 -53 -28 -95 -92 -124l-89 -41c-27 -12 -34 -26 -34 -45v-7c0 -25 17 -39 67 -39c44 0 92 9 137 21l-2 -105c-51 -13 -96 -21 -137 -21c-132 0 -181 45 -181 143v19c0 50 32 99 92 125l91 40c25 11 32 23 32 41v7
c0 26 -14 37 -67 37c-31 0 -79 -8 -121 -17l-3 99c46 10 93 18 131 18zM234 546h-94l81 148h120z" />
    <glyph glyph-name="uni0454" unicode="&#x454;" horiz-adv-x="381" 
d="M233 500c33 0 61 -3 112 -11l-2 -104c-35 6 -65 10 -100 10c-57 0 -83 -26 -83 -78v-24h160v-88h-160v-30c0 -59 28 -82 86 -82c31 0 57 4 96 11l3 -105c-53 -8 -79 -11 -112 -11c-130 0 -190 65 -190 187v138c0 121 60 187 190 187z" />
    <glyph glyph-name="uni0455" unicode="&#x455;" horiz-adv-x="379" 
d="M205 500c37 0 68 -4 114 -13l-2 -102c-42 9 -76 14 -103 14c-52 0 -69 -15 -69 -40v-6c0 -17 7 -25 29 -35l92 -41c60 -27 88 -69 88 -123v-20c0 -95 -51 -146 -177 -146c-38 0 -84 8 -138 20l6 106c47 -13 97 -22 131 -22c48 0 63 13 63 40v6c0 21 -7 33 -30 43l-87 38
c-64 27 -93 68 -93 122v13c2 96 53 146 176 146z" />
    <glyph glyph-name="uni0456" unicode="&#x456;" horiz-adv-x="222" 
d="M111 706c45 0 70 -20 70 -59v-27c0 -37 -25 -59 -70 -59c-43 0 -69 22 -69 59v27c0 39 26 59 69 59zM170 0h-117v488h117v-488z" />
    <glyph glyph-name="uni0457" unicode="&#x457;" horiz-adv-x="222" 
d="M170 0h-117v488h117v-488zM15 700c42 0 66 -19 66 -56v-26c0 -34 -24 -55 -66 -55c-40 0 -65 21 -65 55v26c0 37 25 56 65 56zM206 700c42 0 66 -19 66 -56v-26c0 -34 -24 -55 -66 -55c-40 0 -65 21 -65 55v26c0 37 25 56 65 56z" />
    <glyph glyph-name="uni0458" unicode="&#x458;" horiz-adv-x="222" 
d="M111 706c45 0 70 -20 70 -59v-27c0 -37 -25 -59 -70 -59c-43 0 -69 22 -69 59v27c0 39 26 59 69 59zM170 488v-509c0 -122 -47 -176 -161 -176c-31 0 -62 4 -78 6v101c12 -2 41 -4 62 -4c43 0 60 18 60 65v517h117z" />
    <glyph glyph-name="uni0459" unicode="&#x459;" horiz-adv-x="694" 
d="M258 500c55 0 112 -4 160 -9v-167c29 42 70 70 113 70c77 0 129 -50 129 -173v-47c0 -122 -63 -186 -183 -186c-124 0 -176 57 -176 187v221c-20 2 -30 2 -46 2c-47 0 -70 -27 -70 -103v-115c0 -136 -48 -192 -138 -192c-12 0 -33 2 -48 6v99c17 -2 28 -3 35 -3
c24 0 38 17 38 84v111c0 153 52 215 186 215zM495 288c-28 0 -56 -24 -78 -61v-67c0 -47 24 -71 60 -71c40 0 64 26 64 72v46c0 61 -19 81 -46 81z" />
    <glyph glyph-name="uni045A" unicode="&#x45a;" horiz-adv-x="679" 
d="M403 488v-164c29 42 70 70 113 70c77 0 129 -50 129 -173v-47c0 -122 -63 -186 -183 -186c-123 0 -175 57 -176 184v27h-116v-199h-117v488h117v-188h116v188h117zM481 288c-28 0 -56 -24 -78 -61v-67c0 -47 24 -71 60 -71c40 0 64 26 64 72v46c0 61 -19 81 -46 81z" />
    <glyph glyph-name="uni045B" unicode="&#x45b;" horiz-adv-x="472" 
d="M182 635h103v-88h-103v-115c34 44 74 67 119 67c78 0 124 -56 124 -170v-329h-117v317c0 55 -18 73 -45 73s-58 -23 -81 -60v-330h-116v547h-64v88h64v48h116v-48z" />
    <glyph glyph-name="uni045C" unicode="&#x45c;" horiz-adv-x="450" 
d="M300 272l146 -272h-134l-107 210h-35v-210h-117v488h117v-179h34l108 179h125zM266 546h-94l81 148h120z" />
    <glyph glyph-name="uni045E" unicode="&#x45e;" horiz-adv-x="460" 
d="M407 488v-498c0 -131 -55 -187 -178 -187c-38 0 -102 8 -146 15v102c41 -7 89 -14 132 -14c57 0 76 19 76 73v75c-36 -45 -70 -66 -116 -66c-74 0 -122 51 -122 170v330h117v-316c0 -55 17 -75 42 -75c26 0 55 21 79 59v332h116zM364 708v-98s-42 -57 -132 -57
c-89 0 -132 57 -132 57v98s51 -65 132 -65s132 65 132 65z" />
    <glyph glyph-name="uni045F" unicode="&#x45f;" horiz-adv-x="460" 
d="M407 0h-122v-120h-110v120h-122v488h117v-389h120v389h117v-488z" />
    <glyph glyph-name="uni0462" unicode="&#x462;" horiz-adv-x="653" 
d="M500 545h-180v-149c33 4 64 7 84 7c144 0 224 -68 224 -194v-25c0 -119 -74 -196 -236 -196c-54 0 -140 5 -191 9v548h-180v110h479v-110zM387 298c-19 0 -46 -3 -66 -5v-196c30 -4 50 -5 67 -5c85 0 122 35 122 95v21c0 58 -38 90 -123 90z" />
    <glyph glyph-name="uni0463" unicode="&#x463;" horiz-adv-x="458" 
d="M182 564h104v-88h-104v-152c29 42 70 70 113 70c77 0 129 -50 129 -173v-47c0 -122 -62 -186 -183 -186c-124 0 -175 57 -175 187v301h-64v88h64v72h116v-72zM260 288c-28 0 -56 -24 -78 -61v-67c0 -47 24 -71 60 -71c40 0 64 26 64 72v46c0 61 -19 81 -46 81z" />
    <glyph glyph-name="uni0472" unicode="&#x472;" horiz-adv-x="553" 
d="M276 667c157 0 226 -81 226 -221v-237c0 -138 -67 -221 -226 -221c-158 0 -225 83 -225 221v237c0 140 68 221 225 221zM276 559c-71 0 -106 -36 -106 -104v-72h212v71c0 68 -36 105 -106 105zM170 283v-82c0 -69 36 -105 106 -105s106 36 106 105v82h-212z" />
    <glyph glyph-name="uni0473" unicode="&#x473;" horiz-adv-x="451" 
d="M225 500c125 0 183 -67 183 -185v-142c0 -118 -58 -185 -183 -185c-123 0 -182 66 -182 185v142c0 118 59 185 182 185zM226 398c-42 0 -66 -26 -66 -77v-31h132v32c0 51 -25 76 -66 76zM160 202v-35c0 -51 24 -78 66 -78c41 0 66 27 66 78v35h-132z" />
    <glyph glyph-name="uni0474" unicode="&#x474;" horiz-adv-x="579" 
d="M519 667c25 0 52 -3 74 -9v-98c-25 3 -43 5 -56 5c-28 0 -39 -8 -55 -62l-141 -503h-144l-190 655h126l136 -549l94 389c32 140 69 172 156 172z" />
    <glyph glyph-name="uni0475" unicode="&#x475;" horiz-adv-x="467" 
d="M425 500c17 0 41 -4 63 -8v-98c-19 3 -32 5 -46 5c-27 0 -39 -9 -54 -60l-98 -339h-140l-146 488h124l93 -402l57 252c28 133 61 162 147 162z" />
    <glyph glyph-name="uni0490" unicode="&#x490;" horiz-adv-x="438" 
d="M416 545h-240v-545h-120v655h247v130h113v-240z" />
    <glyph glyph-name="uni0491" unicode="&#x491;" horiz-adv-x="358" 
d="M342 387h-172v-387h-117v488h179v118h110v-219z" />
    <glyph glyph-name="uni0492" unicode="&#x492;" horiz-adv-x="453" 
d="M432 545h-241v-158h121v-101h-121v-286h-119v286h-68v101h68v268h360v-110z" />
    <glyph glyph-name="uni0493" unicode="&#x493;" horiz-adv-x="374" 
d="M358 387h-173v-93h114v-88h-114v-206h-116v206h-64v88h64v194h289v-101z" />
    <glyph glyph-name="uni0496" unicode="&#x496;" horiz-adv-x="806" 
d="M624 340l109 -231h65v-239h-113v130h-34l-129 283h-62v-283h-120v283h-64l-130 -283h-134l164 339l-156 316h125l130 -272h65v272h120v-272h65l131 272h123z" />
    <glyph glyph-name="uni0497" unicode="&#x497;" horiz-adv-x="633" 
d="M373 309h32l97 179h119l-120 -220l82 -169h51v-219h-110v120h-15l-100 210h-36v-210h-115v210h-37l-100 -210h-119l129 265l-121 223h120l95 -179h33v374h115v-374z" />
    <glyph glyph-name="uni0498" unicode="&#x498;" horiz-adv-x="458" 
d="M181 667c160 0 228 -60 228 -168v-17c0 -58 -34 -112 -99 -138c72 -20 116 -78 116 -152v-24c0 -93 -54 -158 -174 -175l-9 -28h10c32 0 58 -26 58 -62v-17c0 -53 -34 -83 -114 -83c-17 0 -40 2 -58 5v68c14 -2 26 -4 36 -4c29 0 41 10 41 23v9c0 18 -11 23 -34 23h-28
v20l13 41c-42 2 -95 8 -137 16l2 107c43 -9 104 -17 148 -17c94 0 127 28 127 80v27c0 55 -33 84 -117 84h-95v104h95c68 0 100 30 100 81v19c0 46 -31 73 -111 73c-44 0 -104 -8 -147 -16l-2 105c52 9 110 16 151 16z" />
    <glyph glyph-name="uni0499" unicode="&#x499;" horiz-adv-x="377" 
d="M154 500c125 0 185 -52 185 -130v-12c0 -48 -27 -91 -72 -110c48 -14 80 -56 80 -101v-13c-1 -79 -41 -130 -135 -142l-7 -27h10c31 0 57 -26 57 -62v-17c0 -53 -34 -83 -114 -83c-16 0 -39 2 -57 5v68c14 -2 26 -4 36 -4c29 0 41 10 41 23v9c-1 18 -11 23 -34 23h-29v20
l14 43c-32 3 -71 9 -104 14v101c41 -7 107 -16 140 -16c47 0 65 18 65 51v6c0 39 -22 59 -71 59h-91v85h85c52 0 73 22 73 54v9c0 28 -21 48 -74 48c-33 0 -66 -4 -111 -11l-3 99c54 8 82 11 116 11z" />
    <glyph glyph-name="uni049A" unicode="&#x49a;" horiz-adv-x="550" 
d="M325 347l154 -238h69v-239h-114v130h-27l-178 283h-53v-283h-120v655h120v-272h51l171 272h125z" />
    <glyph glyph-name="uni049B" unicode="&#x49b;" horiz-adv-x="452" 
d="M300 272l93 -173h59v-219h-111v120h-29l-107 210h-35v-210h-117v488h117v-179h34l108 179h125z" />
    <glyph glyph-name="uni049C" unicode="&#x49c;" horiz-adv-x="585" 
d="M380 343l206 -343h-140l-161 278h-17v-168h-69v168h-23v-278h-120v655h120v-268h23v130h69v-130h11l156 268h130z" />
    <glyph glyph-name="uni049D" unicode="&#x49d;" horiz-adv-x="496" 
d="M360 269l133 -269h-132l-98 210h-7v-122h-64v122h-22v-210h-117v488h117v-179h22v114h64v-114h8l95 179h124z" />
    <glyph glyph-name="uni04A0" unicode="&#x4a0;" horiz-adv-x="686" 
d="M465 347l225 -347h-143l-178 283h-53v-283h-120v543h-180v112h300v-272h51l171 272h125z" />
    <glyph glyph-name="uni04A1" unicode="&#x4a1;" horiz-adv-x="553" 
d="M402 272l147 -272h-135l-107 210h-35v-210h-116v387h-140v101h256v-179h34l108 179h125z" />
    <glyph glyph-name="uni04A2" unicode="&#x4a2;" horiz-adv-x="571" 
d="M501 109h61v-239h-113v130h-67v283h-206v-283h-120v655h120v-264h206v264h119v-546z" />
    <glyph glyph-name="uni04A3" unicode="&#x4a3;" horiz-adv-x="476" 
d="M412 99h60v-219h-111v120h-66v199h-125v-199h-117v488h117v-188h125v188h117v-389z" />
    <glyph glyph-name="uni04AA" unicode="&#x4aa;" horiz-adv-x="462" 
d="M272 667c44 0 92 -8 150 -17l-2 -107c-39 7 -90 16 -136 16c-85 0 -113 -27 -113 -108v-246c0 -80 29 -107 113 -107c46 0 97 10 136 18l2 -110c-56 -13 -73 -46 -73 -73v-7c0 -22 10 -31 37 -31c9 0 20 1 37 4v-88c-29 -7 -48 -8 -63 -8c-73 0 -108 35 -108 85v11
c0 34 17 66 48 90c-10 0 -19 -1 -28 -1c-164 0 -221 70 -221 209v261c0 141 59 209 221 209z" />
    <glyph glyph-name="uni04AB" unicode="&#x4ab;" horiz-adv-x="375" 
d="M231 500c34 0 60 -3 111 -12l-2 -103c-36 6 -62 11 -95 11c-61 0 -85 -27 -85 -87v-130c0 -62 27 -86 85 -86c30 0 55 3 94 11l3 -104l-43 -7c-26 -16 -37 -39 -37 -60v-7c0 -22 11 -31 37 -31c9 0 21 1 38 4v-88c-30 -7 -48 -8 -63 -8c-73 0 -109 35 -109 85v11
c0 33 18 65 48 89c-116 6 -170 71 -170 187v138c0 121 60 187 188 187z" />
    <glyph glyph-name="uni04AE" unicode="&#x4ae;" horiz-adv-x="513" 
d="M316 226v-226h-120v226l-189 429h135l115 -313l116 313h132z" />
    <glyph glyph-name="uni04AF" unicode="&#x4af;" horiz-adv-x="445" 
d="M281 0v-185h-117v185l-160 488h123l96 -373l96 373h123z" />
    <glyph glyph-name="uni04B0" unicode="&#x4b0;" horiz-adv-x="513" 
d="M334 274h76v-109h-94v-165h-120v165h-94v109h75l-170 381h135l115 -313l116 313h132z" />
    <glyph glyph-name="uni04B1" unicode="&#x4b1;" horiz-adv-x="445" 
d="M308 87h48v-87h-75v-185h-117v185h-75v87h48l-133 401h123l96 -373l96 373h123z" />
    <glyph glyph-name="uni04B2" unicode="&#x4b2;" horiz-adv-x="545" 
d="M338 335l127 -226h85v-239h-113v130h-51l-122 239l-124 -239h-137l192 336l-181 319h140l115 -223l114 223h135z" />
    <glyph glyph-name="uni04B3" unicode="&#x4b3;" horiz-adv-x="438" 
d="M286 253l93 -154h64v-219h-110v120h-29l-88 170l-85 -170h-134l150 251l-141 237h134l78 -153l78 153h131z" />
    <glyph glyph-name="uni04B8" unicode="&#x4b8;" horiz-adv-x="536" 
d="M481 0h-120v223c-20 -3 -40 -6 -60 -7v-124h-68v123c-125 9 -188 81 -188 212v228h120v-231c0 -57 22 -91 68 -100v175h68v-180c22 1 43 4 60 7v329h120v-655z" />
    <glyph glyph-name="uni04B9" unicode="&#x4b9;" horiz-adv-x="446" 
d="M393 0h-116v165c-14 -18 -28 -32 -43 -42v-74h-39v59c-14 -6 -24 -9 -35 -9c-73 0 -121 52 -121 169v220h117v-206c0 -43 10 -66 29 -72c3 -1 6 -2 10 -2v178h39v-165c15 10 30 26 43 46v221h116v-488z" />
    <glyph glyph-name="uni04BA" unicode="&#x4ba;" horiz-adv-x="531" 
d="M176 655v-223c30 4 61 8 98 8c141 0 220 -70 220 -219v-221h-120v231c0 69 -37 105 -101 105c-42 0 -75 -4 -97 -8v-328h-120v655h120z" />
    <glyph glyph-name="uni04BB" unicode="&#x4bb;" horiz-adv-x="452" 
d="M170 683v-315c33 45 72 67 117 67c77 0 125 -53 125 -170v-265h-117v253c0 55 -18 73 -45 73s-58 -23 -80 -60v-266h-117v683h117z" />
    <glyph glyph-name="uni04C0" unicode="&#x4c0;" horiz-adv-x="231" 
d="M176 0h-120v655h120v-655z" />
    <glyph glyph-name="uni04CB" unicode="&#x4cb;" horiz-adv-x="551" 
d="M481 109h61v-239h-114v130h-67v223c-34 -5 -69 -8 -100 -8c-143 0 -216 72 -216 212v228h120v-231c0 -70 34 -105 102 -105c36 0 68 2 94 7v329h120v-546z" />
    <glyph glyph-name="uni04CC" unicode="&#x4cc;" horiz-adv-x="423" 
d="M358 99h61v-219h-110v120h-67v165c-34 -45 -74 -66 -116 -66c-74 0 -122 52 -122 169v220h117v-206c0 -54 16 -74 42 -74c25 0 55 22 79 59v221h116v-389z" />
    <glyph glyph-name="uni04CF" unicode="&#x4cf;" horiz-adv-x="222" 
d="M170 0h-117v488h117v-488z" />
    <glyph glyph-name="uni04D8" unicode="&#x4d8;" horiz-adv-x="543" 
d="M250 667c183 0 243 -59 243 -209v-249c0 -140 -70 -221 -221 -221c-152 0 -221 82 -221 221v178h322v79c0 74 -26 97 -125 97c-46 0 -108 -9 -154 -18l-2 104c57 11 114 18 158 18zM170 278v-77c0 -68 35 -105 102 -105c66 0 101 37 101 105v77h-203z" />
    <glyph glyph-name="uni04D9" unicode="&#x4d9;" horiz-adv-x="445" 
d="M197 500c146 0 205 -62 205 -200v-122c0 -120 -57 -190 -180 -190c-119 0 -179 64 -179 184v112h242v40c0 48 -30 71 -93 71c-43 0 -94 -8 -135 -15l-2 104c49 9 106 16 142 16zM160 196v-36c0 -49 25 -72 63 -72c39 0 63 24 63 71v37h-126z" />
    <glyph glyph-name="uni04E2" unicode="&#x4e2;" horiz-adv-x="557" 
d="M501 0h-119v431l-214 -431h-112v655h120v-432l213 432h112v-655zM406 711h-257v95h257v-95z" />
    <glyph glyph-name="uni04E3" unicode="&#x4e3;" horiz-adv-x="460" 
d="M345 592h-237v95h237v-95zM407 0h-108v66c-36 -54 -78 -78 -124 -78c-74 0 -122 51 -122 170v330h117v-316c0 -55 17 -75 42 -75c26 0 55 21 79 59v332h116v-488z" />
    <glyph glyph-name="uni04E8" unicode="&#x4e8;" horiz-adv-x="553" 
d="M276 667c157 0 226 -81 226 -221v-237c0 -138 -67 -221 -226 -221c-158 0 -225 83 -225 221v237c0 140 68 221 225 221zM276 559c-71 0 -106 -36 -106 -104v-72h212v71c0 68 -36 105 -106 105zM170 283v-82c0 -69 36 -105 106 -105s106 36 106 105v82h-212z" />
    <glyph glyph-name="uni04E9" unicode="&#x4e9;" horiz-adv-x="451" 
d="M225 500c125 0 183 -67 183 -185v-142c0 -118 -58 -185 -183 -185c-123 0 -182 66 -182 185v142c0 118 59 185 182 185zM226 398c-42 0 -66 -26 -66 -77v-31h132v32c0 51 -25 76 -66 76zM160 202v-35c0 -51 24 -78 66 -78c41 0 66 27 66 78v35h-132z" />
    <glyph glyph-name="uni04EE" unicode="&#x4ee;" horiz-adv-x="503" 
d="M214 0h-123l102 231l-187 424h137l112 -305l120 305h129zM382 711h-257v95h257v-95z" />
    <glyph glyph-name="uni04EF" unicode="&#x4ef;" horiz-adv-x="460" 
d="M407 488v-498c0 -131 -55 -187 -178 -187c-38 0 -102 8 -146 15v102c41 -7 89 -14 132 -14c57 0 76 19 76 73v75c-36 -45 -70 -66 -116 -66c-74 0 -122 51 -122 170v330h117v-316c0 -55 17 -75 42 -75c26 0 55 21 79 59v332h116zM350 592h-237v95h237v-95z" />
    <glyph glyph-name="Wgrave" unicode="&#x1e80;" horiz-adv-x="832" 
d="M675 0h-147l-111 526l-111 -526h-147l-143 655h126l95 -532l109 532h141l110 -531l94 531h126zM469 708h-96l-101 136h122z" />
    <glyph glyph-name="wgrave" unicode="&#x1e81;" horiz-adv-x="671" 
d="M549 0h-133l-81 375l-81 -375h-134l-109 488h123l61 -375l74 375h132l74 -375l61 375h123zM389 546h-94l-107 148h120z" />
    <glyph glyph-name="Wacute" unicode="&#x1e82;" horiz-adv-x="832" 
d="M675 0h-147l-111 526l-111 -526h-147l-143 655h126l95 -532l109 532h141l110 -531l94 531h126zM447 708h-95l75 136h122z" />
    <glyph glyph-name="wacute" unicode="&#x1e83;" horiz-adv-x="671" 
d="M549 0h-133l-81 375l-81 -375h-134l-109 488h123l61 -375l74 375h132l74 -375l61 375h123zM374 546h-94l81 148h120z" />
    <glyph glyph-name="Wdieresis" unicode="&#x1e84;" horiz-adv-x="832" 
d="M675 0h-147l-111 526l-111 -526h-147l-143 655h126l95 -532l109 532h141l110 -531l94 531h126zM320 847c42 0 66 -20 66 -57v-26c0 -35 -24 -56 -66 -56c-41 0 -66 21 -66 56v26c0 37 25 57 66 57zM510 847c43 0 66 -20 66 -57v-26c0 -35 -23 -56 -66 -56
c-40 0 -66 21 -66 56v26c0 37 26 57 66 57z" />
    <glyph glyph-name="wdieresis" unicode="&#x1e85;" horiz-adv-x="671" 
d="M549 0h-133l-81 375l-81 -375h-134l-109 488h123l61 -375l74 375h132l74 -375l61 375h123zM239 700c42 0 66 -19 66 -56v-26c0 -34 -24 -55 -66 -55c-40 0 -65 21 -65 55v26c0 37 25 56 65 56zM430 700c42 0 66 -19 66 -56v-26c0 -34 -24 -55 -66 -55
c-40 0 -65 21 -65 55v26c0 37 25 56 65 56z" />
    <glyph glyph-name="Ygrave" unicode="&#x1ef2;" horiz-adv-x="513" 
d="M316 226v-226h-120v226l-189 429h135l115 -313l116 313h132zM310 708h-96l-101 136h122z" />
    <glyph glyph-name="ygrave" unicode="&#x1ef3;" horiz-adv-x="445" 
d="M233 -185h-114l59 185h-44l-130 488h127l82 -401l108 401h121zM276 546h-94l-107 148h120z" />
    <glyph glyph-name="uni2007" unicode="&#x2007;" horiz-adv-x="510" 
 />
    <glyph glyph-name="uni2008" unicode="&#x2008;" horiz-adv-x="223" 
 />
    <glyph glyph-name="uni200B" unicode="&#x200b;" horiz-adv-x="0" 
 />
    <glyph glyph-name="endash" unicode="&#x2013;" horiz-adv-x="584" 
d="M539 247h-493v96h493v-96z" />
    <glyph glyph-name="emdash" unicode="&#x2014;" horiz-adv-x="684" 
d="M639 247h-593v96h593v-96z" />
    <glyph glyph-name="afii00208" unicode="&#x2015;" horiz-adv-x="584" 
d="M539 247h-493v96h493v-96z" />
    <glyph glyph-name="quoteleft" unicode="&#x2018;" horiz-adv-x="213" 
d="M163 696l-23 -103c22 -7 35 -26 35 -53v-26c0 -37 -23 -59 -68 -59c-46 0 -69 22 -69 59v28c0 20 2 36 9 56l33 98h83z" />
    <glyph glyph-name="quoteright" unicode="&#x2019;" horiz-adv-x="213" 
d="M106 695c46 0 69 -21 69 -59v-28c0 -20 -2 -36 -8 -56l-33 -97h-83l22 103c-22 6 -35 25 -35 52v26c0 38 23 59 68 59z" />
    <glyph glyph-name="quotesinglbase" unicode="&#x201a;" horiz-adv-x="213" 
d="M106 132c46 0 69 -21 69 -59v-27c0 -20 -2 -37 -8 -56l-33 -98h-83l22 103c-22 7 -35 25 -35 53v25c0 38 23 59 68 59z" />
    <glyph glyph-name="quotedblleft" unicode="&#x201c;" horiz-adv-x="386" 
d="M163 695l-23 -103c22 -7 35 -25 35 -53v-25c0 -38 -23 -59 -68 -59c-46 0 -69 21 -69 59v27c0 20 2 37 9 56l33 98h83zM336 695l-23 -103c22 -7 35 -25 35 -53v-25c0 -38 -23 -59 -68 -59c-46 0 -69 21 -69 59v27c0 20 2 37 9 56l33 98h83z" />
    <glyph glyph-name="quotedblright" unicode="&#x201d;" horiz-adv-x="386" 
d="M106 695c46 0 69 -21 69 -59v-28c0 -20 -2 -36 -8 -56l-33 -97h-83l22 103c-22 6 -35 25 -35 52v26c0 38 23 59 68 59zM279 695c46 0 69 -21 69 -59v-28c0 -20 -2 -36 -8 -56l-33 -97h-83l22 103c-22 6 -35 25 -35 52v26c0 38 23 59 68 59z" />
    <glyph glyph-name="quotedblbase" unicode="&#x201e;" horiz-adv-x="386" 
d="M106 132c46 0 69 -21 69 -59v-27c0 -20 -2 -37 -8 -56l-33 -98h-83l22 103c-22 7 -35 25 -35 53v25c0 38 23 59 68 59zM279 132c46 0 69 -21 69 -59v-27c0 -20 -2 -37 -8 -56l-33 -98h-83l22 103c-22 7 -35 25 -35 53v25c0 38 23 59 68 59z" />
    <glyph glyph-name="dagger" unicode="&#x2020;" horiz-adv-x="433" 
d="M274 488h141v-110h-141v-378h-116v378h-141v110h141v167h116v-167z" />
    <glyph glyph-name="daggerdbl" unicode="&#x2021;" horiz-adv-x="444" 
d="M280 488h141v-110h-141v-106h141v-110h-141v-162h-116v162h-141v110h141v106h-141v110h141v167h116v-167z" />
    <glyph glyph-name="bullet" unicode="&#x2022;" horiz-adv-x="230" 
d="M115 346c49 0 77 -24 77 -65v-31c0 -41 -28 -65 -77 -65s-77 24 -77 65v31c0 41 28 65 77 65z" />
    <glyph glyph-name="ellipsis" unicode="&#x2026;" horiz-adv-x="596" 
d="M298 136c46 0 71 -21 71 -61v-27c0 -38 -25 -60 -71 -60s-71 22 -71 60v27c0 40 25 61 71 61zM108 136c46 0 71 -21 71 -61v-27c0 -38 -25 -60 -71 -60s-71 22 -71 60v27c0 40 25 61 71 61zM487 136c46 0 71 -21 71 -61v-27c0 -38 -25 -60 -71 -60s-71 22 -71 60v27
c0 40 25 61 71 61z" />
    <glyph glyph-name="perthousand" unicode="&#x2030;" horiz-adv-x="1253" 
d="M200 625c109 0 164 -59 164 -166v-28c0 -107 -54 -167 -164 -167c-108 0 -166 58 -166 167v28c0 107 57 166 166 166zM337 0h-126l335 613h127zM200 524c-34 0 -52 -18 -52 -62v-34c0 -44 18 -63 52 -63s51 19 51 63v34c0 45 -17 62 -51 62zM684 349
c109 0 164 -59 164 -167v-28c0 -106 -54 -166 -164 -166c-108 0 -166 58 -166 166v28c0 108 57 167 166 167zM1063 349c109 0 164 -59 164 -167v-28c0 -106 -54 -166 -164 -166c-108 0 -166 58 -166 166v28c0 108 57 167 166 167zM684 248c-34 0 -52 -19 -52 -63v-34
c0 -44 18 -62 52 -62s51 19 51 62v34c0 45 -17 63 -51 63zM1063 248c-34 0 -52 -19 -52 -63v-34c0 -44 18 -62 52 -62s51 19 51 62v34c0 45 -17 63 -51 63z" />
    <glyph glyph-name="guilsinglleft" unicode="&#x2039;" horiz-adv-x="319" 
d="M177 267l96 -176h-124l-103 176l103 175h124z" />
    <glyph glyph-name="guilsinglright" unicode="&#x203a;" horiz-adv-x="319" 
d="M274 267l-104 -176h-124l97 176l-97 175h124z" />
    <glyph glyph-name="fraction" unicode="&#x2044;" horiz-adv-x="380" 
d="M96 0h-116l305 601h116z" />
    <glyph glyph-name="uni2070" unicode="&#x2070;" horiz-adv-x="400" 
d="M199 759c96 0 149 -47 149 -145v-145c0 -96 -50 -147 -149 -147c-97 0 -148 51 -148 147v145c0 98 53 145 148 145zM200 667c-29 0 -45 -14 -45 -52v-148c0 -36 15 -53 45 -53s45 17 45 53v148c0 38 -17 52 -45 52z" />
    <glyph glyph-name="uni2074" unicode="&#x2074;" horiz-adv-x="400" 
d="M137 498h87v29l4 90h95v-119h46v-88h-46v-79h-99v79h-169l-25 52l100 290h91z" />
    <glyph glyph-name="uni2075" unicode="&#x2075;" horiz-adv-x="400" 
d="M307 665h-154v-93c23 20 56 31 90 31c60 0 99 -37 99 -122v-18c0 -94 -46 -140 -153 -140c-38 0 -95 7 -125 15v85c30 -5 92 -12 115 -12c42 0 60 18 60 50v18c0 27 -15 42 -38 42c-28 0 -47 -9 -68 -31h-76v263h250v-88z" />
    <glyph glyph-name="uni2076" unicode="&#x2076;" horiz-adv-x="400" 
d="M317 752v-81c-126 -4 -162 -35 -162 -96v-13c27 25 56 38 88 38c63 0 104 -38 104 -123v-22c0 -81 -49 -132 -150 -132c-93 0 -144 49 -144 141v90c0 127 76 198 264 198zM211 518c-19 0 -36 -12 -56 -30v-36c0 -29 16 -45 46 -45c28 0 44 16 44 43v30
c0 25 -14 38 -34 38z" />
    <glyph glyph-name="uni2077" unicode="&#x2077;" horiz-adv-x="400" 
d="M345 685l-161 -354h-108l152 333h-173v87h290v-66z" />
    <glyph glyph-name="uni2078" unicode="&#x2078;" horiz-adv-x="400" 
d="M200 760c88 0 137 -40 137 -110v-6c0 -40 -17 -71 -50 -85c45 -17 68 -52 68 -94v-14c0 -82 -51 -128 -155 -128c-102 0 -156 45 -156 128v14c0 42 24 78 68 94c-34 15 -50 46 -50 85v6c0 69 48 110 138 110zM200 684c-27 0 -42 -12 -42 -33v-22c0 -25 9 -36 42 -36
c32 0 41 11 41 36v22c0 21 -14 33 -41 33zM200 516c-34 0 -53 -19 -53 -45v-26c0 -23 19 -41 53 -41s52 19 52 41v26c0 26 -19 45 -52 45z" />
    <glyph glyph-name="uni2079" unicode="&#x2079;" horiz-adv-x="400" 
d="M202 759c91 0 145 -48 145 -140v-136c0 -107 -52 -160 -160 -160c-33 0 -80 5 -108 10v87c22 -4 71 -10 99 -10c49 0 67 20 67 65v39c-27 -25 -56 -38 -87 -38c-65 0 -105 41 -105 125v24c0 86 53 134 149 134zM199 673c-28 0 -44 -15 -44 -43v-31c0 -26 13 -38 34 -38
c20 0 36 12 56 29v38c0 30 -15 45 -46 45z" />
    <glyph glyph-name="uni207A" unicode="&#x207a;" horiz-adv-x="400" 
d="M248 579h94v-88h-94v-91h-96v91h-95v88h95v96h96v-96z" />
    <glyph glyph-name="uni207B" unicode="&#x207b;" horiz-adv-x="400" 
d="M341 491h-284v88h284v-88z" />
    <glyph glyph-name="uni207C" unicode="&#x207c;" horiz-adv-x="400" 
d="M342 559h-284v89h284v-89zM342 433h-284v87h284v-87z" />
    <glyph glyph-name="uni207D" unicode="&#x207d;" horiz-adv-x="400" 
d="M282 859v-89c-45 -3 -57 -15 -57 -56v-330c0 -43 12 -54 57 -57v-89c-115 0 -165 40 -165 152v316c0 112 48 155 165 153z" />
    <glyph glyph-name="uni207E" unicode="&#x207e;" horiz-adv-x="400" 
d="M117 770v89c117 2 165 -41 165 -153v-316c0 -112 -50 -152 -165 -152v89c45 3 57 14 57 57v330c0 41 -12 53 -57 56z" />
    <glyph glyph-name="uni2080" unicode="&#x2080;" horiz-adv-x="400" 
d="M199 278c96 0 149 -47 149 -145v-145c0 -96 -50 -147 -149 -147c-97 0 -148 51 -148 147v145c0 98 53 145 148 145zM200 186c-29 0 -45 -14 -45 -52v-148c0 -36 15 -53 45 -53s45 17 45 53v148c0 38 -17 52 -45 52z" />
    <glyph glyph-name="uni2081" unicode="&#x2081;" horiz-adv-x="399" 
d="M266 -58h75v-92h-265v92h87v225h-2l-84 -34l-21 88l134 50h76v-329z" />
    <glyph glyph-name="uni2082" unicode="&#x2082;" horiz-adv-x="400" 
d="M183 279c104 0 151 -43 151 -121v-15c0 -45 -16 -82 -62 -127l-71 -74h133v-92h-269v76l139 157c20 22 25 35 25 56v12c0 25 -16 38 -57 38c-24 0 -62 -5 -96 -15v90c40 9 82 15 107 15z" />
    <glyph glyph-name="uni2083" unicode="&#x2083;" horiz-adv-x="400" 
d="M183 279c92 0 141 -44 141 -108v-11c0 -40 -21 -74 -65 -90c46 -14 74 -53 74 -98v-8c0 -71 -53 -122 -148 -122c-24 0 -68 3 -108 9v87c34 -5 75 -8 99 -8c36 0 50 14 50 41v10c0 30 -15 45 -54 45h-70v80h68c36 0 48 14 48 43v10c0 23 -13 34 -45 34
c-24 0 -63 -5 -96 -10v87c40 6 81 9 106 9z" />
    <glyph glyph-name="uni2084" unicode="&#x2084;" horiz-adv-x="400" 
d="M137 17h87v29l4 90h95v-119h46v-88h-46v-79h-99v79h-169l-25 52l100 290h91z" />
    <glyph glyph-name="uni2085" unicode="&#x2085;" horiz-adv-x="400" 
d="M307 184h-154v-93c23 20 56 31 90 31c60 0 99 -37 99 -122v-18c0 -94 -46 -140 -153 -140c-38 0 -95 7 -125 15v85c30 -5 92 -12 115 -12c42 0 60 18 60 50v18c0 27 -15 42 -38 42c-28 0 -47 -9 -68 -31h-76v263h250v-88z" />
    <glyph glyph-name="uni2086" unicode="&#x2086;" horiz-adv-x="400" 
d="M317 271v-81c-126 -4 -162 -35 -162 -96v-13c27 25 56 38 88 38c63 0 104 -38 104 -123v-22c0 -81 -49 -132 -150 -132c-93 0 -144 49 -144 141v90c0 127 76 198 264 198zM211 37c-19 0 -36 -12 -56 -30v-36c0 -29 16 -45 46 -45c28 0 44 16 44 43v30c0 25 -14 38 -34 38
z" />
    <glyph glyph-name="uni2087" unicode="&#x2087;" horiz-adv-x="400" 
d="M345 204l-161 -354h-108l152 333h-173v87h290v-66z" />
    <glyph glyph-name="uni2088" unicode="&#x2088;" horiz-adv-x="400" 
d="M200 279c88 0 137 -40 137 -110v-6c0 -40 -17 -71 -50 -85c45 -17 68 -52 68 -94v-14c0 -82 -51 -128 -155 -128c-102 0 -156 45 -156 128v14c0 42 24 78 68 94c-34 15 -50 46 -50 85v6c0 69 48 110 138 110zM200 203c-27 0 -42 -12 -42 -33v-22c0 -25 9 -36 42 -36
c32 0 41 11 41 36v22c0 21 -14 33 -41 33zM200 35c-34 0 -53 -19 -53 -45v-26c0 -23 19 -41 53 -41s52 19 52 41v26c0 26 -19 45 -52 45z" />
    <glyph glyph-name="uni2089" unicode="&#x2089;" horiz-adv-x="400" 
d="M202 278c91 0 145 -48 145 -140v-136c0 -107 -52 -160 -160 -160c-33 0 -80 5 -108 10v87c22 -4 71 -10 99 -10c49 0 67 20 67 65v39c-27 -25 -56 -38 -87 -38c-65 0 -105 41 -105 125v24c0 86 53 134 149 134zM199 192c-28 0 -44 -15 -44 -43v-31c0 -26 13 -38 34 -38
c20 0 36 12 56 29v38c0 30 -15 45 -46 45z" />
    <glyph glyph-name="uni208A" unicode="&#x208a;" horiz-adv-x="400" 
d="M248 98h94v-88h-94v-91h-96v91h-95v88h95v96h96v-96z" />
    <glyph glyph-name="uni208B" unicode="&#x208b;" horiz-adv-x="400" 
d="M341 10h-284v88h284v-88z" />
    <glyph glyph-name="uni208C" unicode="&#x208c;" horiz-adv-x="400" 
d="M342 78h-284v89h284v-89zM342 -48h-284v87h284v-87z" />
    <glyph glyph-name="uni208D" unicode="&#x208d;" horiz-adv-x="400" 
d="M282 378v-89c-45 -3 -57 -15 -57 -56v-330c0 -43 12 -54 57 -57v-89c-115 0 -165 40 -165 152v316c0 112 48 155 165 153z" />
    <glyph glyph-name="uni208E" unicode="&#x208e;" horiz-adv-x="400" 
d="M117 289v89c117 2 165 -41 165 -153v-316c0 -112 -50 -152 -165 -152v89c45 3 57 14 57 57v330c0 41 -12 53 -57 56z" />
    <glyph glyph-name="Euro" unicode="&#x20ac;" horiz-adv-x="456" 
d="M289 613c43 0 97 -6 147 -15l-2 -101c-40 8 -90 16 -133 16c-71 0 -98 -26 -98 -94v-15h190l-18 -84h-172v-47h161l-18 -83h-143v-7c0 -65 29 -92 94 -92c44 0 95 9 137 17l2 -104c-50 -9 -104 -16 -147 -16c-143 0 -203 69 -203 199v3h-80l18 83h62v47h-72l18 84h54v9
c0 133 64 200 203 200z" />
    <glyph glyph-name="uni2116" unicode="&#x2116;" horiz-adv-x="1021" 
d="M172 463v-463h-116v655h163l169 -463v463h115v-655h-159zM775 667c124 0 183 -68 183 -187v-82c0 -122 -62 -186 -183 -186c-120 0 -182 64 -182 186v82c0 119 59 187 182 187zM776 566c-42 0 -66 -26 -66 -77v-99c0 -51 24 -77 66 -77s66 26 66 77v99
c0 52 -25 77 -66 77zM954 0h-356v103h356v-103z" />
    <glyph glyph-name="trademark" unicode="&#x2122;" horiz-adv-x="744" 
d="M339 600h-98v-250h-100v250h-106v83h304v-83zM710 350h-97l1 165l-50 -135h-58l-49 135l-2 -165h-97l4 333h107l68 -173l66 173h105z" />
    <glyph glyph-name="Omega" unicode="&#x2126;" horiz-adv-x="554" 
d="M276 667c153 0 227 -80 227 -218v-188c0 -65 -18 -115 -63 -151h72v-110h-206v105h6c43 0 71 40 71 106v247c0 67 -38 103 -107 103c-68 0 -106 -36 -106 -103v-247c0 -66 28 -106 71 -106h6v-105h-206v110h72c-45 36 -62 87 -62 151v188c0 138 72 218 225 218z" />
    <glyph glyph-name="estimated" unicode="&#x212e;" horiz-adv-x="955" 
d="M477 703c214 0 403 -153 403 -376h-657v-218c42 -63 161 -97 255 -97s204 33 260 98h58c-73 -85 -180 -137 -319 -137c-229 0 -402 152 -402 362s181 368 402 368zM478 664c-117 0 -204 -39 -255 -101v-196h509v195c-56 61 -137 102 -254 102z" />
    <glyph glyph-name="onethird" unicode="&#x2153;" horiz-adv-x="1000" 
d="M255 273h75v-92h-265v92h87v225h-2l-84 -34l-21 88l134 50h76v-329zM404 0h-116l305 601h116zM804 429c92 0 141 -44 141 -108v-11c0 -40 -21 -74 -65 -90c46 -14 74 -53 74 -98v-8c0 -71 -53 -122 -148 -122c-24 0 -68 3 -108 9v87c34 -5 75 -8 99 -8c36 0 50 14 50 41
v10c0 30 -15 45 -54 45h-70v80h68c36 0 48 14 48 43v10c0 23 -13 34 -45 34c-24 0 -63 -5 -96 -10v87c40 6 81 9 106 9z" />
    <glyph glyph-name="twothirds" unicode="&#x2154;" horiz-adv-x="1000" 
d="M171 610c104 0 151 -43 151 -121v-15c0 -45 -16 -82 -62 -127l-71 -74h133v-92h-269v76l139 157c20 22 25 35 25 56v12c0 25 -16 38 -57 38c-24 0 -62 -5 -96 -15v90c40 9 82 15 107 15zM402 0h-116l305 601h116zM796 429c92 0 141 -44 141 -108v-11
c0 -40 -21 -74 -65 -90c46 -14 74 -53 74 -98v-8c0 -71 -53 -122 -148 -122c-24 0 -68 3 -108 9v87c34 -5 75 -8 99 -8c36 0 50 14 50 41v10c0 30 -15 45 -54 45h-70v80h68c36 0 48 14 48 43v10c0 23 -13 34 -45 34c-24 0 -63 -5 -96 -10v87c40 6 81 9 106 9z" />
    <glyph glyph-name="arrowleft" unicode="&#x2190;" horiz-adv-x="900" 
d="M437 576l-206 -202h282v-104h-282l206 -202l-73 -73l-318 327l318 327zM699 270h-135v104h135v-104zM854 270h-105v104h105v-104z" />
    <glyph glyph-name="arrowup" unicode="&#x2191;" horiz-adv-x="900" 
d="M776 378l-72 -74l-200 206v-283h-108v283l-200 -206l-72 74l326 316zM504 42h-108v135h108v-135zM504 -113h-108v105h108v-105z" />
    <glyph glyph-name="arrowright" unicode="&#x2192;" horiz-adv-x="900" 
d="M853 322l-318 -327l-73 73l206 202h-282v104h282l-206 202l73 73zM151 270h-105v104h105v-104zM336 270h-135v104h135v-104z" />
    <glyph glyph-name="arrowdown" unicode="&#x2193;" horiz-adv-x="900" 
d="M504 620h-108v105h108v-105zM504 436h-108v135h108v-135zM504 103l200 206l72 -74l-326 -317l-326 317l72 74l200 -206v283h108v-283z" />
    <glyph glyph-name="arrowboth" unicode="&#x2194;" horiz-adv-x="1291" 
d="M437 576l-206 -202h199v-104h-199l206 -202l-73 -73l-318 327l318 327zM1244 322l-318 -327l-73 73l206 202h-199v104h199l-206 202l73 73zM566 270h-85v104h85v-104zM675 270h-59v104h59v-104zM810 270h-85v104h85v-104z" />
    <glyph glyph-name="arrowupdn" unicode="&#x2195;" horiz-adv-x="900" 
d="M776 532l-72 -74l-200 206v-200h-108v200l-200 -206l-72 74l326 316zM502 329h-105v85h105v-85zM502 220h-105v59h105v-59zM502 85h-105v85h105v-85zM776 -33l-326 -316l-326 316l72 74l200 -206v200h108v-200l200 206z" />
    <glyph glyph-name="uni2196" unicode="&#x2196;" horiz-adv-x="900" 
d="M603 537l-290 2l200 -199l-73 -73l-200 200l4 -289h-104l7 456l456 7v-104zM644 209l-73 -73l-96 96l73 73zM753 100l-73 -73l-74 74l73 73z" />
    <glyph glyph-name="uni2197" unicode="&#x2197;" horiz-adv-x="900" 
d="M747 634l7 -456h-105l4 289l-200 -200l-73 73l200 199l-289 -2v104zM418 232l-96 -96l-73 73l96 96zM287 101l-74 -74l-73 73l74 74z" />
    <glyph glyph-name="uni2198" unicode="&#x2198;" horiz-adv-x="900" 
d="M287 571l-73 -74l-74 74l73 74zM418 440l-73 -73l-96 95l73 74zM747 38l-456 -7v104l289 -2l-200 198l73 73l200 -199l-4 289h105z" />
    <glyph glyph-name="uni2199" unicode="&#x2199;" horiz-adv-x="900" 
d="M753 571l-74 -74l-73 74l74 74zM644 462l-96 -95l-73 73l96 96zM240 205l200 199l73 -73l-200 -198l290 2v-104l-456 7l-7 456h104z" />
    <glyph glyph-name="partialdiff" unicode="&#x2202;" horiz-adv-x="444" 
d="M77 603v92c207 0 322 -120 322 -357v-163c0 -117 -59 -187 -180 -187c-129 0 -179 54 -179 175v103c0 113 51 173 130 173c38 0 83 -22 114 -68v21c0 137 -83 211 -207 211zM202 333c-28 0 -45 -20 -45 -78v-101c0 -44 22 -65 63 -65c43 0 63 23 63 65v118
c-25 41 -54 61 -81 61z" />
    <glyph glyph-name="Delta" unicode="&#x2206;" horiz-adv-x="527" 
d="M511 74v-74h-494v73l177 582h139zM142 106h237l-116 449z" />
    <glyph glyph-name="product" unicode="&#x220f;" horiz-adv-x="584" 
d="M587 545h-88v-730h-116v730h-181v-730h-116v730h-88v110h589v-110z" />
    <glyph glyph-name="summation" unicode="&#x2211;" horiz-adv-x="414" 
d="M406 548h-258l166 -277v-63l-171 -286h263v-107h-399v90l194 331l-194 329v90h399v-107z" />
    <glyph glyph-name="minus" unicode="&#x2212;" horiz-adv-x="407" 
d="M387 245h-367v101h367v-101z" />
    <glyph glyph-name="uni2219" unicode="&#x2219;" horiz-adv-x="217" 
d="M108 336c46 0 71 -21 71 -61v-27c0 -38 -25 -60 -71 -60s-71 22 -71 60v27c0 40 25 61 71 61z" />
    <glyph glyph-name="radical" unicode="&#x221a;" horiz-adv-x="510" 
d="M572 587h-97l-183 -587h-142l-139 488h123l90 -400l162 595h186v-96z" />
    <glyph glyph-name="infinity" unicode="&#x221e;" horiz-adv-x="530" 
d="M370 436c98 0 145 -47 145 -139v-10c0 -88 -45 -138 -145 -138c-43 0 -82 17 -105 49c-23 -32 -62 -49 -105 -49c-100 0 -145 49 -145 138v10c0 91 47 139 145 139c43 0 83 -18 105 -49c23 31 62 49 105 49zM166 344c-32 0 -46 -17 -46 -44v-16c0 -28 14 -43 46 -43
s46 16 46 43v16c0 27 -15 44 -46 44zM364 344c-31 0 -46 -17 -46 -44v-16c0 -27 14 -43 46 -43s46 15 46 43v16c0 27 -14 44 -46 44z" />
    <glyph glyph-name="integral" unicode="&#x222b;" horiz-adv-x="321" 
d="M258 695c24 0 59 -4 78 -8v-98c-23 4 -42 6 -64 6c-36 0 -58 -19 -58 -70v-552c0 -109 -56 -169 -160 -169c-24 0 -59 4 -78 8v97c23 -3 42 -5 64 -5c37 0 58 18 58 69v553c0 110 57 169 160 169z" />
    <glyph glyph-name="approxequal" unicode="&#x2248;" horiz-adv-x="407" 
d="M132 456c65 0 85 -27 146 -27c41 0 109 29 109 29v-101s-51 -31 -111 -31c-66 0 -85 26 -147 26c-41 0 -109 -28 -109 -28v101s52 31 112 31zM132 289c65 0 85 -27 146 -27c41 0 109 29 109 29v-101s-51 -31 -111 -31c-66 0 -85 26 -148 26c-40 0 -108 -28 -108 -28v101
s52 31 112 31z" />
    <glyph glyph-name="notequal" unicode="&#x2260;" horiz-adv-x="407" 
d="M336 438h50v-100h-112l-47 -75h159v-100h-222l-32 -52h-94l32 52h-50v100h113l46 75h-159v100h222l32 51h94z" />
    <glyph glyph-name="lessequal" unicode="&#x2264;" horiz-adv-x="407" 
d="M389 431l-228 -95l228 -95v-117l-372 166v92l372 165v-116zM389 0h-372v101h372v-101z" />
    <glyph glyph-name="greaterequal" unicode="&#x2265;" horiz-adv-x="407" 
d="M389 382v-92l-372 -166v117l229 95l-229 95v116zM389 0h-372v101h372v-101z" />
    <glyph glyph-name="dotmath" unicode="&#x22c5;" horiz-adv-x="217" 
d="M108 336c46 0 71 -21 71 -61v-27c0 -38 -25 -60 -71 -60s-71 22 -71 60v27c0 40 25 61 71 61z" />
    <glyph glyph-name="uni25AF" unicode="&#x25af;" horiz-adv-x="465" 
d="M53 0v655h359v-655h-359zM149 96h167v463h-167v-463z" />
    <glyph glyph-name="lozenge" unicode="&#x25ca;" horiz-adv-x="545" 
d="M540 342l-217 -342h-101l-217 342l217 341h101zM136 342l137 -232l137 232l-137 232z" />
    <glyph glyph-name="uniFB00" unicode="&#xfb00;" horiz-adv-x="549" 
d="M486 695c23 0 58 -4 77 -8v-98c-23 4 -42 6 -63 6c-37 0 -58 -19 -58 -61v-46h85v-101h-85v-387h-117v387h-126v-387h-116v387h-64v101h64v31c0 116 50 172 165 172c41 0 87 -8 132 -22c25 16 62 26 106 26zM261 593c-43 0 -61 -19 -61 -62v-43h126v42c0 19 2 37 7 53
c-20 6 -46 10 -72 10z" />
    <glyph glyph-name="fi" unicode="&#xfb01;" horiz-adv-x="492" 
d="M250 695c29 0 77 -6 107 -11v-103c-30 8 -66 14 -94 14c-45 0 -64 -18 -64 -62v-45h240v-488h-117v387h-123v-387h-116v387h-64v101h64v35c0 117 51 172 167 172z" />
    <glyph glyph-name="fl" unicode="&#xfb02;" horiz-adv-x="495" 
d="M250 695c31 0 82 -8 111 -14l81 6v-687h-117v586c-19 5 -44 9 -66 9c-41 0 -60 -19 -60 -62v-45h62v-101h-62v-387h-116v387h-64v101h64v35c0 118 52 172 167 172z" />
    <glyph glyph-name="uniFB03" unicode="&#xfb03;" horiz-adv-x="735" 
d="M492 695c29 0 78 -6 108 -11v-103c-30 8 -66 14 -95 14c-45 0 -63 -19 -63 -62v-45h239v-488h-116v387h-123v-387h-117v387h-126v-387h-116v387h-64v101h64v31c0 116 50 172 165 172c41 0 87 -8 132 -22c25 16 65 26 112 26zM261 593c-43 0 -61 -19 -61 -62v-43h126v39
c0 20 2 39 7 56c-20 6 -46 10 -72 10z" />
    <glyph glyph-name="uniFB04" unicode="&#xfb04;" horiz-adv-x="737" 
d="M492 695c31 0 83 -8 112 -14l80 6v-687h-116v586c-20 5 -45 9 -67 9c-41 0 -59 -19 -59 -62v-45h61v-101h-61v-387h-117v387h-126v-387h-116v387h-64v101h64v31c0 116 50 172 165 172c41 0 87 -8 132 -22c25 16 64 26 112 26zM260 593c-43 0 -61 -19 -61 -62v-43h126v39
c0 20 2 39 7 56c-20 6 -46 10 -72 10z" />
    <glyph glyph-name="uniFB06" unicode="&#xfb06;" horiz-adv-x="720" 
d="M317 695c52 0 118 -23 166 -64l86 4v-147h121v-101h-121v-235c0 -46 18 -61 54 -61c26 0 61 5 81 9l2 -101c-19 -4 -59 -11 -92 -11c-114 0 -162 46 -162 169v230h-62v101h65l9 73c-31 35 -79 59 -127 59c-34 0 -47 -15 -47 -41c0 -13 5 -32 15 -57l14 -38l-2 -97
c-42 9 -76 14 -103 14c-52 0 -69 -15 -69 -42v-6c0 -17 7 -25 29 -35l92 -41c60 -27 88 -69 88 -123v-20c0 -95 -51 -146 -177 -146c-38 0 -84 8 -138 20l6 106c47 -13 97 -22 131 -22c48 0 63 13 63 40v6c0 21 -7 33 -30 43l-87 38c-64 27 -93 68 -93 122v13
c2 96 54 146 170 146c6 0 21 0 35 -2l-12 22c-16 27 -25 53 -25 76c0 60 37 99 120 99z" />
    <glyph glyph-name="uniFEFF" unicode="&#xfeff;" horiz-adv-x="0" 
 />
    <glyph glyph-name="i.latn_TRK" horiz-adv-x="222" 
d="M111 706c45 0 70 -20 70 -59v-27c0 -37 -25 -59 -70 -59c-43 0 -69 22 -69 59v27c0 39 26 59 69 59zM170 0h-117v488h117v-488z" />
    <glyph glyph-name="Ldot.latn_CAT" horiz-adv-x="440" 
d="M176 108h245v-108h-365v655h120v-547zM327 445c45 0 70 -20 70 -60v-26c0 -38 -25 -60 -70 -60c-44 0 -70 22 -70 60v26c0 40 26 60 70 60z" />
    <glyph glyph-name="ldot.latn_CAT" horiz-adv-x="318" 
d="M170 0h-117v683h117v-683zM269 500c45 0 70 -20 70 -59v-27c0 -37 -25 -59 -70 -59c-43 0 -69 22 -69 59v27c0 39 26 59 69 59z" />
    <glyph glyph-name="parenleft.numr" horiz-adv-x="400" 
d="M282 709v-89c-45 -3 -57 -15 -57 -56v-330c0 -43 12 -54 57 -57v-89c-115 0 -165 40 -165 152v316c0 112 48 155 165 153z" />
    <glyph glyph-name="parenright.numr" horiz-adv-x="400" 
d="M117 620v89c117 2 165 -41 165 -153v-316c0 -112 -50 -152 -165 -152v89c45 3 57 14 57 57v330c0 41 -12 53 -57 56z" />
    <glyph glyph-name="plus.numr" horiz-adv-x="400" 
d="M248 429h94v-88h-94v-91h-96v91h-95v88h95v96h96v-96z" />
    <glyph glyph-name="zero.numr" horiz-adv-x="400" 
d="M199 609c96 0 149 -47 149 -145v-145c0 -96 -50 -147 -149 -147c-97 0 -148 51 -148 147v145c0 98 53 145 148 145zM200 517c-29 0 -45 -14 -45 -52v-148c0 -36 15 -53 45 -53s45 17 45 53v148c0 38 -17 52 -45 52z" />
    <glyph glyph-name="one.numr" horiz-adv-x="400" 
d="M266 273h75v-92h-265v92h87v225h-2l-84 -34l-21 88l134 50h76v-329z" />
    <glyph glyph-name="two.numr" horiz-adv-x="400" 
d="M183 610c104 0 151 -43 151 -121v-15c0 -45 -16 -82 -62 -127l-71 -74h133v-92h-269v76l139 157c20 22 25 35 25 56v12c0 25 -16 38 -57 38c-24 0 -62 -5 -96 -15v90c40 9 82 15 107 15z" />
    <glyph glyph-name="three.numr" horiz-adv-x="400" 
d="M183 610c92 0 141 -44 141 -108v-11c0 -40 -21 -74 -65 -90c46 -14 74 -53 74 -98v-8c0 -71 -53 -122 -148 -122c-24 0 -68 3 -108 9v87c34 -5 75 -8 99 -8c36 0 50 14 50 41v10c0 30 -15 45 -54 45h-70v80h68c36 0 48 14 48 43v10c0 23 -13 34 -45 34
c-24 0 -63 -5 -96 -10v87c40 6 81 9 106 9z" />
    <glyph glyph-name="four.numr" horiz-adv-x="400" 
d="M137 348h87v29l4 90h95v-119h46v-88h-46v-79h-99v79h-169l-25 52l100 290h91z" />
    <glyph glyph-name="five.numr" horiz-adv-x="400" 
d="M307 515h-154v-93c23 20 56 31 90 31c60 0 99 -37 99 -122v-18c0 -94 -46 -140 -153 -140c-38 0 -95 7 -125 15v85c30 -5 92 -12 115 -12c42 0 60 18 60 50v18c0 27 -15 42 -38 42c-28 0 -47 -9 -68 -31h-76v263h250v-88z" />
    <glyph glyph-name="six.numr" horiz-adv-x="400" 
d="M317 602v-81c-126 -4 -162 -35 -162 -96v-13c27 25 56 38 88 38c63 0 104 -38 104 -123v-22c0 -81 -49 -132 -150 -132c-93 0 -144 49 -144 141v90c0 127 76 198 264 198zM211 368c-19 0 -36 -12 -56 -30v-36c0 -29 16 -45 46 -45c28 0 44 16 44 43v30
c0 25 -14 38 -34 38z" />
    <glyph glyph-name="seven.numr" horiz-adv-x="400" 
d="M345 535l-161 -354h-108l152 333h-173v87h290v-66z" />
    <glyph glyph-name="eight.numr" horiz-adv-x="400" 
d="M200 610c88 0 137 -40 137 -110v-6c0 -40 -17 -71 -50 -85c45 -17 68 -52 68 -94v-14c0 -82 -51 -128 -155 -128c-102 0 -156 45 -156 128v14c0 42 24 78 68 94c-34 15 -50 46 -50 85v6c0 69 48 110 138 110zM200 534c-27 0 -42 -12 -42 -33v-22c0 -25 9 -36 42 -36
c32 0 41 11 41 36v22c0 21 -14 33 -41 33zM200 366c-34 0 -53 -19 -53 -45v-26c0 -23 19 -41 53 -41s52 19 52 41v26c0 26 -19 45 -52 45z" />
    <glyph glyph-name="nine.numr" horiz-adv-x="400" 
d="M202 609c91 0 145 -48 145 -140v-136c0 -107 -52 -160 -160 -160c-33 0 -80 5 -108 10v87c22 -4 71 -10 99 -10c49 0 67 20 67 65v39c-27 -25 -56 -38 -87 -38c-65 0 -105 41 -105 125v24c0 86 53 134 149 134zM199 523c-28 0 -44 -15 -44 -43v-31c0 -26 13 -38 34 -38
c20 0 36 12 56 29v38c0 30 -15 45 -46 45z" />
    <glyph glyph-name="equal.numr" horiz-adv-x="400" 
d="M342 409h-284v89h284v-89zM342 283h-284v87h284v-87z" />
    <glyph glyph-name="minus.numr" horiz-adv-x="400" 
d="M341 341h-284v88h284v-88z" />
    <glyph glyph-name="parenleft.dnom" horiz-adv-x="400" 
d="M282 528v-89c-45 -3 -57 -15 -57 -56v-330c0 -43 12 -54 57 -57v-89c-115 0 -165 40 -165 152v316c0 112 48 155 165 153z" />
    <glyph glyph-name="parenright.dnom" horiz-adv-x="400" 
d="M117 439v89c117 2 165 -41 165 -153v-316c0 -112 -50 -152 -165 -152v89c45 3 57 14 57 57v330c0 41 -12 53 -57 56z" />
    <glyph glyph-name="plus.dnom" horiz-adv-x="400" 
d="M248 248h94v-88h-94v-91h-96v91h-95v88h95v96h96v-96z" />
    <glyph glyph-name="zero.dnom" horiz-adv-x="400" 
d="M199 428c96 0 149 -47 149 -145v-145c0 -96 -50 -147 -149 -147c-97 0 -148 51 -148 147v145c0 98 53 145 148 145zM200 336c-29 0 -45 -14 -45 -52v-148c0 -36 15 -53 45 -53s45 17 45 53v148c0 38 -17 52 -45 52z" />
    <glyph glyph-name="one.dnom" horiz-adv-x="399" 
d="M266 92h75v-92h-265v92h87v225h-2l-84 -34l-21 88l134 50h76v-329z" />
    <glyph glyph-name="two.dnom" horiz-adv-x="400" 
d="M183 429c104 0 151 -43 151 -121v-15c0 -45 -16 -82 -62 -127l-71 -74h133v-92h-269v76l139 157c20 22 25 35 25 56v12c0 25 -16 38 -57 38c-24 0 -62 -5 -96 -15v90c40 9 82 15 107 15z" />
    <glyph glyph-name="three.dnom" horiz-adv-x="400" 
d="M183 429c92 0 141 -44 141 -108v-11c0 -40 -21 -74 -65 -90c46 -14 74 -53 74 -98v-8c0 -71 -53 -122 -148 -122c-24 0 -68 3 -108 9v87c34 -5 75 -8 99 -8c36 0 50 14 50 41v10c0 30 -15 45 -54 45h-70v80h68c36 0 48 14 48 43v10c0 23 -13 34 -45 34
c-24 0 -63 -5 -96 -10v87c40 6 81 9 106 9z" />
    <glyph glyph-name="four.dnom" horiz-adv-x="400" 
d="M137 167h87v29l4 90h95v-119h46v-88h-46v-79h-99v79h-169l-25 52l100 290h91z" />
    <glyph glyph-name="five.dnom" horiz-adv-x="400" 
d="M307 334h-154v-93c23 20 56 31 90 31c60 0 99 -37 99 -122v-18c0 -94 -46 -140 -153 -140c-38 0 -95 7 -125 15v85c30 -5 92 -12 115 -12c42 0 60 18 60 50v18c0 27 -15 42 -38 42c-28 0 -47 -9 -68 -31h-76v263h250v-88z" />
    <glyph glyph-name="six.dnom" horiz-adv-x="400" 
d="M317 421v-81c-126 -4 -162 -35 -162 -96v-13c27 25 56 38 88 38c63 0 104 -38 104 -123v-22c0 -81 -49 -132 -150 -132c-93 0 -144 49 -144 141v90c0 127 76 198 264 198zM211 187c-19 0 -36 -12 -56 -30v-36c0 -29 16 -45 46 -45c28 0 44 16 44 43v30
c0 25 -14 38 -34 38z" />
    <glyph glyph-name="seven.dnom" horiz-adv-x="400" 
d="M345 354l-161 -354h-108l152 333h-173v87h290v-66z" />
    <glyph glyph-name="eight.dnom" horiz-adv-x="400" 
d="M200 429c88 0 137 -40 137 -110v-6c0 -40 -17 -71 -50 -85c45 -17 68 -52 68 -94v-14c0 -82 -51 -128 -155 -128c-102 0 -156 45 -156 128v14c0 42 24 78 68 94c-34 15 -50 46 -50 85v6c0 69 48 110 138 110zM200 353c-27 0 -42 -12 -42 -33v-22c0 -25 9 -36 42 -36
c32 0 41 11 41 36v22c0 21 -14 33 -41 33zM200 185c-34 0 -53 -19 -53 -45v-26c0 -23 19 -41 53 -41s52 19 52 41v26c0 26 -19 45 -52 45z" />
    <glyph glyph-name="nine.dnom" horiz-adv-x="400" 
d="M202 428c91 0 145 -48 145 -140v-136c0 -107 -52 -160 -160 -160c-33 0 -80 5 -108 10v87c22 -4 71 -10 99 -10c49 0 67 20 67 65v39c-27 -25 -56 -38 -87 -38c-65 0 -105 41 -105 125v24c0 86 53 134 149 134zM199 342c-28 0 -44 -15 -44 -43v-31c0 -26 13 -38 34 -38
c20 0 36 12 56 29v38c0 30 -15 45 -46 45z" />
    <glyph glyph-name="equal.dnom" horiz-adv-x="400" 
d="M342 228h-284v89h284v-89zM342 102h-284v87h284v-87z" />
    <glyph glyph-name="minus.dnom" horiz-adv-x="400" 
d="M341 160h-284v88h284v-88z" />
    <glyph glyph-name="space.frac" horiz-adv-x="60" 
 />
    <glyph glyph-name="quotedbl.osf" horiz-adv-x="353" 
d="M153 412h-117v271h117v-271zM317 412h-117v271h117v-271z" />
    <glyph glyph-name="numbersign.osf" horiz-adv-x="563" 
d="M453 429h73v-101h-73v-133h73v-101h-73v-94h-116v94h-111v-94h-116v94h-73v101h73v133h-73v101h73v94h116v-94h111v94h116v-94zM226 328v-133h111v133h-111z" />
    <glyph glyph-name="dollar.osf" horiz-adv-x="390" 
d="M255 605v-85c26 -2 56 -7 83 -11l-1 -99c-43 8 -99 16 -133 16c-51 0 -73 -17 -73 -47v-15c0 -23 15 -34 55 -45l71 -23c83 -25 118 -63 118 -142v-18c0 -76 -37 -125 -120 -141v-89h-108v84c-31 3 -75 9 -111 17l1 100c45 -10 105 -20 134 -20c65 0 93 17 93 48v19
c0 24 -16 35 -48 45l-77 24c-85 27 -118 64 -118 142v11c0 78 39 129 126 142v87h108z" />
    <glyph glyph-name="percent.osf" horiz-adv-x="874" 
d="M200 625c109 0 164 -59 164 -166v-28c0 -107 -54 -167 -164 -167c-108 0 -166 58 -166 167v28c0 107 57 166 166 166zM337 0h-126l335 613h127zM200 524c-34 0 -52 -18 -52 -62v-34c0 -44 18 -63 52 -63s51 19 51 63v34c0 45 -17 62 -51 62zM684 349
c109 0 164 -59 164 -167v-28c0 -106 -54 -166 -164 -166c-108 0 -166 58 -166 166v28c0 108 57 167 166 167zM684 248c-34 0 -52 -19 -52 -63v-34c0 -44 18 -62 52 -62s51 19 51 62v34c0 45 -17 63 -51 63z" />
    <glyph glyph-name="quotesingle.osf" horiz-adv-x="190" 
d="M153 412h-117v271h117v-271z" />
    <glyph glyph-name="plus.osf" horiz-adv-x="407" 
d="M258 307h129v-102h-129v-141h-109v141h-130v102h130v141h109v-141z" />
    <glyph glyph-name="zero.osf" horiz-adv-x="468" 
d="M234 523c123 0 193 -68 193 -206v-122c0 -138 -71 -207 -194 -207c-124 0 -193 69 -193 207v122c0 138 70 206 194 206zM234 421c-48 0 -77 -27 -77 -94v-142c0 -68 30 -95 77 -95c46 0 77 27 77 95v142c0 67 -31 94 -77 94z" />
    <glyph glyph-name="one.osf" horiz-adv-x="311" 
d="M261 0h-117v392h-2l-118 -52l-23 102l168 69h92v-511z" />
    <glyph glyph-name="two.osf" horiz-adv-x="385" 
d="M158 523c136 0 195 -55 195 -159v-15c0 -63 -25 -114 -81 -162l-98 -85h191v-102h-354v85l177 160c39 35 48 59 48 97v10c0 48 -26 70 -92 70c-34 0 -84 -9 -126 -22v101c50 13 107 22 140 22z" />
    <glyph glyph-name="three.osf" horiz-adv-x="366" 
d="M151 523c118 0 183 -64 183 -154v-16c0 -56 -30 -108 -83 -131c59 -21 95 -77 95 -139v-20c0 -121 -93 -196 -331 -197v100c174 3 215 37 215 107v17c0 54 -29 81 -85 81h-98v96h95c53 0 75 27 75 78v19c0 39 -23 61 -75 61c-34 0 -86 -7 -127 -14v98c50 8 103 14 136 14
z" />
    <glyph glyph-name="four.osf" horiz-adv-x="440" 
d="M376 102h64v-102h-64v-115h-115v115h-267v78l238 433h144v-409zM122 102h140v265z" />
    <glyph glyph-name="five.osf" horiz-adv-x="420" 
d="M358 409h-210v-157c30 27 76 42 123 42c86 0 133 -49 133 -170v-27c0 -152 -90 -230 -348 -231v99c190 3 232 44 232 128v26c0 54 -22 74 -58 74c-41 0 -71 -16 -106 -54h-88v372h322v-102z" />
    <glyph glyph-name="six.osf" horiz-adv-x="453" 
d="M372 606v-100c-163 -5 -215 -46 -215 -127v-41c42 41 80 58 120 58c89 0 145 -57 145 -182v-36c0 -125 -68 -190 -192 -190s-190 70 -190 194v183c0 153 105 239 332 241zM247 292c-28 0 -60 -21 -90 -51v-65c0 -59 25 -86 73 -86c50 0 75 26 75 81v46
c0 51 -21 75 -58 75z" />
    <glyph glyph-name="seven.osf" horiz-adv-x="397" 
d="M390 436l-232 -550h-124l225 523v2h-261v100h392v-75z" />
    <glyph glyph-name="eight.osf" horiz-adv-x="447" 
d="M223 613c111 0 177 -54 177 -156v-9c0 -52 -24 -101 -67 -124c57 -23 90 -75 90 -137v-19c0 -114 -70 -180 -200 -180c-129 0 -200 65 -200 180v19c0 61 33 114 90 137c-44 23 -66 72 -66 124v9c0 101 66 156 176 156zM223 520c-43 0 -63 -21 -63 -63v-23
c0 -45 18 -64 63 -64c46 0 63 19 63 64v23c0 44 -21 63 -63 63zM224 275c-53 0 -84 -30 -84 -81v-36c0 -43 29 -73 84 -73c54 0 83 30 83 73v36c0 52 -32 81 -83 81z" />
    <glyph glyph-name="nine.osf" horiz-adv-x="455" 
d="M225 523c123 0 190 -68 190 -194v-222c0 -160 -70 -234 -209 -234c-42 0 -107 9 -137 15v101c34 -7 103 -15 128 -15c67 0 101 39 101 121v58c-40 -38 -80 -57 -122 -57c-88 0 -143 58 -143 182v55c0 123 66 190 192 190zM225 421c-50 0 -75 -27 -75 -81v-65
c0 -52 21 -75 58 -75c28 0 60 21 90 50v85c0 59 -26 86 -73 86z" />
    <glyph glyph-name="less.osf" horiz-adv-x="407" 
d="M389 347l-228 -94l228 -96v-116l-372 165v93l372 165v-117z" />
    <glyph glyph-name="equal.osf" horiz-adv-x="409" 
d="M388 298h-366v100h366v-100zM388 123h-366v100h366v-100z" />
    <glyph glyph-name="greater.osf" horiz-adv-x="407" 
d="M389 299v-93l-372 -165v116l229 96l-229 94v117z" />
    <glyph glyph-name="asciitilde.osf" horiz-adv-x="409" 
d="M133 322c65 0 85 -26 146 -26c41 0 109 28 109 28v-101s-51 -31 -111 -31c-66 0 -85 27 -147 27c-41 0 -109 -29 -109 -29v101s52 31 112 31z" />
    <glyph glyph-name="cent.osf" horiz-adv-x="374" 
d="M269 576v-79c21 -1 40 -4 70 -9l-2 -103c-36 6 -62 11 -95 11c-61 0 -85 -27 -85 -87v-130c0 -62 27 -86 85 -86c30 0 55 3 94 11l3 -104c-28 -5 -47 -8 -70 -10v-78h-107v84c-83 19 -122 80 -122 179v138c0 97 39 160 122 179v84h107z" />
    <glyph glyph-name="sterling.osf" horiz-adv-x="399" 
d="M250 524c36 0 76 -7 111 -16v-95c-27 7 -63 13 -87 13c-63 0 -82 -20 -82 -64v-33h86v-93h-86v-40c0 -44 -13 -73 -40 -94h250v-102h-363v77c26 32 37 64 37 108v51h-63v93h63v33c0 111 57 162 174 162z" />
    <glyph glyph-name="currency.osf" horiz-adv-x="482" 
d="M466 411l-60 -60c9 -22 13 -45 13 -74v-19c0 -32 -5 -56 -17 -80l64 -63l-78 -78l-61 63c-25 -12 -53 -18 -88 -18c-33 0 -61 5 -86 17l-60 -61l-77 77l61 61c-12 24 -18 49 -18 82v19c0 31 4 53 15 77l-58 57l77 77l54 -54c26 13 57 20 92 20c36 0 68 -8 94 -22l55 57z
M239 350c-46 0 -66 -30 -66 -72v-21c0 -43 19 -73 66 -73s66 30 66 73v21c0 42 -18 72 -66 72z" />
    <glyph glyph-name="yen.osf" horiz-adv-x="407" 
d="M297 267h54v-84h-91v-32h91v-84h-91v-67h-111v67h-92v84h92v32h-92v84h53l-119 244h124l90 -240l90 240h122z" />
    <glyph glyph-name="section.osf" horiz-adv-x="419" 
d="M224 695c36 0 69 -4 113 -13l-2 -101c-41 10 -75 14 -104 14c-50 0 -66 -14 -66 -44v-26c0 -21 8 -34 32 -44l108 -48c73 -31 100 -71 100 -122v-32c0 -54 -31 -100 -90 -119c36 -17 59 -56 59 -100v-36c-1 -92 -53 -143 -184 -143c-45 0 -80 6 -125 16l3 103
c41 -9 79 -16 117 -16c53 0 71 13 71 43v24c0 26 -8 40 -32 50l-108 44c-71 29 -100 66 -100 125v27c0 60 36 108 92 123c-37 18 -60 58 -60 102v30c0 90 48 143 176 143zM246 348l-31 10c-55 -2 -81 -29 -81 -64v-20c0 -18 10 -30 43 -42l35 -12c53 2 77 27 77 62v19
c0 21 -14 38 -43 47z" />
    <glyph glyph-name="logicalnot.osf" horiz-adv-x="407" 
d="M390 64h-108v141h-265v101h373v-242z" />
    <glyph glyph-name="degree.osf" horiz-adv-x="396" 
d="M199 695c112 0 168 -62 168 -175v-20c0 -114 -56 -176 -168 -176c-113 0 -170 62 -170 176v20c0 113 57 175 170 175zM198 598c-39 0 -61 -23 -61 -75v-26c0 -53 22 -75 61 -75c38 0 60 22 60 75v26c0 53 -21 75 -60 75z" />
    <glyph glyph-name="plusminus.osf" horiz-adv-x="411" 
d="M260 329h129v-101h-129v-89h-109v89h-130v101h130v136h109v-136zM389 0h-368v101h368v-101z" />
    <glyph glyph-name="mu.osf" horiz-adv-x="460" 
d="M407 0h-108v66c-26 -39 -58 -62 -89 -66c-14 -3 -30 -2 -43 2v-187h-114v673h117v-316c0 -55 17 -75 42 -75c26 0 55 21 79 59v332h116v-488z" />
    <glyph glyph-name="multiply.osf" horiz-adv-x="407" 
d="M375 356l-99 -99l101 -100l-77 -74l-100 99l-97 -98l-72 72l97 98l-99 100l74 77l101 -102l98 99z" />
    <glyph glyph-name="divide.osf" horiz-adv-x="409" 
d="M204 475c44 0 65 -23 65 -59v-16c0 -35 -21 -58 -65 -58c-42 0 -63 23 -63 58v16c0 36 21 59 63 59zM387 205h-366v101h366v-101zM204 169c44 0 65 -23 65 -59v-16c0 -35 -21 -58 -65 -58c-42 0 -63 23 -63 58v16c0 36 21 59 63 59z" />
    <glyph glyph-name="florin.osf" horiz-adv-x="319" 
d="M245 613c27 0 61 -5 78 -9v-97c-23 3 -42 5 -64 5c-37 0 -58 -20 -58 -69v-37h92v-101h-92v-490h-116v490h-64v101h64v41c0 109 57 166 160 166z" />
    <glyph glyph-name="dagger.osf" horiz-adv-x="401" 
d="M259 390h125v-110h-125v-280h-117v280h-125v110h125v133h117v-133z" />
    <glyph glyph-name="daggerdbl.osf" horiz-adv-x="413" 
d="M265 408h125v-106h-125v-57h116v-106h-116v-139h-117v139h-116v106h116v57h-125v106h125v115h117v-115z" />
    <glyph glyph-name="perthousand.osf" horiz-adv-x="1253" 
d="M200 625c109 0 164 -59 164 -166v-28c0 -107 -54 -167 -164 -167c-108 0 -166 58 -166 167v28c0 107 57 166 166 166zM337 0h-126l335 613h127zM200 524c-34 0 -52 -18 -52 -62v-34c0 -44 18 -63 52 -63s51 19 51 63v34c0 45 -17 62 -51 62zM684 349
c109 0 164 -59 164 -167v-28c0 -106 -54 -166 -164 -166c-108 0 -166 58 -166 166v28c0 108 57 167 166 167zM1063 349c109 0 164 -59 164 -167v-28c0 -106 -54 -166 -164 -166c-108 0 -166 58 -166 166v28c0 108 57 167 166 167zM684 248c-34 0 -52 -19 -52 -63v-34
c0 -44 18 -62 52 -62s51 19 51 62v34c0 45 -17 63 -51 63zM1063 248c-34 0 -52 -19 -52 -63v-34c0 -44 18 -62 52 -62s51 19 51 62v34c0 45 -17 63 -51 63z" />
    <glyph glyph-name="Euro.osf" horiz-adv-x="400" 
d="M255 523c36 0 78 -6 130 -14l-1 -95c-35 6 -81 13 -115 13c-67 0 -88 -20 -90 -73v-9h174l-15 -71h-159v-45h147l-16 -71h-130v-1c2 -52 27 -71 91 -71c37 0 80 7 114 14l2 -98c-45 -7 -91 -14 -130 -14c-129 0 -187 56 -187 168v2h-70l15 71h55v45h-62l15 71h47v10
c0 106 54 168 185 168z" />
    <glyph glyph-name="Omega.osf" horiz-adv-x="554" 
d="M276 667c153 0 227 -80 227 -218v-188c0 -65 -18 -115 -63 -151h72v-110h-206v105h6c43 0 71 40 71 106v247c0 67 -38 103 -107 103c-68 0 -106 -36 -106 -103v-247c0 -66 28 -106 71 -106h6v-105h-206v110h72c-45 36 -62 87 -62 151v188c0 138 72 218 225 218z" />
    <glyph glyph-name="partialdiff.osf" horiz-adv-x="444" 
d="M77 603v92c207 0 322 -120 322 -357v-163c0 -117 -59 -187 -180 -187c-129 0 -179 54 -179 175v103c0 113 51 173 130 173c38 0 83 -22 114 -68v21c0 137 -83 211 -207 211zM202 333c-28 0 -45 -20 -45 -78v-101c0 -44 22 -65 63 -65c43 0 63 23 63 65v118
c-25 41 -54 61 -81 61z" />
    <glyph glyph-name="Delta.osf" horiz-adv-x="527" 
d="M511 74v-74h-494v73l177 582h139zM142 106h237l-116 449z" />
    <glyph glyph-name="product.osf" horiz-adv-x="584" 
d="M587 545h-88v-730h-116v730h-181v-730h-116v730h-88v110h589v-110z" />
    <glyph glyph-name="summation.osf" horiz-adv-x="414" 
d="M406 548h-258l166 -277v-63l-171 -286h263v-107h-399v90l194 331l-194 329v90h399v-107z" />
    <glyph glyph-name="minus.osf" horiz-adv-x="409" 
d="M388 205h-367v101h367v-101z" />
    <glyph glyph-name="radical.osf" horiz-adv-x="510" 
d="M572 587h-97l-183 -587h-142l-139 488h123l90 -400l162 595h186v-96z" />
    <glyph glyph-name="infinity.osf" horiz-adv-x="530" 
d="M370 396c98 0 145 -47 145 -139v-10c0 -88 -45 -138 -145 -138c-43 0 -82 17 -105 49c-23 -32 -62 -49 -105 -49c-100 0 -145 49 -145 138v10c0 91 47 139 145 139c43 0 83 -18 105 -49c23 31 62 49 105 49zM166 304c-32 0 -46 -17 -46 -44v-16c0 -28 14 -43 46 -43
s46 16 46 43v16c0 27 -15 44 -46 44zM364 304c-31 0 -46 -17 -46 -44v-16c0 -27 14 -43 46 -43s46 15 46 43v16c0 27 -14 44 -46 44z" />
    <glyph glyph-name="integral.osf" horiz-adv-x="321" 
d="M258 695c24 0 59 -4 78 -8v-98c-23 4 -42 6 -64 6c-36 0 -58 -19 -58 -70v-552c0 -109 -56 -169 -160 -169c-24 0 -59 4 -78 8v97c23 -3 42 -5 64 -5c37 0 58 18 58 69v553c0 110 57 169 160 169z" />
    <glyph glyph-name="approxequal.osf" horiz-adv-x="409" 
d="M133 416c65 0 85 -27 146 -27c41 0 109 29 109 29v-101s-51 -31 -111 -31c-66 0 -85 26 -147 26c-41 0 -109 -28 -109 -28v101s52 31 112 31zM133 249c65 0 85 -27 146 -27c41 0 109 29 109 29v-101s-51 -31 -111 -31c-66 0 -85 26 -148 26c-40 0 -108 -28 -108 -28v101
s52 31 112 31z" />
    <glyph glyph-name="notequal.osf" horiz-adv-x="409" 
d="M337 398h50v-100h-112l-47 -75h159v-100h-222l-32 -52h-94l32 52h-50v100h113l46 75h-159v100h222l32 51h94z" />
    <glyph glyph-name="lessequal.osf" horiz-adv-x="407" 
d="M389 395l-241 -74l241 -76v-117l-372 146v92l372 146v-117zM389 0h-372v101h372v-101z" />
    <glyph glyph-name="greaterequal.osf" horiz-adv-x="407" 
d="M389 366v-92l-372 -146v117l241 76l-241 74v117zM389 0h-372v101h372v-101z" />
    <glyph glyph-name="lozenge.osf" horiz-adv-x="545" 
d="M540 342l-217 -342h-101l-217 342l217 341h101zM136 342l137 -232l137 232l-137 232z" />
    <glyph glyph-name="quotedbl.tf" 
d="M160 412h-117v271h117v-271zM324 412h-117v271h117v-271z" />
    <glyph glyph-name="numbersign.tf" 
d="M455 539h73v-100h-73v-223h73v-100h-73v-116h-116v116h-117v-116h-116v116h-73v100h73v223h-73v100h73v116h116v-116h117v116h116v-116zM222 439v-223h117v223h-117z" />
    <glyph glyph-name="dollar.tf" 
d="M335 749v-85c29 -3 64 -9 96 -15l-2 -109c-50 11 -108 19 -144 19c-61 0 -83 -27 -83 -70v-21c0 -35 10 -51 60 -67l88 -29c91 -30 126 -79 126 -179v-19c0 -96 -39 -158 -141 -178v-90h-108v83c-32 3 -80 10 -128 21l1 111c54 -13 114 -23 147 -23c81 0 109 26 109 72
v26c0 34 -15 55 -50 66l-97 33c-95 31 -127 75 -127 177v10c0 101 44 165 145 181v86h108z" />
    <glyph glyph-name="percent.tf" horiz-adv-x="869" 
d="M210 667c109 0 164 -59 164 -166v-28c0 -107 -54 -167 -164 -167c-108 0 -166 58 -166 167v28c0 107 57 166 166 166zM322 0h-126l358 655h127zM210 566c-34 0 -52 -18 -52 -62v-34c0 -44 18 -63 52 -63s51 19 51 63v34c0 45 -17 62 -51 62zM669 349
c109 0 164 -59 164 -167v-28c0 -106 -54 -166 -164 -166c-108 0 -166 58 -166 166v28c0 108 57 167 166 167zM669 248c-34 0 -52 -19 -52 -63v-34c0 -44 18 -62 52 -62s51 19 51 62v34c0 45 -17 63 -51 63z" />
    <glyph glyph-name="quotesingle.tf" 
d="M160 412h-117v271h117v-271z" />
    <glyph glyph-name="plus.tf" 
d="M335 367h129v-102h-129v-141h-109v141h-130v102h130v141h109v-141z" />
    <glyph glyph-name="zero.tf" 
d="M280 667c124 0 199 -66 199 -206v-266c0 -139 -73 -207 -199 -207s-199 68 -199 207v266c0 140 74 206 199 206zM280 565c-50 0 -82 -27 -82 -94v-286c0 -67 32 -95 82 -95c49 0 82 28 82 95v286c0 67 -33 94 -82 94z" />
    <glyph glyph-name="one.tf" horiz-adv-x="551" 
d="M374 102h115v-102h-359v102h127v433h-2l-126 -52l-23 103l176 69h92v-553z" />
    <glyph glyph-name="two.tf" 
d="M249 667c134 0 200 -56 200 -166v-23c0 -61 -23 -117 -82 -195l-141 -181h232v-102h-372v84l205 279c30 42 40 71 40 110v18c0 50 -29 74 -93 74c-37 0 -99 -13 -136 -25v103c50 12 113 24 147 24z" />
    <glyph glyph-name="three.tf" 
d="M254 667c123 0 186 -62 186 -160v-26c0 -68 -31 -116 -86 -140c58 -20 98 -75 98 -145v-31c0 -103 -68 -177 -198 -177c-33 0 -95 7 -145 15v100c42 -8 102 -15 137 -15c55 0 89 31 89 87v28c0 59 -31 86 -87 86h-107v98h105c50 0 77 25 77 80v31c0 48 -29 70 -80 70
c-35 0 -93 -10 -134 -17v100c50 8 112 16 145 16z" />
    <glyph glyph-name="four.tf" 
d="M180 219h143v43l9 193h104v-236h69v-100h-69v-119h-114v119h-237l-28 58l139 478h105z" />
    <glyph glyph-name="five.tf" 
d="M437 553h-221v-171c29 27 78 43 125 43c89 0 141 -54 141 -183v-50c0 -134 -67 -204 -209 -204c-54 0 -123 13 -162 24v99c38 -8 123 -21 158 -21c63 0 96 33 96 98v55c0 53 -25 81 -66 81c-42 0 -75 -15 -110 -54h-88v385h336v-102z" />
    <glyph glyph-name="six.tf" 
d="M428 661v-100c-170 -5 -227 -61 -227 -142v-48c42 40 92 58 132 58c91 0 144 -60 144 -186v-62c0 -126 -69 -193 -197 -193c-129 0 -196 72 -196 197v214c0 159 108 259 344 262zM297 324c-28 0 -66 -20 -96 -50v-95c0 -61 28 -89 79 -89c52 0 80 27 80 85v71
c0 53 -24 78 -63 78z" />
    <glyph glyph-name="seven.tf" 
d="M474 580l-226 -580h-125l220 551v1h-257v103h388v-75z" />
    <glyph glyph-name="eight.tf" 
d="M280 667c113 0 183 -55 183 -159v-28c0 -53 -26 -103 -69 -126c56 -24 92 -79 92 -143v-40c0 -115 -73 -183 -206 -183c-131 0 -206 67 -206 183v40c0 63 36 119 93 143c-44 23 -69 73 -69 126v28c0 104 70 159 182 159zM281 574c-50 0 -70 -21 -70 -68v-40
c0 -47 21 -67 70 -67s69 20 69 67v40c0 49 -21 68 -69 68zM281 304c-57 0 -90 -32 -90 -85v-59c0 -45 31 -75 90 -75c58 0 89 31 89 75v59c0 54 -33 85 -89 85z" />
    <glyph glyph-name="nine.tf" 
d="M279 667c129 0 196 -72 196 -197v-260c0 -154 -69 -222 -213 -222c-42 0 -114 11 -145 17v101c34 -6 111 -17 136 -17c71 0 105 33 105 110v85c-42 -40 -92 -57 -132 -57c-91 0 -144 59 -144 186v61c0 126 69 193 197 193zM280 565c-52 0 -81 -27 -81 -85v-70
c0 -53 24 -79 64 -79c28 0 65 21 95 50v95c0 61 -28 89 -78 89z" />
    <glyph glyph-name="less.tf" 
d="M465 387l-228 -94l228 -96v-116l-372 165v93l372 165v-117z" />
    <glyph glyph-name="equal.tf" 
d="M463 358h-366v100h366v-100zM463 183h-366v100h366v-100z" />
    <glyph glyph-name="greater.tf" 
d="M465 359v-93l-372 -165v116l229 96l-229 94v117z" />
    <glyph glyph-name="asciitilde.tf" 
d="M208 402c65 0 85 -26 146 -26c41 0 109 28 109 28v-101s-51 -31 -111 -31c-66 0 -85 27 -147 27c-41 0 -109 -29 -109 -29v101s52 31 112 31z" />
    <glyph glyph-name="cent.tf" 
d="M354 576v-79c21 -1 40 -4 70 -9l-2 -103c-36 6 -62 11 -95 11c-61 0 -85 -27 -85 -87v-130c0 -62 27 -86 85 -86c30 0 55 3 94 11l3 -104c-28 -5 -47 -8 -70 -10v-78h-107v84c-83 19 -122 80 -122 179v138c0 97 39 160 122 179v84h107z" />
    <glyph glyph-name="sterling.tf" 
d="M335 667c38 0 80 -7 115 -16v-98c-27 7 -65 13 -91 13c-67 0 -85 -20 -85 -75v-84h99v-97h-99v-99c0 -53 -11 -84 -38 -107h258v-104h-373v81c27 31 37 60 37 110v119h-65v97h65v89c0 115 54 171 177 171z" />
    <glyph glyph-name="currency.tf" 
d="M506 480l-60 -60c9 -22 13 -45 13 -74v-19c0 -32 -5 -56 -17 -80l64 -63l-78 -78l-61 63c-25 -12 -53 -18 -88 -18c-33 0 -61 5 -86 17l-60 -61l-77 77l61 61c-12 24 -18 49 -18 82v19c0 31 4 53 15 77l-58 57l77 77l54 -54c26 13 57 20 92 20c36 0 68 -8 94 -22l55 57z
M279 419c-46 0 -66 -30 -66 -72v-21c0 -43 19 -73 66 -73s66 30 66 73v21c0 42 -18 72 -66 72z" />
    <glyph glyph-name="yen.tf" 
d="M368 296h65v-85h-93v-35h93v-84h-93v-92h-120v92h-93v84h93v35h-93v85h65l-161 359h135l115 -323l116 323h132z" />
    <glyph glyph-name="section.tf" 
d="M292 695c36 0 69 -4 113 -13l-2 -101c-41 10 -75 14 -104 14c-50 0 -66 -14 -66 -44v-26c0 -21 8 -34 32 -44l108 -48c73 -31 100 -71 100 -122v-32c0 -54 -31 -100 -90 -119c36 -17 59 -56 59 -100v-36c-1 -92 -53 -143 -184 -143c-45 0 -80 6 -125 16l3 103
c41 -9 79 -16 117 -16c53 0 71 13 71 43v24c0 26 -8 40 -32 50l-108 44c-71 29 -100 66 -100 125v27c0 60 36 108 92 123c-37 18 -60 58 -60 102v30c0 90 48 143 176 143zM314 348l-31 10c-55 -2 -81 -29 -81 -64v-20c0 -18 10 -30 43 -42l35 -12c53 2 77 27 77 62v19
c0 21 -14 38 -43 47z" />
    <glyph glyph-name="logicalnot.tf" 
d="M466 124h-108v141h-265v101h373v-242z" />
    <glyph glyph-name="degree.tf" 
d="M199 695c112 0 168 -62 168 -175v-20c0 -114 -56 -176 -168 -176c-113 0 -170 62 -170 176v20c0 113 57 175 170 175zM198 598c-39 0 -61 -23 -61 -75v-26c0 -53 22 -75 61 -75c38 0 60 22 60 75v26c0 53 -21 75 -60 75z" />
    <glyph glyph-name="plusminus.tf" 
d="M335 371h129v-101h-129v-115h-109v115h-130v101h130v137h109v-137zM463 0h-368v101h368v-101z" />
    <glyph glyph-name="mu.tf" 
d="M457 0h-108v66c-26 -39 -58 -62 -89 -66c-14 -3 -30 -2 -43 2v-187h-114v673h117v-316c0 -55 17 -75 42 -75c26 0 55 21 79 59v332h116v-488z" />
    <glyph glyph-name="multiply.tf" 
d="M451 416l-99 -99l101 -100l-77 -74l-100 99l-97 -98l-72 72l97 98l-99 100l74 77l101 -102l98 99z" />
    <glyph glyph-name="divide.tf" 
d="M279 535c44 0 65 -23 65 -59v-16c0 -35 -21 -58 -65 -58c-42 0 -63 23 -63 58v16c0 36 21 59 63 59zM462 265h-366v101h366v-101zM279 229c44 0 65 -23 65 -59v-16c0 -35 -21 -58 -65 -58c-42 0 -63 23 -63 58v16c0 36 21 59 63 59z" />
    <glyph glyph-name="florin.tf" 
d="M353 667c27 0 61 -4 78 -8v-98c-23 4 -42 6 -64 6c-37 0 -58 -20 -58 -70v-37h92v-101h-92v-544h-116v544h-64v101h64v42c0 108 57 165 160 165z" />
    <glyph glyph-name="uni2007.tf" 
 />
    <glyph glyph-name="dagger.tf" 
d="M337 488h141v-110h-141v-378h-116v378h-141v110h141v167h116v-167z" />
    <glyph glyph-name="daggerdbl.tf" 
d="M314 488h141v-110h-141v-106h141v-110h-141v-162h-116v162h-141v110h141v106h-141v110h141v167h116v-167z" />
    <glyph glyph-name="perthousand.tf" horiz-adv-x="1248" 
d="M210 667c109 0 164 -59 164 -166v-28c0 -107 -54 -167 -164 -167c-108 0 -166 58 -166 167v28c0 107 57 166 166 166zM322 0h-126l358 655h127zM210 566c-34 0 -52 -18 -52 -62v-34c0 -44 18 -63 52 -63s51 19 51 63v34c0 45 -17 62 -51 62zM669 349
c109 0 164 -59 164 -167v-28c0 -106 -54 -166 -164 -166c-108 0 -166 58 -166 166v28c0 108 57 167 166 167zM1048 349c109 0 164 -59 164 -167v-28c0 -106 -54 -166 -164 -166c-108 0 -166 58 -166 166v28c0 108 57 167 166 167zM669 248c-34 0 -52 -19 -52 -63v-34
c0 -44 18 -62 52 -62s51 19 51 62v34c0 45 -17 63 -51 63zM1048 248c-34 0 -52 -19 -52 -63v-34c0 -44 18 -62 52 -62s51 19 51 62v34c0 45 -17 63 -51 63z" />
    <glyph glyph-name="Euro.tf" 
d="M352 667c44 0 92 -7 150 -17l-2 -104c-39 7 -90 16 -135 16c-82 0 -114 -26 -114 -106v-23h220l-18 -84h-202v-50h190l-18 -84h-172v-22c3 -73 37 -97 114 -97c45 0 96 10 135 18l2 -108c-51 -9 -104 -18 -150 -18c-156 0 -218 68 -218 208v19h-80l18 84h62v50h-72l18 84
h54v20c0 147 59 214 218 214z" />
    <glyph glyph-name="partialdiff.tf" 
d="M137 603v92c207 0 322 -120 322 -357v-163c0 -117 -59 -187 -180 -187c-129 0 -179 54 -179 175v103c0 113 51 173 130 173c38 0 83 -22 114 -68v21c0 137 -83 211 -207 211zM262 333c-28 0 -45 -20 -45 -78v-101c0 -44 22 -65 63 -65c43 0 63 23 63 65v118
c-25 41 -54 61 -81 61z" />
    <glyph glyph-name="product.tf" 
d="M575 545h-88v-730h-116v730h-181v-730h-116v730h-88v110h589v-110z" />
    <glyph glyph-name="summation.tf" 
d="M479 548h-258l166 -277v-63l-171 -286h263v-107h-399v90l194 331l-194 329v90h399v-107z" />
    <glyph glyph-name="minus.tf" 
d="M463 265h-367v101h367v-101z" />
    <glyph glyph-name="radical.tf" 
d="M615 653h-98l-203 -653h-142l-153 543h124l103 -455l182 661h187v-96z" />
    <glyph glyph-name="infinity.tf" 
d="M385 456c98 0 145 -47 145 -139v-10c0 -88 -45 -138 -145 -138c-43 0 -82 17 -105 49c-23 -32 -62 -49 -105 -49c-100 0 -145 49 -145 138v10c0 91 47 139 145 139c43 0 83 -18 105 -49c23 31 62 49 105 49zM181 364c-32 0 -46 -17 -46 -44v-16c0 -28 14 -43 46 -43
s46 16 46 43v16c0 27 -15 44 -46 44zM379 364c-31 0 -46 -17 -46 -44v-16c0 -27 14 -43 46 -43s46 15 46 43v16c0 27 -14 44 -46 44z" />
    <glyph glyph-name="integral.tf" 
d="M383 750c24 0 59 -4 78 -8v-98c-23 4 -42 6 -64 6c-36 0 -58 -19 -58 -70v-607c0 -109 -56 -169 -160 -169c-24 0 -59 4 -78 8v97c23 -3 42 -5 64 -5c37 0 58 18 58 69v608c0 110 57 169 160 169z" />
    <glyph glyph-name="approxequal.tf" 
d="M208 476c65 0 85 -27 146 -27c41 0 109 29 109 29v-101s-51 -31 -111 -31c-66 0 -85 26 -147 26c-41 0 -109 -28 -109 -28v101s52 31 112 31zM208 309c65 0 85 -27 146 -27c41 0 109 29 109 29v-101s-51 -31 -111 -31c-66 0 -85 26 -148 26c-40 0 -108 -28 -108 -28v101
s52 31 112 31z" />
    <glyph glyph-name="notequal.tf" 
d="M412 458h50v-100h-112l-47 -75h159v-100h-222l-32 -52h-94l32 52h-50v100h113l46 75h-159v100h222l32 51h94z" />
    <glyph glyph-name="lessequal.tf" 
d="M466 442l-228 -94l228 -96v-116l-372 165v93l372 165v-117zM466 0h-372v101h372v-101z" />
    <glyph glyph-name="greaterequal.tf" 
d="M466 394v-93l-372 -165v116l229 96l-229 94v117zM466 0h-372v101h372v-101z" />
    <glyph glyph-name="lozenge.tf" 
d="M548 342l-217 -342h-101l-217 342l217 341h101zM143 342l137 -232l137 232l-137 232z" />
    <glyph glyph-name="quotedbl.tosf" 
d="M160 412h-117v271h117v-271zM324 412h-117v271h117v-271z" />
    <glyph glyph-name="numbersign.tosf" 
d="M452 429h73v-101h-73v-133h73v-101h-73v-94h-116v94h-111v-94h-116v94h-73v101h73v133h-73v101h73v94h116v-94h111v94h116v-94zM224 328v-133h111v133h-111z" />
    <glyph glyph-name="dollar.tosf" 
d="M340 605v-85c26 -2 56 -7 83 -11l-1 -99c-43 8 -99 16 -133 16c-51 0 -73 -17 -73 -47v-15c0 -23 14 -33 55 -45l71 -23c83 -25 118 -63 118 -142v-18c0 -76 -37 -125 -120 -141v-89h-108v84c-31 3 -75 9 -111 17l1 100c45 -10 105 -20 134 -20c65 0 93 17 93 48v19
c0 24 -16 35 -48 45l-77 24c-85 27 -118 64 -118 142v11c0 78 39 129 126 142v87h108z" />
    <glyph glyph-name="percent.tosf" horiz-adv-x="893" 
d="M205 625c109 0 164 -59 164 -166v-28c0 -107 -54 -167 -164 -167c-108 0 -166 58 -166 167v28c0 107 57 166 166 166zM342 0h-126l335 613h127zM205 524c-34 0 -52 -18 -52 -62v-34c0 -44 18 -63 52 -63s51 19 51 63v34c0 45 -17 62 -51 62zM689 349
c109 0 164 -59 164 -167v-28c0 -106 -54 -166 -164 -166c-108 0 -166 58 -166 166v28c0 108 57 167 166 167zM689 248c-34 0 -52 -19 -52 -63v-34c0 -44 18 -62 52 -62s51 19 51 62v34c0 45 -17 63 -51 63z" />
    <glyph glyph-name="quotesingle.tosf" 
d="M160 412h-117v271h117v-271z" />
    <glyph glyph-name="plus.tosf" 
d="M334 307h129v-102h-129v-141h-109v141h-130v102h130v141h109v-141z" />
    <glyph glyph-name="zero.tosf" 
d="M280 523c123 0 193 -68 193 -206v-122c0 -138 -71 -207 -194 -207c-124 0 -193 69 -193 207v122c0 138 70 206 194 206zM280 421c-48 0 -77 -27 -77 -94v-142c0 -68 30 -95 77 -95c46 0 77 27 77 95v142c0 67 -31 94 -77 94z" />
    </font>
</defs>
</svg>
